<?xml version="1.0" standalone="no"?>
<!DOCTYPE svg PUBLIC "-//W3C//DTD SVG 20010904//EN"
 "http://www.w3.org/TR/2001/REC-SVG-20010904/DTD/svg10.dtd">
<svg version="1.0" xmlns="http://www.w3.org/2000/svg"
 width="960.000000pt" height="960.000000pt" viewBox="0 0 960.000000 960.000000"
 preserveAspectRatio="xMidYMid meet">
<metadata>
Created by potrace 1.11, written by Peter Selinger 2001-2013
</metadata>
<g transform="translate(0.000000,960.000000) scale(0.100000,-0.100000)"
fill="#000000" stroke="none">
<path d="M180 7040 l0 -2330 4625 0 4625 0 0 2330 0 2330 -4625 0 -4625 0 0
-2330z m1045 -181 c3 -4 94 -267 201 -585 107 -319 238 -704 291 -857 63 -184
92 -282 85 -289 -19 -19 -92 -29 -133 -18 -50 14 -60 33 -139 278 l-62 192
-351 -2 -352 -3 -74 -225 c-41 -124 -79 -229 -85 -233 -13 -9 -151 -5 -161 5
-6 6 133 430 444 1353 130 386 129 383 149 389 23 7 179 2 187 -5z m2812 -55
c27 -17 39 -87 27 -147 -12 -56 -38 -69 -133 -65 -96 4 -111 21 -111 117 0 40
5 75 13 85 26 36 155 42 204 10z m-829 -241 l2 -193 163 -2 162 -3 0 -65 0
-65 -162 -3 -163 -2 0 -451 c0 -323 3 -456 12 -472 22 -41 38 -46 159 -47 136
0 142 -3 137 -82 l-3 -53 -60 -8 c-33 -4 -110 -6 -171 -4 -98 3 -116 6 -156
30 -32 18 -53 40 -67 70 -20 42 -21 56 -21 530 l0 487 -89 0 -88 0 -6 35 c-3
19 -3 51 0 70 l6 35 88 0 89 0 0 169 c0 156 2 170 21 195 19 25 26 27 83 24
l61 -3 3 -192z m1802 -174 c36 -5 101 -22 145 -37 88 -30 97 -42 75 -105 -24
-71 -27 -72 -132 -36 -71 24 -116 33 -188 37 -148 7 -225 -24 -268 -108 -29
-55 -24 -117 12 -165 29 -37 125 -90 256 -140 133 -51 206 -92 267 -152 77
-74 98 -126 98 -238 0 -78 -4 -97 -28 -147 -70 -142 -240 -216 -472 -205 -123
6 -207 28 -317 83 -52 26 -68 39 -68 56 0 30 48 108 66 108 8 0 46 -16 84 -35
196 -98 394 -99 496 -1 92 89 81 208 -27 285 -22 17 -84 46 -137 66 -236 89
-358 170 -407 270 -30 60 -28 214 3 272 83 158 294 232 542 192z m1205 -14
c106 -30 186 -109 222 -220 13 -41 17 -119 23 -445 7 -408 11 -443 51 -494
l21 -26 -21 -33 c-33 -53 -54 -61 -101 -37 -44 23 -81 68 -101 122 l-13 37
-36 -33 c-57 -51 -126 -96 -193 -124 -53 -22 -77 -26 -167 -26 -129 -1 -183
17 -256 86 -75 71 -108 148 -112 265 -8 203 79 331 270 394 66 22 89 24 233
23 88 -1 181 -6 208 -12 l47 -9 0 88 c0 159 -35 245 -116 284 -84 41 -247 27
-417 -36 -126 -47 -129 -47 -154 -2 -11 21 -24 52 -27 69 l-7 31 93 35 c215
82 408 103 553 63z m2669 -10 c117 -34 126 -39 126 -76 0 -29 -34 -109 -47
-109 -3 0 -47 14 -97 32 -82 29 -103 32 -206 33 -101 0 -121 -3 -163 -24 -65
-31 -102 -88 -101 -151 1 -98 53 -141 274 -230 212 -85 297 -146 348 -250 23
-47 27 -67 27 -145 0 -78 -4 -97 -28 -147 -70 -142 -240 -216 -472 -205 -123
6 -207 28 -317 83 -51 26 -68 39 -68 55 0 26 23 69 49 93 21 19 22 18 108 -22
126 -58 201 -75 299 -69 99 6 156 29 206 85 79 87 57 205 -51 279 -18 12 -87
43 -154 69 -239 92 -324 151 -378 259 -29 60 -31 70 -27 148 3 67 9 93 30 128
54 92 160 165 275 188 84 18 267 6 367 -24z m-6682 -55 c16 -19 36 -56 46 -82
9 -27 19 -48 22 -48 3 0 18 20 33 45 75 118 213 179 364 160 l56 -7 -6 -56
c-3 -32 -10 -69 -17 -83 -12 -25 -17 -27 -99 -31 -141 -7 -211 -49 -285 -172
l-36 -60 0 -427 c0 -380 -2 -428 -16 -433 -22 -9 -127 -7 -141 2 -9 5 -13 134
-15 502 -3 450 -5 500 -22 545 -10 28 -29 64 -42 82 -32 43 -30 65 11 108 l34
37 42 -24 c23 -12 55 -39 71 -58z m5441 66 c86 -31 129 -77 175 -188 l27 -63
6 -465 c4 -256 10 -479 14 -496 6 -27 4 -32 -22 -42 -73 -28 -132 -20 -156 22
-9 15 -13 145 -17 486 -5 453 -6 466 -27 513 -18 39 -31 52 -69 69 -111 48
-317 -15 -451 -140 l-43 -39 0 -455 c0 -406 -2 -457 -16 -462 -20 -8 -112 -8
-141 0 l-23 6 0 617 c0 467 3 620 12 629 15 15 89 16 122 1 30 -14 46 -55 46
-117 l0 -44 36 31 c71 63 163 110 269 137 66 16 211 17 258 0z m-3670 -10 c40
-17 71 -51 86 -95 8 -24 11 -201 11 -591 0 -500 -2 -558 -16 -564 -20 -8 -112
-8 -141 0 l-23 6 0 528 c0 600 4 568 -81 579 l-44 6 0 65 0 65 35 6 c63 11
140 9 173 -5z"/>
<path d="M1105 6638 c-2 -7 -24 -83 -49 -168 -25 -85 -88 -283 -141 -440 -52
-156 -95 -286 -95 -287 0 -2 133 -3 295 -3 162 0 295 3 295 7 0 4 -54 169
-119 368 -66 198 -131 399 -146 448 -26 87 -32 98 -40 75z"/>
<path d="M5900 5715 c-72 -21 -123 -55 -157 -107 -25 -38 -28 -50 -28 -132 0
-81 3 -96 27 -138 42 -70 86 -93 179 -93 70 0 84 4 162 43 60 30 103 60 146
104 l61 61 0 127 0 127 -47 7 c-115 16 -288 16 -343 1z"/>
<path d="M570 4329 l0 -191 -22 5 c-13 4 -50 14 -84 23 -54 16 -68 16 -119 5
-49 -11 -67 -22 -115 -70 -69 -67 -98 -136 -107 -250 -11 -152 37 -320 108
-373 90 -67 215 -62 308 11 l40 32 33 -36 c43 -46 82 -51 111 -13 21 28 21 28
1 65 -18 36 -19 68 -24 496 -6 519 0 487 -87 487 l-43 0 0 -191z m-73 -284
c74 -31 73 -29 73 -221 0 -172 0 -173 -26 -204 -35 -42 -94 -70 -145 -70 -84
0 -134 93 -134 250 0 109 19 172 65 221 33 34 42 39 84 39 26 0 63 -7 83 -15z"/>
<path d="M1554 4507 c-2 -7 -3 -234 -2 -504 l3 -491 24 -26 c33 -35 89 -49
168 -40 l64 6 -3 52 -3 51 -47 3 c-25 2 -51 9 -57 16 -7 8 -11 166 -13 460
l-3 448 -24 19 c-27 22 -99 26 -107 6z"/>
<path d="M6343 4470 c-12 -5 -25 -21 -29 -35 -9 -35 1 -124 15 -138 16 -16
133 -21 174 -8 31 10 36 18 42 52 11 63 -3 119 -32 130 -30 11 -140 11 -170
-1z"/>
<path d="M7443 4470 c-15 -6 -24 -21 -29 -45 -8 -44 0 -113 16 -129 6 -6 48
-11 101 -11 109 0 119 8 119 97 0 83 -18 98 -112 97 -40 0 -83 -4 -95 -9z"/>
<path d="M2546 4395 c-4 -25 -4 -65 -1 -90 l7 -44 120 -3 120 -3 -1 -401 -2
-401 23 -7 c30 -7 156 -8 186 0 l22 6 0 404 0 404 99 0 c90 0 103 2 127 23 23
20 27 31 26 80 0 31 -3 61 -7 67 -4 6 -126 10 -359 10 l-354 0 -6 -45z"/>
<path d="M6863 4366 c-26 -22 -28 -32 -33 -108 l-5 -83 -57 -3 -58 -3 0 -74 0
-75 60 0 60 0 0 -219 c0 -232 5 -267 47 -312 37 -41 95 -52 213 -44 80 6 103
11 108 24 8 21 8 79 -1 114 -7 26 -10 27 -66 27 -91 0 -91 1 -91 223 l0 187
90 0 90 0 0 75 0 75 -90 0 -90 0 0 110 0 110 -74 0 c-65 0 -79 -3 -103 -24z"/>
<path d="M5781 4189 c-72 -12 -135 -50 -169 -101 -21 -33 -27 -55 -30 -113 -7
-126 36 -178 206 -246 122 -49 145 -76 102 -119 -32 -32 -117 -30 -206 6 -33
13 -65 24 -71 24 -12 0 -46 -68 -57 -113 -6 -26 -3 -29 46 -51 82 -36 156 -49
256 -44 165 8 261 82 270 208 9 120 -54 204 -191 256 -118 44 -137 54 -144 82
-5 19 0 30 18 45 28 23 82 19 175 -13 31 -11 63 -20 70 -20 17 0 50 63 59 112
l7 36 -64 21 c-55 18 -185 42 -213 40 -5 -1 -35 -5 -64 -10z"/>
<path d="M8128 4190 c-214 -36 -319 -280 -236 -549 27 -87 108 -171 188 -195
181 -54 358 22 421 180 20 51 23 76 24 189 0 122 -2 134 -28 190 -32 68 -85
128 -138 155 -32 17 -146 42 -174 39 -5 -1 -31 -5 -57 -9z m122 -170 c35 -19
55 -96 55 -210 -1 -118 -14 -170 -52 -200 -31 -24 -80 -26 -111 -5 -37 26 -55
112 -50 234 5 110 20 160 55 180 23 13 79 14 103 1z"/>
<path d="M1067 4179 c-91 -14 -164 -83 -209 -198 -29 -73 -32 -255 -5 -342 24
-81 73 -149 127 -176 58 -30 159 -40 242 -23 70 13 167 55 174 75 6 14 -19 70
-34 79 -5 3 -40 -6 -78 -19 -174 -61 -280 -13 -300 138 l-7 47 216 0 216 0 7
36 c10 52 -1 174 -20 218 -52 125 -179 189 -329 165z m127 -113 c44 -18 76
-73 83 -141 l6 -55 -153 0 -153 0 7 46 c17 126 109 192 210 150z"/>
<path d="M4106 4175 c-37 -8 -91 -22 -118 -31 -50 -16 -50 -16 -43 -52 10 -54
36 -112 49 -112 7 0 48 9 91 20 154 39 225 16 225 -74 0 -23 -3 -24 -104 -28
-88 -4 -113 -9 -161 -32 -69 -34 -110 -87 -125 -161 -32 -153 63 -275 212
-275 69 0 113 13 170 49 42 27 48 28 60 14 18 -22 87 -53 119 -53 20 0 33 10
53 40 29 45 32 66 11 94 -12 16 -15 56 -15 190 0 207 -10 277 -47 330 -45 63
-109 91 -218 93 -49 1 -121 -4 -159 -12z m202 -477 c-3 -58 -5 -64 -37 -85
-70 -47 -146 -20 -144 51 2 72 32 94 126 95 l58 1 -3 -62z"/>
<path d="M5095 4172 c-27 -10 -68 -30 -90 -45 -37 -25 -40 -26 -46 -8 -16 41
-58 61 -130 61 l-69 0 0 -364 0 -364 23 -6 c29 -7 145 -8 174 0 23 6 23 7 25
252 l3 246 34 23 c21 14 49 23 72 23 65 0 69 -13 69 -251 0 -226 6 -261 51
-284 35 -19 110 -19 153 -1 43 18 50 30 34 58 -9 16 -15 95 -19 263 -7 266
-13 298 -69 356 -55 58 -127 72 -215 41z"/>
<path d="M9085 4181 c-34 -9 -88 -35 -126 -62 -26 -18 -26 -18 -37 6 -20 42
-53 56 -128 53 l-69 -3 -3 -361 -2 -362 22 -6 c33 -8 171 -7 185 2 9 6 13 72
15 252 l3 244 40 23 c41 23 90 29 113 14 24 -15 32 -83 32 -283 0 -192 1 -198
23 -224 33 -38 114 -45 180 -16 l47 21 -15 35 c-11 27 -15 80 -15 218 -1 285
-23 377 -103 426 -37 23 -117 35 -162 23z"/>
<path d="M2081 4169 c-25 -5 -73 -18 -108 -30 -55 -18 -63 -24 -63 -45 0 -39
29 -87 48 -80 204 67 297 64 330 -10 7 -14 12 -47 12 -74 l0 -50 -114 0 c-120
0 -172 -12 -224 -50 -46 -34 -74 -94 -79 -169 -4 -58 -2 -72 24 -121 65 -123
220 -145 358 -50 l45 31 33 -35 c41 -44 81 -55 107 -31 30 27 32 47 10 90 -18
35 -20 59 -20 240 0 239 -9 284 -69 338 -22 20 -57 40 -78 46 -44 13 -149 13
-212 0z m187 -389 l32 0 0 -74 c0 -71 -1 -75 -31 -100 -50 -42 -89 -58 -142
-59 -42 -1 -53 3 -73 27 -85 98 5 228 146 211 19 -3 50 -5 68 -5z"/>
<path d="M3325 4137 c-31 -53 -31 -60 -2 -98 21 -30 22 -38 25 -309 3 -320 -8
-290 112 -290 120 0 110 -22 110 239 0 249 2 256 62 287 20 10 49 15 86 12
l56 -3 19 49 c10 27 19 72 20 100 l2 51 -69 3 c-86 4 -115 -8 -168 -67 -23
-26 -43 -41 -45 -34 -17 49 -98 103 -152 103 -25 0 -35 -8 -56 -43z"/>
<path d="M6278 4173 c-20 -5 -32 -66 -23 -117 6 -29 12 -36 31 -36 13 0 33 -9
44 -20 19 -19 20 -33 20 -284 l0 -264 23 -6 c29 -8 145 -7 175 0 l23 7 -3 311
c-3 290 -4 313 -23 345 -31 53 -76 71 -170 70 -44 -1 -88 -3 -97 -6z"/>
<path d="M7382 4173 c-22 -4 -23 -8 -20 -76 3 -68 4 -71 31 -78 58 -16 57 -9
57 -299 l0 -268 23 -6 c29 -8 161 -8 181 0 14 5 16 42 16 313 0 272 -2 310
-18 340 -30 61 -62 76 -160 78 -48 0 -97 -1 -110 -4z"/>
<path d="M180 1440 l0 -1220 4625 0 4625 0 0 1220 0 1220 -4625 0 -4625 0 0
-1220z m7700 -155 l0 -105 40 26 c57 38 125 43 184 15 37 -18 50 -33 73 -79
26 -53 28 -65 28 -182 0 -97 -4 -136 -18 -172 -37 -96 -130 -139 -222 -104
-24 10 -49 24 -55 32 -18 21 -30 17 -30 -11 0 -26 0 -26 -82 -23 l-83 3 -3
340 c-1 187 0 346 3 352 3 9 29 13 85 13 l80 0 0 -105z m595 -250 l0 -350 -85
0 -85 0 -3 340 c-1 187 0 346 3 353 3 9 27 12 87 10 l83 -3 0 -350z m-6263 -2
l3 -298 138 0 137 0 0 -28 0 -27 -167 2 -168 3 -3 323 -2 322 30 0 30 0 2
-297z m1147 267 c56 -32 81 -78 81 -150 0 -66 -24 -111 -75 -141 -19 -12 -35
-24 -35 -27 0 -3 32 -65 70 -138 39 -74 70 -141 70 -149 0 -13 -10 -15 -47
-13 l-47 3 -65 143 -65 142 -68 0 -67 0 -3 -142 -3 -143 -34 -3 c-20 -2 -37 2
-42 10 -10 15 -12 598 -3 623 6 15 23 17 148 13 128 -3 145 -6 185 -28z m2486
19 c107 -20 174 -71 217 -164 18 -40 22 -68 22 -145 1 -88 -2 -101 -32 -162
-36 -73 -76 -110 -156 -141 -41 -16 -83 -21 -218 -25 l-168 -5 0 327 0 326
138 0 c76 0 165 -5 197 -11z m1661 -106 c28 -14 47 -35 67 -73 l27 -53 -2
-201 -3 -201 -76 -3 -77 -3 -6 36 -7 36 -34 -30 c-88 -77 -212 -60 -251 35
-22 53 -18 131 10 178 36 62 92 89 193 94 l83 5 0 28 c0 37 -24 59 -66 59 -29
0 -38 -6 -55 -34 l-19 -33 -67 18 c-37 10 -70 22 -75 27 -22 22 68 111 132
131 55 16 181 8 226 -16z m1398 15 c56 -17 128 -90 145 -148 7 -25 16 -73 19
-107 l5 -63 -172 0 c-94 0 -171 -3 -171 -7 0 -29 24 -84 40 -93 36 -20 80 -12
110 20 l27 29 67 -21 c37 -13 66 -28 66 -35 0 -8 -19 -34 -41 -58 -96 -104
-287 -98 -378 12 -82 99 -82 298 1 397 61 75 177 105 282 74z m-5058 -25 c52
-27 92 -93 106 -176 17 -102 25 -97 -173 -97 l-172 0 6 -45 c13 -90 65 -145
137 -145 43 0 96 31 112 65 13 28 16 29 52 15 37 -14 32 -34 -18 -84 -100
-100 -274 -78 -336 43 -45 88 -47 245 -5 334 49 104 183 146 291 90z m1432 13
c78 -28 128 -113 134 -226 l3 -55 -172 -3 -173 -2 1 -28 c1 -50 33 -115 68
-139 59 -40 140 -22 175 38 15 26 22 30 45 24 39 -10 44 -20 27 -53 -38 -73
-143 -115 -232 -93 -68 17 -112 54 -143 120 -22 48 -26 69 -26 151 1 107 23
176 75 225 52 50 146 68 218 41z m1072 -176 c0 -178 1 -191 21 -211 21 -21 44
-19 87 9 22 14 22 18 22 203 l0 189 85 0 85 0 0 -275 0 -276 -82 3 c-82 3 -83
3 -86 30 l-3 26 -50 -30 c-92 -58 -194 -44 -231 32 -16 30 -18 66 -18 263 l0
227 85 0 85 0 0 -190z m590 151 l5 -33 20 22 c29 32 69 50 110 50 l35 0 0 -74
0 -74 -49 0 c-34 0 -61 -7 -85 -22 l-36 -21 -2 -177 -3 -177 -82 -3 -83 -3 0
276 0 276 83 -3 82 -3 5 -34z m-4112 9 c63 -38 72 -77 72 -313 l0 -208 -22 3
c-16 2 -24 11 -26 28 -6 52 -11 54 -52 17 -73 -66 -164 -71 -229 -12 -33 30
-35 38 -39 101 -3 60 -1 74 20 103 36 54 88 75 195 79 l93 4 0 45 c0 50 -21
97 -49 113 -26 13 -94 13 -125 -1 -13 -6 -32 -27 -42 -45 -19 -34 -37 -41 -64
-24 -12 7 -10 16 15 52 17 24 46 51 65 60 50 25 145 24 188 -2z m1275 -62 c14
-46 45 -147 69 -226 32 -105 45 -136 49 -120 4 13 35 114 70 226 l63 202 38 0
c24 0 38 -5 38 -12 0 -7 -37 -128 -83 -268 l-83 -255 -50 -3 -50 -3 -87 264
c-48 145 -87 267 -87 270 0 4 20 7 44 7 l44 0 25 -82z m477 -127 c0 -196 1
-210 21 -235 35 -45 106 -32 172 32 l37 36 0 188 0 188 40 0 40 0 -2 -267 -3
-268 -35 0 c-33 0 -35 2 -38 38 -2 20 -6 37 -9 37 -3 0 -20 -13 -38 -29 -77
-67 -167 -76 -228 -21 l-32 28 -3 241 -3 241 40 0 41 0 0 -209z"/>
<path d="M7906 1089 c-25 -20 -26 -23 -26 -134 0 -111 1 -114 26 -134 57 -45
108 -16 126 69 31 154 -40 267 -126 199z"/>
<path d="M3115 1248 c-3 -8 -4 -57 -3 -109 l3 -94 65 -3 c92 -4 140 14 163 60
23 47 10 107 -30 133 -36 24 -190 34 -198 13z"/>
<path d="M5680 1004 l0 -186 65 4 c113 7 150 53 150 185 0 67 -4 87 -21 110
-37 50 -81 73 -140 73 l-54 0 0 -186z"/>
<path d="M7332 920 c-32 -14 -48 -53 -34 -85 14 -31 59 -34 103 -8 26 16 30
23 27 58 -3 38 -5 40 -38 42 -19 1 -45 -2 -58 -7z"/>
<path d="M8761 1099 c-23 -25 -33 -69 -16 -75 6 -3 43 -4 81 -2 l69 3 -2 29
c-3 42 -30 66 -74 66 -26 0 -45 -7 -58 -21z"/>
<path d="M3695 1151 c-29 -12 -55 -44 -71 -88 -26 -75 -29 -73 116 -73 l130 0
0 28 c-1 44 -36 109 -69 126 -32 17 -74 20 -106 7z"/>
<path d="M5136 1139 c-32 -25 -52 -62 -61 -112 l-7 -37 132 0 132 0 -7 38
c-10 58 -35 102 -66 117 -40 21 -92 19 -123 -6z"/>
<path d="M2697 950 c-80 -15 -126 -82 -106 -154 12 -44 42 -66 92 -66 47 0 71
12 120 58 36 35 37 39 37 104 l0 68 -52 -1 c-29 -1 -70 -5 -91 -9z"/>
</g>
</svg>
