<?xml version="1.0" standalone="no"?>
<!DOCTYPE svg PUBLIC "-//W3C//DTD SVG 20010904//EN"
 "http://www.w3.org/TR/2001/REC-SVG-20010904/DTD/svg10.dtd">
<svg version="1.0" xmlns="http://www.w3.org/2000/svg"
 width="700.000000pt" height="700.000000pt" viewBox="0 0 700.000000 700.000000"
 preserveAspectRatio="xMidYMid meet">
<metadata>
Created by potrace 1.11, written by Peter Selinger 2001-2013
</metadata>
<g transform="translate(0.000000,700.000000) scale(0.100000,-0.100000)"
fill="#000000" stroke="none">
<path d="M5076 6676 c-83 -31 -143 -123 -133 -208 6 -53 19 -87 46 -115 21
-22 105 -83 114 -83 3 0 40 -20 81 -45 42 -25 80 -45 84 -45 11 0 75 244 78
294 8 142 -137 250 -270 202z"/>
<path d="M2999 6076 c-156 -60 -331 -282 -515 -654 -43 -86 -84 -161 -91 -165
-7 -4 -13 -18 -13 -29 0 -12 -30 -78 -67 -147 -79 -150 -200 -387 -205 -403
-2 -6 -30 -12 -64 -14 l-61 -2 20 70 c10 38 16 72 13 75 -12 13 -35 -8 -41
-39 -4 -18 -14 -49 -21 -68 l-14 -35 -86 0 c-64 0 -87 -4 -94 -15 -8 -13 -16
-215 -10 -245 1 -5 -2 -7 -5 -3 -4 4 -30 -4 -58 -18 -60 -31 -132 -40 -181
-24 -45 15 -92 68 -107 122 -17 64 -5 226 26 338 14 52 27 102 29 111 9 36 72
179 114 259 70 133 138 228 226 316 133 132 226 168 316 122 79 -41 112 -149
78 -260 -8 -28 -8 -42 -1 -49 27 -27 74 132 69 233 -8 166 -140 248 -308 193
-406 -133 -839 -1035 -653 -1361 24 -41 78 -85 125 -102 83 -29 242 4 313 66
16 14 17 -2 17 -321 0 -322 1 -337 19 -347 12 -6 93 -10 193 -10 l173 0 -2
-42 c-2 -61 35 -151 84 -207 108 -123 276 -148 472 -70 230 93 534 384 736
705 42 68 55 82 56 63 0 -13 2 -31 3 -39 2 -8 6 -53 10 -100 4 -47 9 -101 11
-120 2 -19 6 -64 9 -100 6 -71 20 -90 67 -90 43 0 52 21 45 99 -4 37 -9 78
-11 90 -2 12 -7 58 -10 102 -3 43 -8 87 -9 96 -2 10 -7 63 -10 118 -4 55 -10
108 -12 118 -3 10 15 69 40 132 46 114 85 248 86 295 0 14 4 30 8 36 4 6 71
59 150 118 78 59 142 111 142 117 0 26 -47 0 -163 -91 -126 -99 -127 -99 -133
-72 -4 15 -13 37 -21 50 -12 20 -12 25 2 44 24 35 19 100 -10 132 -62 67 -124
57 -260 -44 -52 -39 -68 -60 -44 -60 6 0 44 23 85 52 58 40 82 52 110 51 45
-1 58 -14 58 -58 0 -44 -28 -82 -84 -115 -43 -25 -54 -47 -22 -43 9 1 32 5 51
9 42 8 61 -12 61 -68 0 -34 -5 -41 -42 -65 -25 -15 -58 -27 -78 -27 -26 -1
-37 -7 -44 -22 -12 -26 -9 -24 -171 -109 -334 -175 -436 -227 -438 -224 -10
17 -147 301 -147 305 0 3 8 18 19 32 25 35 81 140 81 151 0 5 -8 11 -18 14
-15 3 -27 -11 -59 -72 -35 -67 -43 -76 -65 -73 -33 4 -46 -14 -51 -69 -5 -57
-17 -78 -63 -118 -27 -24 -39 -29 -49 -21 -19 16 -11 46 44 162 81 174 91 215
83 334 -1 12 -13 33 -27 48 -43 46 -107 30 -192 -49 -15 -13 -28 -23 -30 -21
-2 2 56 157 90 238 9 23 18 27 76 33 135 13 299 73 391 143 101 77 227 251
246 339 1 6 8 29 15 50 7 21 13 76 13 123 -1 96 -22 153 -70 185 -36 23 -100
28 -145 11z m133 -93 c58 -52 46 -198 -27 -342 -86 -171 -242 -288 -455 -342
-72 -18 -140 -25 -140 -14 0 14 93 200 145 290 125 217 264 378 358 413 56 21
92 20 119 -5z m-609 -1026 c-1 -15 -19 -62 -39 -105 -21 -42 -47 -102 -60
-132 l-22 -55 -78 0 c-44 0 -79 4 -81 10 -3 10 72 133 114 187 50 65 125 129
146 126 17 -2 22 -9 20 -31z m1087 -294 c-21 -69 -43 -123 -51 -129 -5 -3 -9
12 -10 33 0 21 -2 47 -4 58 -3 14 6 27 28 43 41 29 47 28 37 -5z m-193 -90
c-3 -5 -24 -48 -47 -98 -24 -49 -96 -200 -161 -334 -66 -134 -119 -248 -119
-252 0 -21 -19 -6 -36 29 -9 20 -53 111 -96 200 -43 90 -78 167 -78 171 0 8
24 22 205 116 164 86 241 127 285 153 37 22 54 27 47 15z m-1550 -35 c-3 -8
-6 -5 -6 6 -1 11 2 17 5 13 3 -3 4 -12 1 -19z m181 5 c-11 -14 -5 -61 12 -92
21 -41 99 -50 101 -12 2 19 2 24 13 74 5 24 14 37 25 38 76 4 174 3 180 -1 5
-3 11 -22 14 -44 7 -43 30 -74 65 -87 28 -11 73 7 121 46 28 24 33 26 28 9 -3
-10 -9 -57 -13 -104 -4 -47 -8 -92 -10 -100 -1 -8 -3 -36 -3 -61 -1 -42 -4
-47 -41 -68 -124 -69 -306 -232 -357 -318 l-25 -43 -149 0 -149 0 -1 68 c0 37
-1 84 -1 105 0 21 2 41 6 44 3 3 108 6 233 7 l228 1 12 27 c17 34 3 74 -29 79
-13 2 -119 4 -235 3 -200 0 -213 1 -213 18 -1 10 -1 87 -1 172 -1 154 -1 155
27 193 41 56 45 58 112 58 45 0 58 -3 50 -12z m687 -205 c14 -28 25 -57 25
-63 0 -6 -16 -19 -35 -28 l-35 -17 4 26 c3 14 6 50 7 80 1 30 4 54 6 54 1 0
14 -23 28 -52z m725 20 c0 -23 -18 -61 -56 -121 -31 -48 -58 -86 -61 -84 -4 4
108 237 114 237 2 0 3 -15 3 -32z m-559 -366 l116 -247 -69 -65 c-201 -187
-391 -282 -553 -276 -136 4 -220 82 -232 213 l-5 53 140 0 c152 0 172 6 172
55 0 47 -21 55 -151 55 -65 0 -119 3 -119 6 0 17 80 111 143 169 68 63 265
205 240 174 -6 -7 -14 -48 -18 -89 -3 -41 -8 -91 -10 -110 -2 -19 -7 -68 -10
-108 -4 -41 -8 -82 -10 -92 -2 -11 4 -29 14 -41 14 -18 24 -21 54 -15 21 4 38
14 41 24 6 20 15 101 31 304 4 43 8 86 10 95 2 10 4 36 4 58 1 35 5 42 39 61
20 12 42 22 47 23 6 0 62 -111 126 -247z"/>
<path d="M5594 5946 c-57 -18 -102 -54 -132 -106 -24 -39 -27 -56 -27 -130 0
-47 4 -112 8 -145 4 -33 10 -82 13 -110 3 -27 7 -52 9 -53 8 -8 294 106 335
133 63 43 95 109 94 196 -1 70 -13 98 -68 157 -55 59 -152 83 -232 58z"/>
<path d="M4744 5929 c-153 -65 -197 -260 -89 -387 63 -73 100 -84 310 -89 102
-3 185 -2 185 1 0 14 -71 306 -83 339 -7 21 -32 58 -57 83 -70 71 -176 92
-266 53z"/>
<path d="M5935 5322 c-11 -5 -51 -23 -90 -41 -38 -18 -80 -37 -92 -42 -13 -5
-23 -13 -23 -19 0 -6 35 -53 77 -105 94 -116 131 -135 217 -116 81 18 128 77
128 161 0 90 -64 161 -150 166 -26 2 -56 0 -67 -4z"/>
<path d="M5220 5189 c-153 -138 -180 -179 -166 -252 20 -106 144 -172 236
-126 65 32 100 86 100 156 0 37 -101 263 -117 263 -4 0 -28 -19 -53 -41z"/>
<path d="M3135 5070 c-88 -20 -179 -108 -240 -235 -58 -119 -71 -265 -29 -323
47 -63 154 -81 241 -40 77 36 256 238 238 268 -13 21 -35 8 -67 -37 -120 -176
-254 -235 -306 -136 -11 20 -8 25 30 52 24 16 55 41 69 54 128 122 212 316
162 375 -20 24 -54 32 -98 22z m41 -84 c11 -29 -35 -148 -85 -216 -28 -39
-122 -130 -134 -130 -4 0 -5 17 -1 38 4 20 8 46 10 57 7 38 73 160 110 203 47
56 89 76 100 48z"/>
<path d="M3788 4678 c-16 -13 -21 -42 -33 -193 -3 -38 -7 -86 -10 -105 -2 -19
-7 -66 -10 -105 -4 -38 -8 -88 -10 -110 -10 -117 -17 -194 -32 -350 -9 -99 -7
-126 9 -137 20 -12 74 -9 86 5 5 6 15 73 21 147 7 74 14 153 16 175 3 22 7 67
9 100 3 33 8 94 12 135 4 41 8 89 9 105 1 17 3 32 4 35 2 5 87 -166 171 -345
154 -326 180 -375 197 -375 10 0 23 4 29 8 5 4 46 81 89 172 43 91 110 230
148 310 38 80 78 165 88 189 11 24 21 42 23 40 5 -5 19 -146 31 -294 5 -75 12
-154 21 -250 14 -157 17 -165 69 -165 50 0 58 17 50 112 -3 46 -8 99 -10 118
-2 19 -6 62 -9 95 -3 33 -10 110 -16 170 -6 61 -12 137 -15 170 -3 33 -8 71
-10 85 -2 14 -7 64 -10 111 -9 120 -15 143 -41 153 -31 12 -51 -15 -134 -188
-48 -100 -120 -248 -160 -331 -40 -82 -88 -184 -107 -225 l-35 -75 -58 120
c-31 66 -90 188 -130 270 -40 83 -99 206 -132 275 -56 117 -82 160 -98 160 -3
0 -13 -6 -22 -12z"/>
<path d="M4838 4648 c-21 -21 -22 -19 45 -128 22 -36 48 -78 57 -95 10 -16 60
-100 112 -185 l94 -155 -2 -185 c-1 -202 5 -230 51 -230 51 0 55 15 55 229 0
164 3 201 15 211 8 7 15 16 15 21 0 4 58 105 130 223 156 259 168 282 152 298
-19 19 -84 13 -102 -10 -8 -10 -69 -112 -135 -225 -66 -113 -122 -206 -125
-206 -3 -1 -63 98 -135 219 -81 138 -137 223 -150 227 -37 12 -58 10 -77 -9z"/>
<path d="M777 3993 c-36 -110 -78 -302 -93 -418 -3 -27 -8 -61 -10 -75 -17
-127 -22 -400 -10 -560 93 -1230 991 -2274 2196 -2554 58 -13 121 -27 140 -30
56 -8 172 -25 215 -32 68 -10 456 -12 535 -3 41 4 96 10 122 13 147 16 380 69
551 127 813 273 1471 914 1763 1718 46 124 104 321 95 321 -4 0 -13 -21 -20
-48 -74 -258 -225 -578 -379 -802 -308 -447 -736 -800 -1222 -1008 -187 -81
-463 -165 -609 -187 -20 -3 -46 -7 -56 -9 -11 -2 -45 -7 -75 -11 -30 -4 -68
-10 -85 -12 -64 -9 -494 -11 -560 -3 -38 5 -92 11 -120 14 -91 11 -218 36
-335 67 -498 132 -932 381 -1294 744 -316 316 -541 678 -688 1105 -51 150
-108 393 -123 535 -3 28 -10 84 -15 125 -9 73 -6 495 3 535 3 11 8 47 11 80 9
80 24 172 40 240 20 91 27 116 36 140 6 15 9 30 6 32 -2 2 -11 -17 -19 -44z"/>
<path d="M2812 2972 c-30 -5 -47 -38 -34 -67 13 -29 45 -37 71 -18 42 29 14
93 -37 85z"/>
<path d="M4674 2970 c-27 -11 -36 -34 -24 -64 11 -30 42 -38 70 -19 43 30 3
102 -46 83z"/>
<path d="M2295 2942 c-3 -7 -5 -153 -5 -324 0 -289 1 -309 18 -306 14 3 17 14
17 69 l-1 67 106 4 c118 5 167 23 214 79 43 51 57 87 63 160 5 61 3 74 -23
125 -54 106 -108 134 -270 138 -90 2 -114 0 -119 -12z m260 -45 c133 -69 167
-246 67 -350 -39 -41 -86 -57 -177 -60 -127 -5 -115 -27 -115 218 l0 213 98
-3 c64 -1 108 -8 127 -18z"/>
<path d="M3185 2945 c-151 -45 -245 -168 -246 -319 -1 -177 129 -320 303 -330
70 -4 127 10 193 48 39 23 44 30 35 46 -10 19 -12 19 -49 -6 -196 -129 -458
13 -454 246 4 222 234 355 431 250 33 -18 65 -29 71 -26 20 13 -2 36 -63 66
-70 34 -158 45 -221 25z"/>
<path d="M4127 2952 c-16 -3 -17 -29 -17 -323 0 -266 2 -319 14 -319 19 0 22
14 21 98 l-1 72 105 0 c58 1 122 3 141 6 l35 5 39 -85 c42 -93 62 -119 72 -93
3 9 -13 55 -35 103 l-41 88 34 35 c56 59 75 108 73 187 -2 51 -9 80 -26 111
-28 48 -91 97 -141 108 -35 8 -240 13 -273 7z m308 -63 c132 -68 130 -283 -3
-349 -39 -19 -68 -24 -164 -28 -110 -4 -118 -3 -119 14 -1 25 -1 321 0 360 l1
31 119 -2 c105 -1 125 -5 166 -26z"/>
<path d="M1759 2943 c-1 -4 -3 -147 -4 -316 -2 -274 0 -309 14 -315 19 -10
427 -9 437 0 22 23 -20 28 -212 28 l-204 0 0 100 0 100 164 0 c151 0 193 6
173 27 -3 3 -80 5 -171 6 l-166 1 0 168 c0 127 3 168 13 169 6 0 98 2 202 2
162 2 190 4 190 17 0 13 -32 15 -217 18 -120 2 -219 -1 -219 -5z"/>
<path d="M3583 2943 c-10 -4 -13 -77 -13 -319 0 -292 1 -314 18 -315 100 -6
420 -3 429 4 30 22 -10 27 -203 27 l-204 0 0 100 0 100 164 0 c152 0 195 7
165 26 -7 4 -83 7 -171 7 l-158 0 0 171 0 171 202 0 c174 0 203 2 203 15 0 13
-31 15 -210 17 -115 0 -216 -1 -222 -4z"/>
<path d="M4835 2940 c-6 -10 -7 -618 -1 -629 3 -5 380 -7 434 -2 6 0 12 8 12
16 0 13 -30 15 -208 15 l-207 0 0 98 1 97 167 3 c139 2 167 5 167 17 0 17 7
16 -195 18 l-140 2 0 167 c0 142 2 168 15 169 8 1 96 2 195 3 172 1 224 8 194
26 -18 12 -427 11 -434 0z"/>
<path d="M2810 2820 c-2 -18 -2 -127 0 -345 l2 -160 20 90 c12 58 20 135 21
215 2 110 -1 130 -20 170 -12 25 -22 38 -23 30z"/>
<path d="M4690 2816 c-44 -54 -47 -258 -6 -426 l14 -55 2 45 c2 58 6 450 4
450 -1 0 -7 -6 -14 -14z"/>
<path d="M6302 2610 c0 -14 2 -19 5 -12 2 6 2 18 0 25 -3 6 -5 1 -5 -13z"/>
<path d="M6291 2564 c0 -11 3 -14 6 -6 3 7 2 16 -1 19 -3 4 -6 -2 -5 -13z"/>
<path d="M6281 2524 c0 -11 3 -14 6 -6 3 7 2 16 -1 19 -3 4 -6 -2 -5 -13z"/>
<path d="M3027 2057 c-8 -22 17 -51 37 -44 25 10 17 51 -10 55 -12 2 -24 -3
-27 -11z"/>
<path d="M3517 2063 c-13 -12 -7 -41 9 -47 19 -7 44 10 44 29 0 19 -39 32 -53
18z"/>
<path d="M4517 2050 c-6 -23 16 -45 38 -36 8 3 15 17 15 31 0 20 -5 25 -24 25
-15 0 -26 -7 -29 -20z"/>
<path d="M1759 2036 c-4 -83 -1 -378 4 -382 13 -14 23 8 22 46 -1 22 3 40 9
41 6 1 37 3 69 4 72 5 120 34 142 88 21 52 19 85 -7 137 -31 61 -70 81 -163
84 -70 3 -75 1 -76 -18z m156 -22 c65 -27 95 -105 65 -173 -23 -50 -65 -73
-142 -75 l-58 -2 0 132 0 132 50 0 c28 1 66 -6 85 -14z"/>
<path d="M2096 1903 c-37 -87 -74 -175 -83 -196 -12 -26 -13 -41 -6 -48 8 -8
14 0 23 25 l12 36 125 0 125 0 11 -30 c6 -16 17 -30 24 -30 13 0 -4 50 -82
235 -26 61 -51 122 -57 138 -5 15 -14 27 -18 27 -4 0 -38 -71 -74 -157z m133
-37 c28 -69 51 -126 51 -128 0 -5 -211 0 -216 5 -7 7 98 257 107 252 4 -3 30
-61 58 -129z"/>
<path d="M2389 2046 c-6 -53 -2 -389 4 -393 15 -9 20 6 18 55 l-1 48 75 1 c41
1 79 5 85 8 5 3 23 -21 40 -55 17 -33 35 -60 40 -60 16 0 12 15 -17 76 -26 51
-27 56 -10 65 46 26 65 116 37 174 -32 65 -78 88 -182 90 -58 1 -88 -2 -89 -9z
m186 -30 c39 -17 65 -60 65 -110 0 -83 -50 -122 -162 -125 -60 -2 -68 0 -69
16 -1 23 -1 204 0 221 1 17 122 16 166 -2z"/>
<path d="M2697 2048 c-20 -12 -3 -18 61 -19 38 -1 62 -6 63 -13 0 -6 2 -89 2
-185 2 -129 5 -175 15 -178 9 -4 12 38 12 186 l0 191 65 0 c47 0 63 3 60 13
-6 13 -256 19 -278 5z"/>
<path d="M3271 2050 c-44 -11 -79 -38 -116 -89 -26 -36 -30 -52 -30 -104 0
-77 25 -128 83 -170 58 -42 138 -49 205 -17 26 12 47 25 47 29 0 19 -16 19
-44 2 -82 -51 -214 -14 -248 69 -32 77 -14 166 42 214 58 48 130 55 208 19 54
-26 57 4 3 32 -36 18 -107 26 -150 15z"/>
<path d="M3624 2046 c-9 -24 1 -391 11 -391 6 0 12 20 15 44 l5 45 62 2 c132
4 199 98 151 214 -27 66 -67 89 -162 94 -54 3 -79 1 -82 -8z m162 -35 c45 -20
74 -68 74 -120 0 -76 -55 -122 -151 -126 l-59 -2 0 133 0 134 48 0 c26 0 65
-9 88 -19z"/>
<path d="M4033 2048 c-5 -7 -18 -33 -27 -58 -10 -25 -24 -58 -31 -75 -60 -134
-104 -250 -96 -258 6 -6 16 4 25 27 l15 36 125 0 124 0 11 -30 c10 -30 31 -41
31 -16 0 16 -146 366 -158 378 -5 5 -13 3 -19 -4z m75 -185 c31 -76 46 -123
39 -124 -56 -3 -199 0 -204 4 -3 4 13 50 35 104 23 54 46 111 52 127 6 17 14
25 19 20 5 -5 32 -64 59 -131z"/>
<path d="M4193 2047 c-9 -15 5 -19 64 -21 l58 -1 2 -180 c1 -214 0 -198 15
-193 9 3 13 52 13 189 l0 184 63 3 c34 2 62 7 62 12 0 13 -1 13 -148 14 -68 1
-126 -3 -129 -7z"/>
<path d="M4618 2055 c-9 -10 153 -406 165 -402 10 3 166 380 167 402 0 22 -21
-15 -50 -90 -17 -44 -38 -93 -45 -110 -7 -16 -24 -58 -37 -92 -13 -35 -26 -63
-29 -63 -3 0 -38 80 -76 177 -65 165 -80 192 -95 178z"/>
<path d="M4999 2033 c-2 -95 1 -365 5 -372 7 -11 272 -8 266 4 -3 6 -53 10
-116 11 -61 0 -118 3 -126 6 -10 4 -14 22 -14 59 l1 54 92 1 c50 1 99 4 109 8
35 13 -4 22 -100 21 -110 -1 -102 -9 -101 115 l0 85 128 3 c104 2 127 5 127
17 0 13 -23 15 -135 15 l-135 0 -1 -27z"/>
<path d="M3045 1826 c0 -85 3 -152 6 -150 18 11 31 194 19 251 -18 77 -25 46
-25 -101z"/>
<path d="M3528 1953 c-15 -38 -12 -176 5 -243 15 -54 15 -53 16 108 1 89 -1
162 -4 162 -3 0 -11 -12 -17 -27z"/>
<path d="M4535 1953 c-18 -46 -7 -254 15 -276 3 -3 5 62 5 144 0 142 -4 170
-20 132z"/>
</g>
</svg>
