<svg id="Capa_1" data-name="Capa 1" xmlns="http://www.w3.org/2000/svg" viewBox="0 0 512.03 512.03"><defs><style>.cls-1{fill:#d83d3d;}.cls-2{fill:#f9b938;}.cls-3{fill:#ffc107;}.cls-4{fill:#455a64;}</style></defs><path class="cls-1" d="M266.68,256a32,32,0,0,1,0-64H384V53.34A53.33,53.33,0,0,0,330.68,0h-256A10.66,10.66,0,0,0,64,10.67V437.34A10.67,10.67,0,0,0,74.68,448h256A53.34,53.34,0,0,0,384,394.67V256Z"/><path class="cls-2" d="M206.76,55.66,85.58,3.74A46.09,46.09,0,0,0,21.35,46.06V414a46,46,0,0,0,27.93,42.35l121.17,51.94A46.06,46.06,0,0,0,234.68,466V98A46,46,0,0,0,206.76,55.66Z"/><path d="M181.35,298.67A10.67,10.67,0,0,1,170.68,288V245.34a10.67,10.67,0,0,1,21.34,0V288A10.67,10.67,0,0,1,181.35,298.67Z"/><path class="cls-3" d="M489.87,228.08a10.68,10.68,0,0,0-2.32-11.63l-64-64a10.67,10.67,0,0,0-15.09,15.09l45.81,45.8H266.68a10.67,10.67,0,0,0,0,21.33H454.27l-45.78,45.78a10.67,10.67,0,0,0,14.82,15.35l.26-.26,64-64A10.58,10.58,0,0,0,489.87,228.08Z"/><path class="cls-4" d="M181.35,298.67A10.67,10.67,0,0,1,170.68,288V245.34a10.67,10.67,0,0,1,21.34,0V288A10.67,10.67,0,0,1,181.35,298.67Z"/></svg>
