<?xml version="1.0" encoding="iso-8859-1"?>
<svg version="1.1" id="Capa_1" xmlns="http://www.w3.org/2000/svg"  x="0px" y="0px"
	 viewBox="0 0 512.001 512.001" style="enable-background:new 0 0 512.001 512.001;" xml:space="preserve">
<path style="fill:#7F7369;" d="M331.028,246.986h-45.136c-6.833,0-12.423-5.59-12.423-12.423l-6.211-105.265
	c0,0-10.051-87.194,42.082-98.652c0,0,21.197-41.248,89.083-28.033c0.928,0.181,1.82,0.514,2.721,0.793
	c15.639,4.851,30.178,13.434,42.266,25.46c36.97,36.788,29.536,80.252,30.463,85.658c0,30.197,0.477-3.367-6.211,120.04
	c0,6.833-5.59,12.423-12.423,12.423H407.22"/>
<path style="fill:#72655A;" d="M338.876,246.986v-14.772c-27.903-12.33-45.299-38.716-46.765-67.642
	c-0.01-0.192-0.04-0.801-0.044-0.915c-0.04-1.023-0.066-2.048-0.066-3.081c0.014-46.476-0.028-43.655,0.035-44.419
	c-0.466-24.805,3.372-76.842,42.825-85.513c0,0,12.99-25.271,51.193-29.914c-29.109-3.199-63.254,5.45-76.715,29.914
	c-35.179,7.732-43.642,50.567-42.808,86.38c0.012,0.499,0.025,0.986,0.04,1.46c0.206,6.639,0.687,10.812,0.687,10.812l6.211,105.265
	c0,6.833,5.59,12.423,12.423,12.423C296.825,246.986,326.928,246.986,338.876,246.986z"/>
<path style="fill:#DD9A5E;" d="M228.256,477.26l13.354-119.329c4.68-36.032,2.761-49.875,14.388-63.983
	c-3.591-4.366-8.717-8.438-12.097-10.502l-0.372-0.092c-12.572-7.531-23.157-7.846-46.519-14.274l0,0l-23.89-11.435l0,0v-28.537
	c-20.015,8.85-43.03,8.541-62.297,0.163l0,0l-0.103,28.492l0,0l0,0l0,0l-23.788,11.318l0,0
	c-23.212,6.387-33.922,6.728-46.519,14.274l-0.372,0.092c-1.06,0.647-2.18,1.427-3.284,2.301
	c-18.001,12.923-18.286,29.711-19.837,42.117l-7.149,63.887l0,0c-10.069,91.431-9.764,84.076-9.764,91.124
	c-0.158,11.604,6.961,29.123,28.588,29.123l0,0c2.006,0,225.695,0.011,227.403-0.017C236.624,511.658,226.559,496.88,228.256,477.26
	z"/>
<g>
	<path style="fill:#D38D54;" d="M25.763,482.84c-0.174-10.081,1.934-9.972,17.727-173.575c1.651-13.534,5.754-24.591,17.56-33.741
		c-1.788,0.567-10.824,1.952-20.637,7.831l-0.372,0.092c-1.132,0.691-2.257,1.488-3.284,2.301
		c-18.001,12.923-18.286,29.711-19.837,42.117c-0.129,1.131-16.914,150.066-16.914,155.011
		c-0.158,11.604,6.961,29.123,28.588,29.123l0,0H54.35C35.8,511.999,25.437,498.045,25.763,482.84z"/>
	<path style="fill:#D38D54;" d="M136.481,282.131v-46.672c-9.275-0.623-17.956-2.84-25.659-6.188l-0.103,28.492l0,0L136.481,282.131
		z"/>
</g>
<path style="fill:#EAB883;" d="M511.794,477.26c-18.191-161.09-17.166-156.544-18.795-164.418
	c-2.643-12.781-10.348-22.864-21.044-29.396l-0.371-0.092c-4.552-2.727-9.627-4.876-15.076-6.446l-52.449-13.057
	c-1.705-0.772-2.885-3.311-2.885-6.206v-25.298c-19.768,8.621-42.807,8.484-62.297-0.132v25.431c0,2.895-1.18,5.434-2.885,6.206
	c-44.369,11.82-54.237,11.544-67.525,19.503l-0.371,0.092c-14.678,8.964-20.351,21.113-22.307,37.151L228.257,477.26
	c-1.757,20.31,9.01,34.739,28.393,34.739c30.845,0,202.098,0,226.752,0c21.627,0,28.746-17.519,28.588-29.123
	c0-0.012,0-0.024,0-0.036C512.025,480.739,511.929,478.831,511.794,477.26z"/>
<path style="fill:#D8A373;" d="M253.817,482.876c0-0.012,0-0.024,0-0.036c-0.036-2.101,0.059-4.009,0.195-5.58l17.532-165.934
	c1.874-15.368,7.109-27.509,21.869-36.875c-4.333,1.312-14.211,2.473-24.946,8.903l-0.371,0.092
	c-14.678,8.964-20.352,21.114-22.307,37.151l-17.532,156.662c-1.756,20.31,9.01,34.739,28.393,34.739c15.943,0,9.811,0,25.756,0
	C260.777,511.999,253.659,494.48,253.817,482.876z"/>
<path style="fill:#D83D3D;" d="M502.222,391.732c-8.267-73.386-7.91-72.535-9.223-78.891c-2.658-12.853-10.448-22.927-21.044-29.396
	c-0.105-0.026-0.477-0.118-0.371-0.092c-4.552-2.727-9.627-4.876-15.076-6.446l-52.449-13.057c-1.705-0.772-2.885-3.311-2.885-6.206
	v-25.298l0,0v-0.132c-19.928,8.804-42.851,8.592-62.297,0v0.132l0,0v25.298c0,2.895-1.18,5.434-2.885,6.206
	c-44.369,11.82-54.237,11.543-67.525,19.503c-0.105,0.026-0.477,0.118-0.371,0.092c-14.546,8.88-20.354,21.138-22.307,37.151
	l-7.961,71.135l50.178,5.265c2.668,0.28,4.652,2.597,4.517,5.277l-5.512,109.725c61.421,0,104.935,0,166.33,0l-5.778-109.3
	c-0.154-2.915,2.002-5.441,4.906-5.746L502.222,391.732z"/>
<path style="fill:#A82626;" d="M237.827,391.732l24.945,2.617l8.772-83.024c1.873-15.365,7.107-27.508,21.869-36.875
	c-6.237,1.672-15.315,3.134-24.946,8.904c-0.105,0.026-0.477,0.118-0.371,0.092c-10.735,6.553-18.411,16.662-21.044,29.396
	C245.435,320.65,245.741,322.354,237.827,391.732z"/>
<path style="fill:#70BBEF;" d="M243.714,283.446c-0.105-0.026-0.477-0.118-0.372-0.092c-12.6-7.548-23.354-7.902-46.356-14.233
	l0.022-0.041l-23.89-11.435l-0.173,0.261c-0.001-0.032-0.003-0.063-0.005-0.094l-31.157,29.335l-31.066-29.384l-23.788,11.318l0,0
	c-23.213,6.387-33.922,6.728-46.519,14.274l-0.372,0.092c-14.679,8.963-20.351,21.117-22.307,37.151l-7.963,71.154l49.218,5.164
	c3.103,0.326,5.41,3.021,5.254,6.137l-5.47,108.946c50.568,0,112.705,0,166.33,0l-5.778-109.287
	c-0.155-2.923,2.007-5.455,4.919-5.761l13.156-1.38c9.646-80.023,6.825-87.206,18.511-101.509
	C253.345,290.923,246.51,285.153,243.714,283.446z"/>
<path style="fill:#4CAEE5;" d="M43.49,309.265c1.651-13.534,5.754-24.591,17.56-33.741c-2.339,0.664-11.132,2.137-20.637,7.831
	l-0.372,0.092c-3.483,2.127-8.669,6.299-12.193,10.614c-12.47,15.266-9.079,27.305-18.077,97.692l25.457,2.671
	C35.152,395.234,36.249,384.271,43.49,309.265z"/>
<path style="fill:#EAB883;" d="M425.063,269.08l-21.005-5.229c-1.705-0.772-2.885-3.311-2.885-6.206v-28.389l0,0v-0.132
	c-20.094,8.878-43.045,8.506-62.297,0v0.132l0,0v28.389c0,2.895-1.18,5.434-2.885,6.206l-21.321,5.308
	C340.295,312.257,399.458,312.274,425.063,269.08z"/>
<path id="SVGCleanerId_0" style="fill:#4C4846;" d="M44.139,124.499V97.645c0-79.044,89.36-124.776,153.471-80.114
	c50.288,35.111,40.71,86.743,41.816,106.968"/>
<g>
	<path id="SVGCleanerId_0_1_" style="fill:#4C4846;" d="M44.139,124.499V97.645c0-79.044,89.36-124.776,153.471-80.114
		c50.288,35.111,40.71,86.743,41.816,106.968"/>
</g>
<path style="fill:#3F3B39;" d="M151.518,0.488C94.732-5.15,44.139,39.248,44.139,97.645v26.854H63.61V97.645
	C63.61,47.445,101.727,5.435,151.518,0.488z"/>
<g>
	<path style="fill:#DD9A5E;" d="M244.286,133.231c0,11.253-10.893,20.374-24.33,20.374v-40.747
		C233.393,112.858,244.286,121.979,244.286,133.231z"/>
	<path style="fill:#DD9A5E;" d="M39.279,133.231c0,11.253,10.893,20.374,24.331,20.374v-40.747
		C50.172,112.858,39.279,121.979,39.279,133.231z"/>
</g>
<g>
	<path style="fill:#D38D54;" d="M219.956,135.292v18.313c13.437,0,24.33-9.121,24.33-20.374c0-3.294-0.939-6.403-2.597-9.156
		C237.684,130.727,229.459,135.292,219.956,135.292z"/>
	<path style="fill:#D38D54;" d="M41.876,124.075c-8.073,13.408,3.509,29.53,21.734,29.53v-18.313
		C54.106,135.292,45.881,130.727,41.876,124.075z"/>
</g>
<path style="fill:#EDAE6B;" d="M201.945,84.55c-0.284-7.808-6.714-12.086-12.917-11.12c-1.45,0.225-3.051,0.46-4.077,0.605
	c-30.82,4.375-60.119,4.099-90.41-0.605c-6.156-0.959-12.637,3.25-12.917,11.121c-0.423,11.6-5.245,20.225-12.592,25.597
	c-3.061,2.24-5.319,3.006-5.422,3.063c0,50.602-0.604,53.984,2.107,65.447c2.596,10.944,7.396,20.727,13.675,29.027
	c36.373,48.103,112.526,38.712,135.106-18.347c7.474-18.881,5.46-33.215,5.46-76.127C219.666,112.993,202.753,106.995,201.945,84.55
	z"/>
<path style="fill:#DD9A5E;" d="M92.275,191.573c-5.52-19.676-2.457-31.695-3.32-68.989c0-3.84,1.928-7.103,4.281-8.771
	c9.281-6.602,13.494-17.397,13.757-28.92c0.091-3.877,1.907-7.205,4.587-9.292c-3.72-0.372-7.331-0.801-10.668-1.249
	c-1.942-0.26-4.159-0.578-6.371-0.922c-6.139-0.956-12.635,3.238-12.917,11.121c-0.424,11.58-5.237,20.219-12.592,25.597
	c-3.062,2.241-5.319,3.006-5.422,3.063c0,50.911-0.03,48.281,0.073,50.787c1.579,35.717,27.067,64.764,58.879,72.353
	C121.082,235.246,98.479,213.713,92.275,191.573z"/>
<path style="fill:#4CAEE5;" d="M149.511,343.295v-63.423l-7.727,7.275l-7.727-7.309v63.457c0,4.268,3.459,7.727,7.727,7.727
	S149.511,347.563,149.511,343.295z"/>
<path style="fill:#DADADA;" d="M173.119,257.645l-31.335,29.502l16.915,17.046c3.23,3.255,8.583,2.938,11.407-0.676l26.903-34.437
	L173.119,257.645z"/>
<g>
	<polygon style="fill:#CECCCA;" points="185.149,263.403 173.119,257.645 141.784,287.147 152.978,298.427 	"/>
	<path style="fill:#CECCCA;" d="M161,305.775c1.415,0.632,2.974,0.812,4.467,0.542L161,305.775z"/>
</g>
<path style="fill:#DADADA;" d="M110.719,257.763l31.066,29.384l-16.915,17.046c-3.23,3.255-8.583,2.938-11.407-0.676L86.56,269.08
	L110.719,257.763z"/>
<polygon style="fill:#CECCCA;" points="119.884,287.033 130.591,298.427 141.784,287.147 110.719,257.763 97.983,263.729 "/>
<path style="fill:#D8A373;" d="M364.762,273.386v-37.935c-9.241-0.633-18.005-2.846-25.886-6.328
	c-0.783,22.526,2.041,32.496-2.885,34.728l-21.321,5.308c5.308,8.927,12.484,16.474,20.944,22.027l22.135-8.139
	C357.751,283.046,364.762,279.566,364.762,273.386z"/>
<path style="fill:#F7CF9C;" d="M440.485,135.004c4.399,0.206,7.865,3.827,7.865,8.231v5.911l0,0l0,0
	c-0.021,10.497,0.71,20.69-3.32,34.044c-4.059,13.461-11.707,25.828-23.201,36.053c-48.494,43.186-126.417,10.585-129.718-54.671
	c-0.015-0.295-0.004,0.084-0.044-0.915c-0.04-1.023-0.066-2.048-0.066-3.081c0-9.31,0-30.558,0-39.654l0,0v-3.96
	c0-4.6,3.241-8.533,7.741-9.485c7.984-1.688,20.885-6.275,32.588-18.731c2.941-3.13,7.958-2.967,10.692,0.345
	C354.378,102.851,385.043,132.413,440.485,135.004z"/>
<path style="fill:#EAB883;" d="M325.843,195.243c-10.323-20.86-7.926-35.647-8.086-64.641c0-10.062,0-20.097,0-30.177
	c-6.878,4.035-13.304,6.057-18.015,7.053c-4.501,0.952-7.741,4.885-7.741,9.485c0,10.082,0,32.473,0,43.613
	c0,1.292,0.068,3.304,0.073,3.423c0.004,0.104,0.11,1.906,0.182,2.813c3.607,45.888,45.916,78.297,90.797,70.86
	C358.38,233.583,337.053,217.823,325.843,195.243z"/>
<g>
	<path style="fill:#B72C2C;" d="M440.133,272.832l-15.07-3.751c-11.54,19.468-31.95,32.416-55.22,32.416
		C369.843,301.496,440.445,372.106,440.133,272.832z"/>
	<path style="fill:#B72C2C;" d="M299.885,272.832l15.07-3.751c11.54,19.468,31.95,32.416,55.22,32.416
		C370.175,301.496,299.573,372.106,299.885,272.832z"/>
</g>
<g>
	<path style="fill:#A82626;" d="M336.591,291.609c-12.457,6.632-26.812,9.797-36.006-2.503c7.315,74.669,69.59,12.39,69.59,12.39
		C357.888,301.496,346.399,297.883,336.591,291.609z"/>
	<path style="fill:#A82626;" d="M403.427,291.609c12.457,6.632,26.812,9.797,36.006-2.503c-7.315,74.669-69.59,12.39-69.59,12.39
		C382.131,301.496,393.619,297.883,403.427,291.609z"/>
</g>
<path style="fill:#996123;" d="M309.413,277.28c-29.615-37.334-86.807-33.283-111.406,6.512
	c-14.395,23.256-8.964,44.445-10.157,50.928h136.295C323.713,321.406,327.384,299.915,309.413,277.28z"/>
<path style="fill:#8E551C;" d="M206.339,303.841c0.305-1.291,1.025-3.843,1.057-3.95c7.596-25.193,29.568-44.574,56.927-47.909
	c-27.085-3.301-52.642,9.674-66.317,31.81c-14.395,23.256-8.963,44.441-10.157,50.928h16.652
	C204.52,320.503,203.973,313.871,206.339,303.841z"/>
<path style="fill:#996123;" d="M344.433,391.76c-5.987-18.575-13.75-30.17-19.668-36.216c-3.416,3.366-8.153,5.759-13.543,6.618
	c9.886,14.255,7.72,28.482,7.227,36.947c-0.225,3.862,3.251,6.894,7.038,6.108l12.618-2.617
	C343.014,401.582,345.971,396.53,344.433,391.76z"/>
<path style="fill:#EFD0A3;" d="M331.406,343.792c0,10.911-10.561,19.753-23.589,19.753v-39.504
	C320.845,324.041,331.406,332.883,331.406,343.792z"/>
<path style="fill:#8E551C;" d="M167.561,391.76c5.987-18.575,13.75-30.17,19.668-36.216c3.416,3.366,8.153,5.759,13.543,6.618
	c-9.886,14.255-7.72,28.482-7.227,36.947c0.225,3.862-3.251,6.894-7.039,6.108l-12.618-2.617
	C168.981,401.582,166.024,396.53,167.561,391.76z"/>
<path style="fill:#EFD0A3;" d="M180.589,343.792c0,10.911,10.561,19.753,23.589,19.753v-39.504
	C191.15,324.041,180.589,332.883,180.589,343.792z"/>
<g>
	<path style="fill:#E2BF91;" d="M307.816,346.626v16.92c17.481,0,28.659-15.268,21.319-28.213
		C325.351,342.009,317.229,346.626,307.816,346.626z"/>
	<path style="fill:#E2BF91;" d="M182.859,335.333c-7.353,12.968,3.887,28.213,21.319,28.213v-16.92
		C194.766,346.626,186.644,342.009,182.859,335.333z"/>
</g>
<path style="fill:#EFD0A3;" d="M343.624,511.999l-5.374-48.025c-1.226-10.057-4.763-18.504-14.787-24.626l-0.246-0.061
	c-8.772-5.255-15.137-5.036-44.76-12.928c-3.275-1.483-1.374-7.837-1.912-23.974c-13.235,5.792-28.555,5.551-41.294-0.088
	c-0.524,15.762,1.376,22.572-1.912,24.062c-29.566,7.877-35.977,7.667-44.759,12.928l-0.246,0.061
	c-7.066,4.316-12.192,10.985-13.949,19.485c-1.048,5.068-0.774,5.479-6.212,53.166H343.624z"/>
<path style="fill:#F9B938;" d="M168.171,511.999c42.548,0,132.877,0,175.452,0l-5.374-48.025
	c-1.224-10.045-4.776-18.514-14.787-24.626l-0.246-0.061c-8.697-5.21-15.708-5.223-39.192-11.542c0,0.221,0,6.32,0,6.214
	c0,4.452-1.046,8.692-2.899,12.429c-0.306,0.619-0.803,1.534-1.278,2.3c-0.022,0.035-0.329,0.519-0.352,0.554
	c-0.491,0.753-1.016,1.477-1.53,2.124c-0.243,0.306-0.572,0.702-0.831,0.994c-0.042,0.047-0.083,0.094-0.125,0.141
	c-0.165,0.189-0.332,0.375-0.503,0.559c-0.018,0.019-0.037,0.039-0.055,0.059c-0.004,0.004-0.007,0.007-0.01,0.011
	c-0.026,0.028-0.052,0.055-0.078,0.083c-0.198,0.209-0.4,0.413-0.604,0.615c-0.067,0.067-0.133,0.136-0.2,0.202
	c-0.264,0.257-0.533,0.509-0.806,0.756c-0.078,0.07-0.159,0.137-0.237,0.207c-0.171,0.153-0.349,0.298-0.522,0.449
	c-0.027,0.024-0.054,0.047-0.081,0.07c-0.105,0.087-0.212,0.172-0.319,0.258c-0.183,0.147-0.366,0.294-0.552,0.436
	c-0.117,0.09-0.236,0.178-0.355,0.267c-0.182,0.135-0.365,0.268-0.55,0.399c-0.091,0.064-0.183,0.128-0.275,0.191
	c-0.031,0.021-0.061,0.043-0.092,0.064c-0.191,0.13-0.385,0.258-0.58,0.384c-0.03,0.019-0.059,0.038-0.089,0.057
	c-0.089,0.058-0.178,0.116-0.268,0.172c-0.165,0.103-0.332,0.202-0.5,0.301c-0.056,0.033-0.111,0.068-0.167,0.1
	c-0.024,0.014-0.049,0.029-0.073,0.043c-0.073,0.044-0.145,0.088-0.219,0.13c-0.322,0.184-0.648,0.362-0.978,0.533
	c-0.045,0.023-0.09,0.045-0.136,0.067c-0.015,0.007-0.03,0.015-0.045,0.023c-0.055,0.028-0.11,0.054-0.165,0.081
	c-0.219,0.11-0.438,0.22-0.66,0.325c-0.12,0.056-0.241,0.109-0.361,0.163c-0.222,0.1-0.445,0.199-0.67,0.294
	c-0.136,0.057-0.273,0.112-0.41,0.167c-0.215,0.087-0.431,0.171-0.648,0.252c-0.141,0.053-0.283,0.105-0.425,0.155
	c-0.221,0.079-0.444,0.154-0.668,0.227c-0.111,0.036-0.222,0.072-0.333,0.108c-0.028,0.009-0.055,0.018-0.083,0.027
	c-0.062,0.019-0.126,0.036-0.188,0.055c-0.183,0.055-0.366,0.109-0.55,0.16c-0.09,0.025-0.179,0.051-0.27,0.076
	c-0.03,0.008-0.06,0.017-0.09,0.025c-0.368,0.098-0.739,0.189-1.113,0.272c-0.055,0.012-0.111,0.023-0.166,0.035
	c-0.166,0.036-0.331,0.071-0.498,0.104c-0.444,0.087-0.892,0.163-1.344,0.229c-0.903,0.132-1.82,0.22-2.749,0.263
	c-0.111,0.006-0.221,0.008-0.331,0.011c-0.059,0.002-0.119,0.004-0.179,0.006c-0.162,0.005-0.323,0.008-0.484,0.01
	c-0.045,0-0.09,0-0.134,0.001c-0.011,0-0.022,0-0.033,0c-0.056,0-0.112,0.001-0.168,0.001c-0.056,0-0.112-0.001-0.168-0.001
	c-0.011,0-0.022,0-0.034,0c-0.045,0-0.089,0-0.134-0.001c-0.161-0.002-0.322-0.005-0.484-0.01c-0.06-0.002-0.119-0.004-0.179-0.006
	c-0.11-0.004-0.221-0.006-0.331-0.011c-0.929-0.043-1.846-0.132-2.749-0.263c-0.452-0.066-0.9-0.142-1.344-0.229
	c-0.167-0.033-0.332-0.068-0.498-0.104c-0.055-0.012-0.111-0.022-0.166-0.035c-0.374-0.083-0.745-0.175-1.113-0.272
	c-0.03-0.008-0.06-0.017-0.09-0.025c-0.09-0.025-0.18-0.051-0.27-0.076c-0.182-0.051-0.363-0.104-0.544-0.158
	c-0.064-0.02-0.13-0.037-0.194-0.057c-0.028-0.009-0.055-0.018-0.083-0.027c-0.111-0.035-0.222-0.071-0.333-0.108
	c-0.224-0.073-0.446-0.148-0.668-0.227c-0.142-0.05-0.284-0.102-0.425-0.155c-0.217-0.081-0.434-0.165-0.648-0.252
	c-0.137-0.055-0.274-0.11-0.41-0.167c-0.225-0.095-0.448-0.194-0.67-0.294c-0.12-0.054-0.242-0.107-0.361-0.163
	c-0.222-0.104-0.441-0.214-0.66-0.325c-0.055-0.027-0.11-0.053-0.165-0.081c-0.015-0.008-0.03-0.015-0.045-0.023
	c-0.045-0.022-0.091-0.044-0.136-0.067c-0.33-0.171-0.656-0.349-0.978-0.533c-0.073-0.042-0.146-0.086-0.219-0.13
	c-0.024-0.014-0.049-0.029-0.073-0.043c-0.056-0.033-0.111-0.067-0.166-0.1c-0.168-0.099-0.335-0.198-0.5-0.301
	c-0.09-0.056-0.179-0.114-0.268-0.172c-0.03-0.019-0.06-0.038-0.089-0.057c-5.601-3.621-9.732-9.101-11.644-15.443
	c-1.71-5.669-1.04-9.707-1.19-14.371l-5.95,1.481c-18.664,5.094-25.11,5.119-33.442,10.11l-0.246,0.061
	c-6.976,4.261-12.182,10.943-13.949,19.485C173.333,463.889,173.541,464.877,168.171,511.999z"/>
<g>
	<path style="fill:#EAA224;" d="M187.435,481.72c2.148-19.372,0.639-35.626,16.937-46.089l0.246-0.064
		c1.807-1.138,3.752-2.114,5.787-2.963c0.373-0.294,0.735-0.563,1.083-0.806c-8.245,2.355-15.09,2.804-22.909,7.488l-0.246,0.061
		c-7.12,4.348-12.241,11.055-13.988,19.696c-1.032,5.081-0.797,5.785-6.173,52.955h16.04L187.435,481.72z"/>
	<path style="fill:#EAA224;" d="M213.239,511.999l0.718-22.36c0.137-4.266-3.209-7.834-7.475-7.971
		c-4.266-0.167-7.834,3.208-7.971,7.474l-0.734,22.857H213.239z"/>
	<path style="fill:#EAA224;" d="M314.217,511.999l-0.734-22.857c-0.137-4.264-3.672-7.628-7.971-7.474
		c-4.265,0.137-7.612,3.705-7.475,7.971l0.718,22.36H314.217z"/>
</g>
<path style="fill:#E2BF91;" d="M249.593,442.624c0.129-0.191,6.042-1.941,6.316-9.43v-26.568
	c-7.533-0.039-14.509-1.606-20.658-4.328c-0.524,15.767,1.376,22.572-1.912,24.062l-5.368,1.336c0.15,4.656-0.52,8.691,1.19,14.371
	c0.729,2.416,1.879,4.873,3.014,6.663L249.593,442.624L249.593,442.624z"/>
<path style="fill:#FCE3BB;" d="M252.427,306.842c-11.629,19.344-36.315,16.368-45.08,14.597c-1.64-0.331-3.168,0.929-3.168,2.602
	l0,0c0,31.476-0.961,38.397,2.201,48.852c6.415,21.272,26.054,36.566,48.998,36.821c28.597,0.357,52.439-22.665,52.439-51.81
	c0-13.176,0-22.454,0-33.862l0,0c0-1.673-1.529-2.933-3.168-2.602c-8.765,1.771-33.451,4.746-45.08-14.597
	C257.947,304.146,254.048,304.146,252.427,306.842z"/>
<path style="fill:#EFD0A3;" d="M230.699,366.819c-1.352-7.8-0.484-10.812-0.764-44.969c-9.119,1.756-18.018,0.512-22.588-0.411
	c-1.64-0.331-3.168,0.929-3.168,2.602c0,31.954-0.942,38.458,2.201,48.852c7.803,25.876,34.938,42.295,62.496,35.206
	C249.301,403.067,234.207,387.001,230.699,366.819z"/>

</svg>
