<?xml version="1.0" encoding="utf-8"?>
<svg version="1.1" id="Capa_1" xmlns="http://www.w3.org/2000/svg" xmlns:xlink="http://www.w3.org/1999/xlink" x="0px" y="0px"
	 viewBox="0 0 512 512" style="enable-background:new 0 0 512 512;" xml:space="preserve">
<style type="text/css">
	.history-0{fill:#A4CE4C;}
	.history-1{fill:#90B730;}
	.history-2{fill:#E7B246;}
	.history-3{fill:#BC882B;}
	.history-4{fill:#FBFFC7;}
	.history-5{fill:#E2E298;}
	.history-6{fill:#009954;}
	.history-7{fill:#FFFFFF;}
</style>
<circle class="history-0" cx="256" cy="256" r="256"/>
<path class="history-1" d="M303.7,507.5C407.4,488,489,406,507.9,302L381.4,175.6l-3.8,3.5L273.6,75.1l-60.6-15l22.8,22.8l-104,40.9
	l-61,132.4l47.1,47.1l-13,5.5L303.7,507.5z"/>
<rect x="131.7" y="203.4" class="history-2" width="276.6" height="133.1"/>
<rect x="269.3" y="203.4" class="history-3" width="139" height="133.1"/>
<rect x="144.3" y="218" class="history-4" width="251.3" height="104"/>
<rect x="269.3" y="218" class="history-5" width="126.4" height="104"/>
<g>
	<circle class="history-6" cx="197.5" cy="270" r="17.5"/>
	<circle class="history-6" cx="344.2" cy="270" r="17.5"/>
</g>
<rect x="104.8" y="175.6" class="history-2" width="276.6" height="133.1"/>
<rect x="243.7" y="175.6" class="history-3" width="137.8" height="133.1"/>
<rect x="117.5" y="190.2" class="history-4" width="251.3" height="104"/>
<rect x="243.7" y="190.2" class="history-5" width="125.1" height="104"/>
<ellipse class="history-2" cx="243.9" cy="242.1" rx="41.1" ry="39.8"/>
<path class="history-3" d="M243.9,202.4c-0.1,0-0.2,0-0.3,0v79.6c0.1,0,0.2,0,0.3,0c22.7,0,41.1-17.8,41.1-39.8
	C285,220.2,266.6,202.4,243.9,202.4z"/>
<circle class="history-2" cx="170.6" cy="242.1" r="17.5"/>
<circle class="history-3" cx="317.4" cy="242.1" r="17.5"/>
<g>
	<path class="history-7" d="M225.4,41.9L213,60.1l18,12.4C140.6,84.7,70.7,162.4,70.7,256.1h22c0-82.4,61.4-150.8,140.9-161.7L222,111.2
		l18.1,12.5l33.5-48.6L225.4,41.9z"/>
	<path class="history-7" d="M441.3,256.1h-22c0,84.1-63.9,153.5-145.7,162.3l14-16.4l-16.7-14.3l-38.4,44.9l44.4,38l14.3-16.7l-15.8-13.5
		C368.5,430.6,441.3,351.7,441.3,256.1z"/>
</g>
</svg>
