<?xml version="1.0" encoding="utf-8"?>
<!-- Generator: Adobe Illustrator 22.0.1, SVG Export Plug-In . SVG Version: 6.00 Build 0)  -->
<svg version="1.1" id="Capa_1" xmlns="http://www.w3.org/2000/svg" xmlns:xlink="http://www.w3.org/1999/xlink" x="0px" y="0px"
	 viewBox="0 0 512 512" style="enable-background:new 0 0 512 512;" xml:space="preserve">
<style type="text/css">
	.family-st0{fill:#383838;}
	.family-st1{fill:url(#SVGID_1_);}
</style>
<g>
	<path class="family-st0" d="M470.7,167v166.9H41.3V167H470.7 M494.7,143H17.3v214.9h477.3V143L494.7,143z"/>
</g>
<linearGradient id="SVGID_1_" gradientUnits="userSpaceOnUse" x1="176.7666" y1="312.731" x2="176.7666" y2="696.2195" gradientTransform="matrix(1 0 0 1 0 -254)">
	<stop  offset="0" style="stop-color:#C53F48"/>
	<stop  offset="1" style="stop-color:#F1716C"/>
</linearGradient>
<path class="family-st1" d="M236.7,88.7h15v-30h-15c-24.5,0-46.2,11.8-59.9,30c-13.7-18.2-35.4-30-59.9-30h-15v30h15
	c24.8,0,44.9,20.2,44.9,44.9v145.3h-44.9v30h44.9v58.4c0,24.8-20.2,44.9-44.9,44.9h-15v30h15c24.5,0,46.2-11.8,59.9-30
	c13.7,18.2,35.4,30,59.9,30h15v-30h-15c-24.8,0-44.9-20.2-44.9-44.9v-58.4h44.9v-30h-44.9V133.6C191.7,108.9,211.9,88.7,236.7,88.7z
	"/>
</svg>
