<svg height="511pt" viewBox="-45 1 511 511.999" width="511pt" xmlns="http://www.w3.org/2000/svg"><path d="m419.652344 414.96875-53.949219-150.226562c26.453125-36.167969 33.410156-83.644532 17.988281-126.007813-12.335937-33.894531-37.121094-60.949219-69.800781-76.183594-7.355469-3.433593-14.960937-5.945312-22.640625-7.988281-5.859375-1.5625-11.78125-11.648438-17.742188-12.324219-5.960937-.679687-11.957031 8.046875-17.972656 8.109375-15.113281.160156-30.25 2.378906-44.875 7.703125-1.992187.71875-3.96875 1.480469-5.902344 2.285157l60.011719 140.289062-59.996093 108.835938c6.476562 2.710937 13.167968 4.90625 19.980468 6.59375l12.90625 36.449218c1.359375 3.734375 4.144532 6.78125 7.746094 8.464844l24.859375 12.589844-11.585937 24.855468c-3.503907 7.515626-.25 16.4375 7.25 19.9375l24.859374 11.585938-11.589843 24.859375c-3.5 7.515625-.246094 16.4375 7.253906 19.9375l76.902344 35.859375c2.050781.953125 4.203125 1.40625 6.328125 1.40625 5.652344 0 11.058594-3.210938 13.609375-8.65625l35.859375-76.90625c1.6875-3.601562 1.863281-7.734375.5-11.46875zm0 0" fill="#ff9f00"/><path d="m210.5625 58.199219c-70.203125-25.796875-147.601562 10.5-173.101562 80.402343-15.300782 42.300782-8.699219 89.699219 18 126-1.5 4.5-54 150.5-54 150.5-1.5000005 3.597657-1.203126 7.800782.597656 11.398438 3.601562 7.800781 33.003906 71.101562 35.699218 76.800781 1.800782 3.898438 4.804688 6.597657 8.402344 7.796875 3.601563 1.203125 7.800782 1.203125 11.699219-.597656 8.101563-3.898438 76.800781-35.699219 77.101563-35.699219 7.199218-3.902343 10.5-12.601562 6.898437-20.101562-1.199219-2.398438-9.898437-21.597657-11.398437-24.898438 2.699218-1.203125 24.601562-11.402343 24.898437-11.402343 7.203125-3.898438 10.5-12.597657 7.203125-20.097657-1.5-2.402343-10.203125-21.601562-11.699219-24.601562 2.699219-1.5 24.898438-12.699219 25.199219-12.699219 3.597656-2.097656 6-4.796875 7.5-8.398438.898438-3.300781 12.597656-36.402343 12.898438-36.402343 43.5-10.800781 79.199218-42.898438 94.800781-85.199219 25.496093-69.898438-10.800781-147.597656-80.699219-172.800781zm6.296875 114c-8.398437 23.101562-34.199219 35.402343-57.601563 26.703125-23.398437-8.402344-35.398437-34.203125-26.996093-57.601563 8.398437-23.398437 34.496093-35.398437 57.597656-27h.300781c23.101563 9 35.097656 34.199219 26.699219 57.898438zm0 0" fill="#ffd400"/><path d="m291.261719 54.601562c-11.699219-3.300781-23.699219-4.5-35.699219-4.199218-8.402344-12.601563-18.902344-20.402344-30-20.402344-1.5 0-2.703125 0-4.203125.300781-22.5 3.601563-40.796875 36.597657-40.796875 74.699219 0 6.898438.597656 13.5 1.796875 20.101562 1.199219 8.097657-4.199219 15.898438-12.296875 17.097657-.902344.300781-1.800781.300781-2.703125.300781-7.199219 0-13.5-5.097656-14.699219-12.300781-1.5-8.097657-2.097656-16.796875-2.097656-25.199219 0-58.800781 32.996094-105 75-105 2.398438 0 5.097656.300781 7.5.902344 24.898438 3 46.496094 23.398437 58.199219 53.699218zm0 0" fill="#3e5959"/><path d="m291.261719 54.601562c-11.699219-3.300781-23.699219-4.5-35.699219-4.199218-8.402344-12.601563-18.902344-20.402344-30-20.402344-1.5 0-2.703125 0-4.203125.300781l11.703125-29.398437c24.898438 3 46.496094 23.398437 58.199219 53.699218zm0 0" fill="#384949"/><path d="m291.261719 231c-15.601563 42.300781-51.300781 74.402344-94.800781 85.199219-.300782 0-12 33.101562-12.902344 36.402343-1.5 3.601563-3.898438 6.300782-7.5 8.398438-.296875 0-22.5 11.203125-25.199219 12.699219 1.5 3 10.199219 22.203125 11.703125 24.601562 3.296875 7.5 0 16.199219-7.203125 20.097657-.296875 0-22.199219 10.199218-24.898437 11.402343 1.5 3.300781 10.199218 22.5 11.398437 24.898438 3.601563 7.5.296875 16.199219-6.902344 20.101562-.296875 0-69 31.800781-77.097656 35.699219-3.898437 1.800781-8.101563 1.800781-11.699219.597656l113.097656-312.195312c23.402344 8.699218 49.203126-3.601563 57.601563-26.703125 8.398437-23.695313-3.597656-48.898438-26.699219-57.898438l20.402344-56.101562c69.898438 25.203125 106.195312 102.902343 80.699219 172.800781zm0 0" fill="#fdbf00"/></svg>