<?xml version="1.0" encoding="utf-8"?>
<svg version="1.1" id="Calque_1" xmlns="http://www.w3.org/2000/svg" xmlns:xlink="http://www.w3.org/1999/xlink" x="0px" y="0px"
	 viewBox="0 0 512 512" style="enable-background:new 0 0 512 512;" xml:space="preserve">
<style type="text/css">
	.notes-st0{fill:#A8D32A;}
	.notes-st1{fill:#93BF00;}
	.notes-st2{fill:#81A713;}
	.notes-st3{fill:#B9DD39;}
</style>
<path class="notes-st0" d="M512,160v90l-91,90H120l-90-90v-90l90-90h301L512,160z"/>
<path class="notes-st1" d="M512,160v90l-91,90H271V70h150L512,160z"/>
<path class="notes-st1" d="M271,130c-41.4,0-75,33.6-75,75s33.6,75,75,75s75-33.6,75-75S312.4,130,271,130z"/>
<path class="notes-st2" d="M346,205c0,41.4-33.6,75-75,75V130C312.4,130,346,163.6,346,205z"/>
<path class="notes-st0" d="M271,160c-24.9,0-45,20.1-45,45c0,24.9,20.1,45,45,45s45-20.1,45-45C316,180.1,295.9,160,271,160z"/>
<path class="notes-st1" d="M316,205c0,24.9-20.1,45-45,45v-90C295.9,160,316,180.1,316,205z"/>
<path class="notes-st1" d="M120,85V70H30v90h15C86.4,160,120,126.4,120,85z"/>
<path class="notes-st0" d="M45,250H30v90h90v-15C120,283.6,86.4,250,45,250z"/>
<path class="notes-st2" d="M421,325v15h91v-90h-15C455.6,250,421,283.6,421,325z"/>
<path class="notes-st2" d="M497,160h15V70h-91v15C421,126.4,455.6,160,497,160z"/>
<path class="notes-st3" d="M451,280v90l-90,91H90L0,370v-90l90-90h271L451,280z"/>
<path class="notes-st0" d="M451,280v90l-90,91H226V190h135L451,280z"/>
<path class="notes-st0" d="M226,250c-41.4,0-75,33.6-75,75s33.6,75,75,75s75-33.6,75-75S267.4,250,226,250z"/>
<path class="notes-st1" d="M301,325c0,41.4-33.6,75-75,75V250C267.4,250,301,283.6,301,325z"/>
<path class="notes-st0" d="M105,303.8l21.2,21.2L105,346.2L83.8,325L105,303.8z"/>
<path class="notes-st1" d="M346,303.8l21.2,21.2L346,346.2L324.8,325L346,303.8z"/>
<path class="notes-st3" d="M226,280c-24.9,0-45,20.1-45,45c0,24.9,20.1,45,45,45s45-20.1,45-45C271,300.1,250.9,280,226,280z"/>
<g>
	<path class="notes-st0" d="M271,325c0,24.9-20.1,45-45,45v-90C250.9,280,271,300.1,271,325z"/>
	<path class="notes-st0" d="M90,205v-15H0v90h15C56.4,280,90,246.4,90,205z"/>
	<path class="notes-st0" d="M15,370H0v91h90v-15C90,404.6,56.4,370,15,370z"/>
</g>
<path class="notes-st1" d="M361,446v15h90v-91h-15C394.6,370,361,404.6,361,446z"/>
<path class="notes-st1" d="M436,280h15v-90h-90v15C361,246.4,394.6,280,436,280z"/>
</svg>
