<?xml version="1.0" encoding="utf-8"?>
<svg version="1.1" id="Layer_1" xmlns="http://www.w3.org/2000/svg" xmlns:xlink="http://www.w3.org/1999/xlink" x="0px" y="0px"
	 viewBox="0 0 511 511" style="enable-background:new 0 0 511 511;" xml:space="preserve">
<style type="text/css">
	.search-st0{fill:url(#SVGID_1_);}
	.search-st1{opacity:0.3;fill:#5D5D5D;enable-background:new    ;}
	.search-st2{fill:#76BED6;}
	.search-st3{fill:#B4ECF9;}
	.search-st4{fill:#FBFFFF;}
	.search-st5{fill:#E4F4F9;}
	.search-st6{fill:#334D5C;}
	.search-st7{fill:#EFC84A;}
</style>
<linearGradient id="SVGID_1_" gradientUnits="userSpaceOnUse" x1="164.4867" y1="333.0351" x2="367.4651" y2="126.5513">
	<stop  offset="0" style="stop-color:#BA93D1"/>
	<stop  offset="1" style="stop-color:#5BC0FD"/>
</linearGradient>
<path class="search-st0" d="M380.6,309.3c53-54.4,53.1-142.5,0-196.8s-139.1-54.4-192.1,0c-48.1,49.3-52.4,126.7-13.4,180.9l-42,43
	c-3,3.1-3.1,8.3-0.1,11.4l17.7,18.2c3,3.1,8,2.8,11-0.2l41.9-43C257,363.2,332.4,358.7,380.6,309.3z"/>
<path class="search-st1" d="M133.8,336.4c-3,3.1-3.4,8.3-0.4,11.4L151,366c3,3.1,8.5,2.8,11.5-0.2l8.1-7.8v-58.7L133.8,336.4z"/>
<path class="search-st2" d="M356.9,285C317,326,252.2,326,212.3,285c-39.9-40.9-39.9-107.3,0-148.2c39.9-40.9,104.7-40.9,144.6,0
	C396.9,177.8,396.9,244.1,356.9,285z"/>
<path class="search-st3" d="M216.9,280.4c-37.4-38.3-37.4-100.6,0-138.9c37.4-38.3,98.2-38.3,135.5,0c37.4,38.3,37.4,100.6,0,138.9
	C315,318.7,254.2,318.7,216.9,280.4z"/>
<path class="search-st4" d="M371.2,116.8c-21.6-19-48.4-30.1-76.8-31.9c-28-1.7-56.5,6.6-79.6,22.9c-5.1,3.6-0.4,12.2,4.8,8.6
	c21.5-15.2,47-22.8,73.1-21.7c26.2,1.1,51.8,11.6,71.7,29.1C369.1,127.9,375.9,120.9,371.2,116.8L371.2,116.8z"/>
<path class="search-st5" d="M353,263.6c-15.6,16-40.8,16-56.4,0c-15.6-16-15.6-41.8,0-57.8c15.6-16,40.8-16,56.4,0
	C368.6,221.8,368.6,247.7,353,263.6z"/>
<path class="search-st5" d="M351.2,176c-4.3,4.4-11.2,4.4-15.5,0c-4.3-4.4-4.3-11.5,0-15.9s11.2-4.4,15.5,0
	C355.5,164.5,355.5,171.6,351.2,176z"/>
<path class="search-st6" d="M140.3,323.5l-83.8,85.9c10.4,14.1,22.1,27,35.1,38.6l85.1-87.2C186.7,350.5,150.3,313.2,140.3,323.5z"/>
<path class="search-st1" d="M176.2,360.7c10-10.3-26.1-47.5-36.1-37.3l-27.5,28.4v74.6L176.2,360.7z"/>
<path class="search-st7" d="M182.1,369.1c-2.5,2.6-6.6,2.6-9.1,0l-41.4-42.4c-2.5-2.6-2.5-6.7,0-9.3l10.5-10.7c2.5-2.6,6.6-2.6,9.1,0
	l41.4,42.4c2.5,2.6,2.5,6.7,0,9.3L182.1,369.1z"/>
</svg>
