<?xml version="1.0" encoding="utf-8"?>
<svg version="1.1" id="Layer_1" xmlns="http://www.w3.org/2000/svg" xmlns:xlink="http://www.w3.org/1999/xlink" x="0px" y="0px"
	 viewBox="0 0 425.8 425.8" style="enable-background:new 0 0 425.8 425.8;" xml:space="preserve">
<style type="text/css">
	.swimsuit-st0{fill:#5BC0FD;}
	.swimsuit-st1{fill:#E3B3FF;}
	.swimsuit-st2{fill:#E9E9E9;}
	.swimsuit-st3{fill:#40A2D3;}
	.swimsuit-st4{fill:#3D97C4;}
	.swimsuit-st5{fill:#E35B5B;}
	.swimsuit-st6{fill:#BF7EED;}
	.swimsuit-st7{fill:#FFFFFF;}
</style>
<g>
	<path class="swimsuit-st0" d="M425.8,354l-195.1,25l-17.8-139l-17.8,139L0,354L32.9,96.9l6.4-50.1c115.3,14.6,231.9,14.6,347.1,0l6.4,50.1
		L425.8,354"/>
	<path class="swimsuit-st1" d="M392.9,96.9c-27.3,3.3-54.7,5.8-82.2,7.5c-92.6,6-185.5,3.4-277.8-7.5l6.4-50.1
		c89.1,11.3,179.1,13.8,268.6,7.7c26.2-1.8,52.4-4.3,78.5-7.7L392.9,96.9"/>
	<polyline class="swimsuit-st2" points="425.8,354 296.7,370.6 296.7,370.6 425.8,354 	"/>
	<polyline class="swimsuit-st3" points="392.9,96.9 296.7,370.6 425.8,354 392.9,96.9 	"/>
	<polyline class="swimsuit-st4" points="212.9,240 139.4,371.9 195.1,379 212.9,240 	"/>
	<polyline class="swimsuit-st5" points="386.4,46.8 386.4,46.8 392.9,96.9 392.9,96.9 386.4,46.8 	"/>
	<path class="swimsuit-st6" d="M386.4,46.8c-26.1,3.3-52.3,5.8-78.6,7.7l2.8,50c27.5-1.8,54.9-4.3,82.2-7.5L386.4,46.8"/>
	<path class="swimsuit-st7" d="M107,209.3L107,209.3c-0.9-2.6,0.4-5.4,3-6.3c40.5-15.1,65.6-39.3,74.7-72c5.1-18.3,3.6-34.4,2.4-41.9
		c-0.4-2.5,1.1-5,3.6-5.6l0,0c2.8-0.8,5.8,1.1,6.2,4c1.4,8.5,3,26-2.6,46.2c-12.3,44.1-49.8,67-80.9,78.7
		C110.8,213.3,107.9,211.9,107,209.3z"/>
	<path class="swimsuit-st7" d="M318.8,209.3c-0.9,2.6-3.8,4-6.5,3.1c-31.1-11.7-68.5-34.6-80.9-78.7c-5.6-20.2-4-37.7-2.6-46.2
		c0.5-2.9,3.4-4.8,6.2-4l4.5,1.2l-4.8-1.3l0.3,0.1c2.5,0.7,4,3.1,3.6,5.6c-1.2,7.5-2.8,23.9,2.5,42.3c9.3,32.5,34.3,56.5,74.6,71.6
		C318.4,203.9,319.7,206.7,318.8,209.3z"/>
</g>
</svg>
