<?xml version="1.0" encoding="utf-8"?>
<!-- Generator: Adobe Illustrator 22.0.1, SVG Export Plug-In . SVG Version: 6.00 Build 0)  -->
<svg version="1.1" id="Calque_1" xmlns="http://www.w3.org/2000/svg" xmlns:xlink="http://www.w3.org/1999/xlink" x="0px" y="0px"
	 viewBox="0 0 441 94.3" style="enable-background:new 0 0 441 94.3;" xml:space="preserve">
<g>
	<path style="fill:#595959;" d="M2.5,58c-0.2-2-0.4-3.7-0.8-5.2c0-0.4,0.1-0.7,0.4-1.1c0.3-0.3,0.7-0.6,1.2-0.8
		c1.1-0.4,2.2-0.6,3.5-0.8c1.7-0.2,3,0.1,4.1,0.7c1,0.6,1.6,1.7,1.8,3.2c0.1,1.5-0.3,2.8-1.5,3.8c-1.1,1-2.6,1.6-4.4,1.8
		C6,59.9,5,59.8,4,59.5c0,0.6,0,1.4,0.1,2.5l0.1,0.9c0,0.3,0.1,0.6,0.1,0.9C4.3,63.9,4.2,64,4.1,64c-0.1,0-0.1,0.1-0.2,0.1
		c0,0-0.1,0-0.1,0.1c-0.1,0-0.1,0-0.1,0c-0.1,0-0.2,0.1-0.3,0.1l-0.3,0c-0.1-0.9-0.2-1.8-0.3-2.5L2.5,58z M3.8,58.2
		c1,0.5,2.1,0.7,3.4,0.6c1.3-0.1,2.3-0.6,3.1-1.5c0.8-0.9,1.1-1.9,1-3c-0.1-1.1-0.6-2-1.6-2.4c-1-0.5-2.1-0.7-3.3-0.5
		c-1.3,0.1-2.3,0.5-3.3,1.2C3.3,53.3,3.5,55.2,3.8,58.2z"/>
	<path style="fill:#595959;" d="M14.9,55c0.5-1,1.4-1.6,2.6-1.7c1.2-0.1,2.2,0.3,3,1.2c0.8,0.9,1.3,2,1.4,3.2
		c0.1,1.2-0.2,2.3-0.9,3.3c-0.7,0.9-1.7,1.5-2.9,1.6s-2.1-0.1-2.8-0.8c-0.6-0.6-1-1.6-1.1-2.8C14.2,57.4,14.4,56,14.9,55z
		 M15.8,55.9c-0.1,0.5-0.2,1-0.2,1.5c0,0.5,0,1,0,1.4c0,0.4,0.1,0.8,0.2,1.1c0.1,0.3,0.2,0.7,0.4,1c0.2,0.3,0.4,0.6,0.8,0.7
		c0.3,0.2,0.7,0.2,1.1,0.2c0.8-0.1,1.5-0.5,2-1.2c0.5-0.7,0.7-1.6,0.6-2.6c-0.1-1-0.4-1.9-1.1-2.8c-0.6-0.9-1.3-1.3-2-1.2
		c-0.5,0-0.8,0.2-1.1,0.6C16.2,54.9,15.9,55.4,15.8,55.9z"/>
	<path style="fill:#595959;" d="M24.9,53c-0.3,0.6-0.3,1.6-0.2,2.8c0.2,1.8,0.7,3.3,1.5,4.3c0.5,0.6,1,0.9,1.5,0.8
		c0.6-0.1,1-0.4,1.3-1c0.3-0.8,0.4-1.8,0.3-3.1c-0.2-1.6-0.5-2.8-1-3.5c-0.2-0.3-0.4-0.6-0.4-0.8c0-0.2,0-0.3,0.1-0.4
		c0.1-0.1,0.3-0.1,0.6-0.2c0.8-0.1,1.3,0.7,1.7,2.2c0.1,0.4,0.2,0.9,0.2,1.3c0.1,1.1,0,2.3-0.3,3.5c-0.5,1.6-1.4,2.5-2.8,2.6
		c-0.7,0.1-1.4-0.1-1.9-0.6c-1.1-0.9-1.7-2.4-1.9-4.5c-0.1-0.9-0.1-1.6,0-2.1c0.1-0.5,0.2-0.8,0.2-1c0.1-0.2,0.2-0.3,0.3-0.4
		c0.1-0.1,0.2-0.2,0.4-0.2C24.5,52.9,24.7,52.9,24.9,53z"/>
	<path style="fill:#595959;" d="M34.5,59.1l0.2,1.1c0,0.3,0,0.5-0.2,0.6c-0.1,0.1-0.3,0.2-0.5,0.2c-0.2,0-0.3,0-0.5,0
		c-0.4-1.4-0.8-3.2-1.2-5.4c-0.4-2.2-0.6-3.4-0.6-3.7c0.2-0.2,0.4-0.3,0.6-0.3c0.2,0,0.4,0,0.6,0c0.1,0.4,0.2,1.2,0.3,2.4
		c0.1,1.2,0.3,2,0.3,2.3c0.1-1.1,0.3-2.1,0.7-3c0.2-0.5,0.5-1,0.9-1.3c0.4-0.3,0.8-0.5,1.3-0.6c0.5,0,0.9,0.1,1.4,0.5
		c0.4,0.4,0.7,0.7,0.7,1.1c0,0.1-0.1,0.2-0.2,0.3c-0.1,0.1-0.3,0.1-0.5,0.2c-0.2,0-0.3,0-0.4-0.2c-0.1-0.1-0.2-0.3-0.3-0.4
		c-0.1-0.2-0.2-0.3-0.3-0.4c-0.1-0.1-0.3-0.2-0.5-0.2c-0.6,0.1-1,0.6-1.3,1.7C34.5,55.4,34.3,57.2,34.5,59.1z"/>
	<path style="fill:#595959;" d="M46,60c-0.2,0-0.5-1.9-0.9-5.7c-0.2-1.6-0.3-2.6-0.3-2.9l-0.4,0c-0.2,0-0.3,0-0.4,0
		c-0.1,0-0.2,0-0.4,0c-0.2,0-0.3,0-0.4,0c-0.1,0-0.2,0-0.3-0.1c-0.2-0.1-0.3-0.2-0.3-0.4c0-0.2,0.4-0.4,1.1-0.5
		c0.3,0,0.6-0.1,0.9-0.1c0-0.3,0-0.6-0.1-1c0-0.4-0.1-0.7-0.1-0.9c0-0.2,0-0.5,0-0.8c0-0.3,0-0.6,0-0.7c0-0.2,0.1-0.4,0.1-0.6
		c0.1-0.2,0.1-0.4,0.3-0.5c0.1-0.1,0.2-0.3,0.4-0.4c0.3-0.2,0.7-0.4,1.4-0.5c0.7-0.1,1.2,0.1,1.5,0.4s0.7,0.8,1,1.6
		c-0.2,0.2-0.4,0.4-0.6,0.4c-0.1,0-0.2,0-0.3,0c-0.3-0.6-0.5-1-0.7-1.2c-0.2-0.2-0.5-0.3-0.8-0.2c-0.3,0-0.5,0.1-0.7,0.2
		c-0.1,0.1-0.3,0.3-0.3,0.5c-0.2,0.4-0.2,1.3,0,2.8c0,0.1,0,0.2,0,0.3c0,0.2,0,0.3,0,0.5l1.6-0.3c0.6-0.1,1,0.1,1,0.3
		c0,0.2-0.1,0.3-0.4,0.4c-0.3,0.1-0.7,0.2-1.1,0.2c-0.5,0.1-0.8,0.1-0.9,0.2c0,0.4,0,0.8,0.1,1.4c0.1,0.6,0.2,1.5,0.4,2.7
		c0.2,1.2,0.3,2.2,0.4,2.8c0.1,0.7,0,1.1-0.1,1.4C46.7,59.8,46.4,59.9,46,60z"/>
	<path style="fill:#595959;" d="M55.6,53.4l0.1,2.2c0.1,1.1,0.3,1.8,0.6,2.2c0.2,0.2,0.4,0.3,0.7,0.3c0.1,0,0.2,0,0.3-0.1
		c0.3-0.1,0.5-0.1,0.7,0c0,0.4-0.5,0.7-1.3,0.8c-0.5,0.1-0.9-0.1-1.1-0.6c-0.2-0.3-0.3-0.7-0.4-1.2c-0.1-0.5-0.2-0.8-0.3-1
		c-0.7,1.6-1.4,2.7-2.1,3.1c-0.4,0.2-0.8,0.3-1.3,0.4c-0.5,0-0.9-0.2-1.3-0.6c-0.3-0.5-0.5-1.2-0.6-2.1c-0.1-1,0-2,0.2-3
		c0.2-1.1,0.6-2,1.1-2.8c0.5-0.8,1.2-1.2,1.9-1.3c1-0.1,1.8,0.3,2.2,1.1C55.2,51.4,55.5,52.3,55.6,53.4z M50.9,53.3
		c-0.1,0.7-0.2,1.4-0.2,2c0,0.6,0,1.2,0,1.6c0,0.5,0.2,0.9,0.4,1.2c0.2,0.3,0.5,0.5,0.8,0.4c0.7-0.1,1.3-0.8,1.8-2.1
		c0.5-1.3,0.7-2.6,0.6-3.7C54.2,52,54,51.4,53.6,51c-0.3-0.3-0.6-0.4-1-0.4c-0.4,0-0.8,0.3-1,0.8C51.2,52,51,52.6,50.9,53.3z"/>
	<path style="fill:#595959;" d="M58.6,44.6c0,0.3,0,0.6,0.1,1c0,0.4,0.1,0.7,0.2,1.1c-0.2,0.2-0.4,0.3-0.7,0.4
		c-0.4,0-0.6-0.2-0.7-0.8c0,0,0-0.1,0-0.3c0-0.2,0-0.3,0-0.4c0-0.1,0-0.3,0-0.5c0.1-0.3,0.2-0.5,0.5-0.5
		C58.3,44.5,58.5,44.5,58.6,44.6z M58.3,54c-0.2-2.5-0.3-3.9,0-4.3c0.1-0.1,0.2-0.2,0.3-0.2c0.1,0,0.3,0,0.6,0.1
		c0,1.1,0.1,2.2,0.2,3.5l0.4,4.2c0,0.4,0,0.7-0.2,0.8c-0.2,0.2-0.3,0.3-0.4,0.3c-0.1,0-0.3,0-0.5-0.1C58.6,56.7,58.4,55.2,58.3,54z"
		/>
	<path style="fill:#595959;" d="M64,56.2l0.2,1.1c0,0.3,0,0.5-0.2,0.6c-0.1,0.1-0.3,0.2-0.5,0.2c-0.2,0-0.3,0-0.5,0
		c-0.4-1.4-0.8-3.2-1.2-5.4c-0.4-2.2-0.6-3.4-0.6-3.7c0.2-0.2,0.4-0.3,0.6-0.3c0.2,0,0.4,0,0.6,0c0.1,0.4,0.2,1.2,0.3,2.4
		c0.1,1.2,0.3,2,0.3,2.3c0.1-1.1,0.3-2.1,0.7-3c0.2-0.5,0.5-1,0.9-1.3c0.4-0.3,0.8-0.5,1.3-0.6c0.5,0,0.9,0.1,1.4,0.5
		c0.4,0.4,0.7,0.7,0.7,1.1c0,0.1-0.1,0.2-0.2,0.3c-0.1,0.1-0.3,0.1-0.5,0.2s-0.3,0-0.4-0.2c-0.1-0.1-0.2-0.3-0.3-0.4
		c-0.1-0.2-0.2-0.3-0.3-0.4c-0.1-0.1-0.3-0.2-0.5-0.2c-0.6,0.1-1,0.6-1.3,1.7C64,52.6,63.8,54.3,64,56.2z"/>
	<path style="fill:#595959;" d="M70.1,53.6c0,0.3,0,0.4,0,0.5c0.1,0.8,0.4,1.3,0.9,1.7c0.5,0.4,1.1,0.5,1.7,0.5
		c0.6-0.1,1.1-0.2,1.5-0.4c0.4-0.2,0.6-0.4,0.8-0.6c0.4-0.6,0.8-0.9,1.2-1c0.1,0,0.3,0,0.5,0.1c-0.1,0.6-0.5,1.2-1.3,1.8
		c-0.8,0.6-1.8,0.9-3,1.1c-0.9,0.1-1.7-0.1-2.3-0.6c-0.7-0.5-1.1-1.2-1.2-2.2s0-1.9,0.3-2.9c0.3-0.9,0.8-1.8,1.4-2.5
		c0.7-0.7,1.4-1.1,2.1-1.2c0.7-0.1,1.4,0,1.9,0.3c0.5,0.3,0.8,0.7,0.8,1.3c0.1,1.1-0.3,2-1.2,2.8c-0.9,0.8-1.9,1.3-3,1.4
		C70.9,53.6,70.5,53.6,70.1,53.6z M71.5,52.9c0.6-0.1,1.1-0.3,1.5-0.7c0.4-0.4,0.7-0.8,0.9-1.3c0.2-0.4,0.2-0.8,0.2-1.2
		c0-0.3-0.2-0.6-0.5-0.9c-0.3-0.2-0.6-0.3-1-0.3C72,48.6,71.5,49.1,71,50c-0.4,0.9-0.7,1.9-0.9,2.8C70.7,52.9,71.2,52.9,71.5,52.9z"
		/>
	<path style="fill:#595959;" d="M81.9,48.4c-0.6,0.1-1,0-1.2-0.3c0-0.2,0-0.4,0.2-0.5c0.2-0.1,0.3-0.2,0.5-0.3
		c0.2-0.1,0.5-0.1,1-0.2c0-0.3,0-0.8-0.1-1.3c0-0.5-0.1-1-0.1-1.4c-0.1-1,0-1.6,0.3-1.9c0.1-0.1,0.2-0.2,0.4-0.2c0.1,0,0.2,0,0.4,0
		c0.1,0.9,0.2,1.4,0.2,1.6l0.2,2.8c0,0,0.1,0,0.2,0l1.4-0.2c1-0.1,1.5,0,1.5,0.3c0,0.4-0.1,0.7-0.5,0.8c-0.2,0.1-0.3,0.1-0.6,0.1
		c-0.2,0-0.5,0-0.9,0c-0.4,0-0.6,0-0.8,0c-0.1,0-0.2,0-0.3,0c0,0.4,0,0.7,0,1.1c0,0.4,0.1,0.8,0.2,1.3c0.1,0.5,0.2,1.2,0.3,1.9
		c0.2,0.7,0.4,1.4,0.7,1.9c0.3,0.5,0.7,0.7,1.1,0.7c0.2,0,0.5-0.1,0.7-0.3c0.3-0.2,0.5-0.3,0.6-0.3c0.2,0,0.3,0,0.4,0.1
		c0.1,0.1,0.2,0.1,0.2,0.2c0,0.3-0.2,0.5-0.7,0.8c-0.5,0.3-1,0.5-1.3,0.5c-1.4,0.1-2.4-1.1-3-3.7c-0.2-0.7-0.4-2-0.6-3.9
		C82.4,48.3,82.2,48.3,81.9,48.4z"/>
	<path style="fill:#595959;" d="M90,51.7c0,0.3,0,0.4,0,0.5c0.1,0.8,0.4,1.3,0.9,1.7c0.5,0.4,1.1,0.5,1.7,0.5
		c0.6-0.1,1.1-0.2,1.5-0.4c0.4-0.2,0.6-0.4,0.8-0.6c0.4-0.6,0.8-0.9,1.2-1c0.1,0,0.3,0,0.5,0.1c-0.1,0.6-0.5,1.2-1.3,1.8
		c-0.8,0.6-1.8,0.9-3,1.1c-0.9,0.1-1.7-0.1-2.3-0.6c-0.7-0.5-1.1-1.2-1.2-2.2s0-1.9,0.3-2.9c0.3-0.9,0.8-1.8,1.4-2.5
		c0.7-0.7,1.4-1.1,2.1-1.2c0.7-0.1,1.4,0,1.9,0.3c0.5,0.3,0.8,0.7,0.8,1.3c0.1,1.1-0.3,2-1.2,2.8c-0.9,0.8-1.9,1.3-3,1.4
		C90.8,51.7,90.4,51.7,90,51.7z M91.4,50.9c0.6-0.1,1.1-0.3,1.5-0.7c0.4-0.4,0.7-0.8,0.9-1.3c0.2-0.4,0.2-0.8,0.2-1.2
		c0-0.3-0.2-0.6-0.5-0.9c-0.3-0.2-0.6-0.3-1-0.3c-0.6,0.1-1.2,0.6-1.6,1.5c-0.4,0.9-0.7,1.9-0.9,2.8C90.6,50.9,91,51,91.4,50.9z"/>
	<path style="fill:#595959;" d="M102.3,46.7c-0.1-0.3-0.4-0.5-0.7-0.6c-0.3-0.1-0.7-0.2-1.2-0.1c-0.5,0-0.9,0.2-1.3,0.5
		c-0.4,0.3-0.5,0.7-0.5,1.2c0,0.5,0.3,0.8,0.7,1c0.4,0.2,0.9,0.4,1.5,0.5c0.6,0.1,1.1,0.2,1.7,0.3c0.6,0.1,1.1,0.3,1.5,0.6
		c0.4,0.3,0.7,0.8,0.7,1.3c0.1,0.8-0.2,1.5-0.9,2s-1.5,0.8-2.4,0.9c-0.6,0.1-1.3,0-2.3-0.2c-1-0.2-1.5-0.6-1.5-1
		c0-0.3,0.2-0.5,0.8-0.6c0.2,0,0.4,0.1,0.7,0.2c0.9,0.5,1.7,0.7,2.6,0.6c0.5,0,0.8-0.2,1.1-0.3c0.6-0.3,0.8-0.8,0.8-1.5
		c0-0.4-0.3-0.7-0.7-0.9c-0.4-0.2-0.9-0.3-1.4-0.4c-0.6-0.1-1.1-0.2-1.7-0.3c-0.6-0.1-1.1-0.3-1.5-0.7c-0.4-0.3-0.7-0.8-0.7-1.4
		c-0.1-0.8,0.2-1.4,0.9-2c0.6-0.5,1.5-0.9,2.5-1c0.7-0.1,1.3,0.1,1.9,0.4c0.6,0.3,0.9,0.8,1,1.5c0,0.5-0.2,0.7-0.7,0.8
		c-0.2,0-0.4,0-0.4-0.1c-0.1-0.1-0.1-0.2-0.2-0.4S102.3,46.8,102.3,46.7z"/>
	<path style="fill:#595959;" d="M116.4,45.8c-0.2,0.3-0.4,0.4-0.7,0.4c-0.2,0-0.4-0.1-0.6-0.3c-0.2-0.2-0.3-0.4-0.4-0.6
		c-0.1-0.2-0.3-0.4-0.5-0.6c-0.3-0.2-0.6-0.3-0.9-0.2c-0.5,0.1-0.9,0.5-1.2,1.2c-0.3,0.7-0.6,1.4-0.7,2.2c-0.1,0.8-0.1,1.5-0.1,2.2
		c0.1,0.7,0.3,1.3,0.7,1.7c0.4,0.5,1,0.7,1.6,0.6c0.8-0.1,1.3-0.4,1.7-1c0.2-0.2,0.3-0.5,0.5-0.7c0.4-0.6,0.7-0.9,1-0.9
		c0.1,0,0.3,0,0.5,0c0,0.5-0.3,1.1-1.1,2s-1.7,1.3-2.6,1.4c-1,0.1-1.8-0.1-2.4-0.7c-0.6-0.6-1-1.4-1.1-2.4c-0.1-1.3,0.1-2.6,0.6-4
		c0.3-0.7,0.6-1.2,1.1-1.7c0.5-0.5,1.1-0.7,1.7-0.8c0.7-0.1,1.2,0.1,1.7,0.5C115.7,44.6,116.1,45.2,116.4,45.8z"/>
	<path style="fill:#595959;" d="M119.1,44.8c0.5-1,1.4-1.6,2.6-1.7c1.2-0.1,2.2,0.3,3,1.2c0.8,0.9,1.3,2,1.4,3.2
		c0.1,1.2-0.2,2.3-0.9,3.3c-0.7,0.9-1.7,1.5-2.9,1.6s-2.1-0.1-2.8-0.8c-0.6-0.6-1-1.6-1.1-2.8C118.3,47.2,118.5,45.9,119.1,44.8z
		 M120,45.7c-0.1,0.5-0.2,1-0.2,1.5c0,0.5,0,1,0,1.4c0,0.4,0.1,0.8,0.2,1.1c0.1,0.3,0.2,0.7,0.4,1c0.2,0.3,0.4,0.6,0.8,0.7
		c0.3,0.2,0.7,0.2,1.1,0.2c0.8-0.1,1.5-0.5,2-1.2c0.5-0.7,0.7-1.6,0.6-2.6c-0.1-1-0.4-1.9-1.1-2.8c-0.6-0.9-1.3-1.3-2-1.2
		c-0.5,0-0.8,0.2-1.1,0.6C120.3,44.8,120.1,45.2,120,45.7z"/>
	<path style="fill:#595959;" d="M129.1,42.8c-0.3,0.6-0.3,1.6-0.2,2.8c0.2,1.8,0.7,3.3,1.5,4.3c0.5,0.6,1,0.9,1.5,0.8
		c0.6-0.1,1-0.4,1.3-1c0.3-0.8,0.4-1.8,0.3-3.1c-0.2-1.6-0.5-2.8-1-3.5c-0.2-0.3-0.4-0.6-0.4-0.8c0-0.2,0-0.3,0.1-0.4
		c0.1-0.1,0.3-0.1,0.6-0.2c0.8-0.1,1.3,0.7,1.7,2.2c0.1,0.4,0.2,0.9,0.2,1.3c0.1,1.1,0,2.3-0.3,3.5c-0.5,1.6-1.4,2.5-2.8,2.6
		c-0.7,0.1-1.4-0.1-1.9-0.6c-1.1-0.9-1.7-2.4-1.9-4.5c-0.1-0.9-0.1-1.6,0-2.1c0.1-0.5,0.2-0.8,0.2-1c0.1-0.2,0.2-0.3,0.3-0.4
		c0.1-0.1,0.2-0.2,0.4-0.2C128.7,42.7,128.9,42.8,129.1,42.8z"/>
	<path style="fill:#595959;" d="M138.7,48.9l0.2,1.1c0,0.3,0,0.5-0.2,0.6c-0.1,0.1-0.3,0.2-0.5,0.2c-0.2,0-0.3,0-0.5,0
		c-0.4-1.4-0.8-3.2-1.2-5.4c-0.4-2.2-0.6-3.4-0.6-3.7c0.2-0.2,0.4-0.3,0.6-0.3c0.2,0,0.4,0,0.6,0c0.1,0.4,0.2,1.2,0.3,2.4
		s0.3,2,0.3,2.3c0.1-1.1,0.3-2.1,0.7-3c0.2-0.5,0.5-1,0.9-1.3c0.4-0.3,0.8-0.5,1.3-0.6c0.5,0,0.9,0.1,1.4,0.5
		c0.4,0.4,0.7,0.7,0.7,1.1c0,0.1-0.1,0.2-0.2,0.3c-0.1,0.1-0.3,0.1-0.5,0.2c-0.2,0-0.3,0-0.4-0.2c-0.1-0.1-0.2-0.3-0.3-0.4
		c-0.1-0.2-0.2-0.3-0.3-0.4c-0.1-0.1-0.3-0.2-0.5-0.2c-0.6,0.1-1,0.6-1.3,1.7C138.6,45.3,138.5,47,138.7,48.9z"/>
	<path style="fill:#595959;" d="M148.5,42.2c-0.1-0.3-0.4-0.5-0.7-0.6c-0.3-0.1-0.7-0.2-1.2-0.1c-0.5,0-0.9,0.2-1.3,0.5
		c-0.4,0.3-0.5,0.7-0.5,1.2s0.3,0.8,0.7,1c0.4,0.2,0.9,0.4,1.5,0.5c0.6,0.1,1.1,0.2,1.7,0.3c0.6,0.1,1.1,0.3,1.5,0.6
		c0.4,0.3,0.7,0.8,0.7,1.3c0.1,0.8-0.2,1.5-0.9,2c-0.7,0.5-1.5,0.8-2.4,0.9c-0.6,0.1-1.3,0-2.3-0.2c-1-0.2-1.5-0.6-1.5-1
		c0-0.3,0.2-0.5,0.8-0.6c0.2,0,0.4,0.1,0.7,0.2c0.9,0.5,1.7,0.7,2.6,0.6c0.5,0,0.8-0.2,1.1-0.3c0.6-0.3,0.8-0.8,0.8-1.5
		c0-0.4-0.3-0.7-0.7-0.9c-0.4-0.2-0.9-0.3-1.4-0.4c-0.6-0.1-1.1-0.2-1.7-0.3c-0.6-0.1-1.1-0.3-1.5-0.7c-0.4-0.3-0.7-0.8-0.7-1.4
		c-0.1-0.8,0.2-1.4,0.9-2c0.6-0.5,1.5-0.9,2.5-1c0.7-0.1,1.3,0.1,1.9,0.4c0.6,0.3,0.9,0.8,1,1.5c0,0.5-0.2,0.7-0.7,0.8
		c-0.2,0-0.4,0-0.4-0.1c-0.1-0.1-0.1-0.2-0.2-0.4C148.6,42.5,148.5,42.3,148.5,42.2z"/>
	<path style="fill:#595959;" d="M153.3,45.5c0,0.3,0,0.4,0,0.5c0.1,0.8,0.4,1.3,0.9,1.7c0.5,0.4,1.1,0.5,1.7,0.5s1.1-0.2,1.5-0.4
		c0.4-0.2,0.6-0.4,0.8-0.6c0.4-0.6,0.8-0.9,1.2-1c0.1,0,0.3,0,0.5,0.1c-0.1,0.6-0.5,1.2-1.3,1.8c-0.8,0.6-1.8,0.9-3,1.1
		c-0.9,0.1-1.7-0.1-2.3-0.6c-0.7-0.5-1.1-1.2-1.2-2.2s0-1.9,0.3-2.9c0.3-0.9,0.8-1.8,1.4-2.5c0.7-0.7,1.4-1.1,2.1-1.2
		c0.7-0.1,1.4,0,1.9,0.3c0.5,0.3,0.8,0.7,0.8,1.3c0.1,1.1-0.3,2-1.2,2.8c-0.9,0.8-1.9,1.3-3,1.4C154.1,45.5,153.7,45.5,153.3,45.5z
		 M154.7,44.7c0.6-0.1,1.1-0.3,1.5-0.7c0.4-0.4,0.7-0.8,0.9-1.3c0.2-0.4,0.2-0.8,0.2-1.2c0-0.3-0.2-0.6-0.5-0.9
		c-0.3-0.2-0.6-0.3-1-0.3c-0.6,0.1-1.2,0.6-1.6,1.5c-0.4,0.9-0.7,1.9-0.9,2.8C153.9,44.8,154.3,44.8,154.7,44.7z"/>
	<path style="fill:#595959;" d="M165.6,40.6c-0.1-0.3-0.4-0.5-0.7-0.6c-0.3-0.1-0.7-0.2-1.2-0.1c-0.5,0-0.9,0.2-1.3,0.5
		c-0.4,0.3-0.5,0.7-0.5,1.2s0.3,0.8,0.7,1c0.4,0.2,0.9,0.4,1.5,0.5s1.1,0.2,1.7,0.3c0.6,0.1,1.1,0.3,1.5,0.6
		c0.4,0.3,0.7,0.8,0.7,1.3c0.1,0.8-0.2,1.5-0.9,2c-0.7,0.5-1.5,0.8-2.4,0.9c-0.6,0.1-1.3,0-2.3-0.2c-1-0.2-1.5-0.6-1.5-1
		c0-0.3,0.2-0.5,0.8-0.6c0.2,0,0.4,0.1,0.7,0.2c0.9,0.5,1.7,0.7,2.6,0.6c0.5,0,0.8-0.2,1.1-0.3c0.6-0.3,0.8-0.8,0.8-1.5
		c0-0.4-0.3-0.7-0.7-0.9c-0.4-0.2-0.9-0.3-1.4-0.4c-0.6-0.1-1.1-0.2-1.7-0.3c-0.6-0.1-1.1-0.3-1.5-0.7c-0.4-0.3-0.7-0.8-0.7-1.4
		c-0.1-0.8,0.2-1.4,0.9-2c0.6-0.5,1.5-0.9,2.5-1c0.7-0.1,1.3,0.1,1.9,0.4c0.6,0.3,0.9,0.8,1,1.5c0,0.5-0.2,0.7-0.7,0.8
		c-0.2,0-0.4,0-0.4-0.1c-0.1-0.1-0.1-0.2-0.2-0.4C165.7,40.8,165.6,40.7,165.6,40.6z"/>
	<path style="fill:#595959;" d="M170,48.2c0-0.1,0-0.3-0.1-0.5c-0.1-0.2-0.1-0.4-0.1-0.6s-0.1-0.3-0.1-0.5c0-0.4,0.2-0.6,0.7-0.7
		c0.4,0,0.7,0.5,0.8,1.7c0.2,2.1-0.3,3.7-1.6,4.8c-0.1,0.1-0.3,0.2-0.4,0.2c-0.1,0-0.3,0-0.4-0.1c-0.1-0.1-0.2-0.1-0.2-0.2
		c0-0.1,0.1-0.2,0.2-0.4C169.7,51.1,170.1,49.8,170,48.2z"/>
	<path style="fill:#595959;" d="M178.2,38c-0.3,0.6-0.3,1.6-0.2,2.8c0.2,1.8,0.7,3.3,1.5,4.3c0.5,0.6,1,0.9,1.5,0.8
		c0.6-0.1,1-0.4,1.3-1c0.3-0.8,0.4-1.8,0.3-3.1c-0.2-1.6-0.5-2.8-1-3.5c-0.2-0.3-0.4-0.6-0.4-0.8c0-0.2,0-0.3,0.1-0.4
		c0.1-0.1,0.3-0.1,0.6-0.2c0.8-0.1,1.3,0.7,1.7,2.2c0.1,0.4,0.2,0.9,0.2,1.3c0.1,1.1,0,2.3-0.3,3.5c-0.5,1.6-1.4,2.5-2.8,2.6
		c-0.7,0.1-1.4-0.1-1.9-0.6c-1.1-0.9-1.7-2.4-1.9-4.5c-0.1-0.9-0.1-1.6,0-2.1c0.1-0.5,0.2-0.8,0.2-1c0.1-0.2,0.2-0.3,0.3-0.4
		s0.2-0.2,0.4-0.2C177.8,37.9,178,38,178.2,38z"/>
	<path style="fill:#595959;" d="M185.4,38.3c-0.6,0.1-1,0-1.2-0.3c0-0.2,0-0.4,0.2-0.5c0.2-0.1,0.3-0.2,0.5-0.3
		c0.2-0.1,0.5-0.1,1-0.2c0-0.3,0-0.8-0.1-1.3c0-0.5-0.1-1-0.1-1.4c-0.1-1,0-1.6,0.3-1.9c0.1-0.1,0.2-0.2,0.4-0.2c0.1,0,0.2,0,0.4,0
		c0.1,0.9,0.2,1.4,0.2,1.6l0.2,2.8c0,0,0.1,0,0.2,0l1.3-0.2c1-0.1,1.5,0,1.5,0.3c0,0.4-0.1,0.7-0.5,0.8c-0.2,0.1-0.3,0.1-0.6,0.1
		c-0.2,0-0.5,0-0.9,0s-0.6,0-0.8,0c-0.1,0-0.2,0-0.3,0c0,0.4,0,0.7,0,1.1c0,0.4,0.1,0.8,0.2,1.3c0.1,0.5,0.2,1.2,0.3,1.9
		c0.2,0.7,0.4,1.4,0.7,1.9c0.3,0.5,0.7,0.7,1.1,0.7c0.2,0,0.5-0.1,0.7-0.3c0.3-0.2,0.5-0.3,0.6-0.3c0.2,0,0.3,0,0.4,0.1
		c0.1,0.1,0.2,0.1,0.2,0.2c0,0.3-0.2,0.5-0.7,0.8c-0.5,0.3-1,0.5-1.3,0.5c-1.4,0.1-2.4-1.1-3-3.7c-0.2-0.7-0.4-2-0.6-3.9
		C185.8,38.2,185.6,38.3,185.4,38.3z"/>
	<path style="fill:#595959;" d="M192.9,31.5c0,0.3,0,0.6,0.1,1c0,0.4,0.1,0.7,0.2,1.1c-0.2,0.2-0.4,0.3-0.7,0.4
		c-0.4,0-0.6-0.2-0.7-0.8c0,0,0-0.1,0-0.3c0-0.2,0-0.3,0-0.4c0-0.1,0-0.3,0-0.5c0.1-0.3,0.2-0.5,0.5-0.5
		C192.6,31.4,192.8,31.4,192.9,31.5z M192.6,40.9c-0.2-2.5-0.3-3.9,0-4.3c0.1-0.1,0.2-0.2,0.3-0.2c0.1,0,0.3,0,0.6,0.1
		c0,1.1,0.1,2.2,0.2,3.5l0.4,4.2c0,0.4,0,0.7-0.2,0.8c-0.2,0.2-0.3,0.3-0.4,0.3s-0.3,0-0.5-0.1C192.8,43.6,192.7,42.1,192.6,40.9z"
		/>
	<path style="fill:#595959;" d="M196.2,33.8c-0.1-1.2-0.4-2.1-0.8-2.5c0.1-0.3,0.4-0.4,0.8-0.4c0.1,0,0.2,0,0.2,0
		c0.3,0.3,0.6,1.2,0.7,2.7c0.1,0.8,0.1,1.8,0.2,2.9c0,1.9,0.1,3.3,0.2,4.2c0.2,2.4,0.8,3.5,1.7,3.4l0.7-0.2c0.1,0,0.2,0,0.3,0.1
		c0,0.5-0.3,0.7-1,0.8c-0.7,0.1-1.3-0.1-1.7-0.5c-0.4-0.4-0.7-0.9-0.9-1.5c-0.2-0.6-0.3-1.1-0.3-1.6s-0.1-0.9-0.1-1.4
		c0-0.5,0-1.2,0-2.2C196.2,35.8,196.2,34.5,196.2,33.8z"/>
	<path style="fill:#595959;" d="M201.1,30.7c0,0.3,0,0.6,0.1,1c0,0.4,0.1,0.7,0.2,1.1c-0.2,0.2-0.4,0.3-0.7,0.4
		c-0.4,0-0.6-0.2-0.7-0.8c0,0,0-0.1,0-0.3c0-0.2,0-0.3,0-0.4c0-0.1,0-0.3,0-0.5c0.1-0.3,0.2-0.5,0.5-0.5
		C200.8,30.6,201,30.6,201.1,30.7z M200.8,40.1c-0.2-2.5-0.3-3.9,0-4.3c0.1-0.1,0.2-0.2,0.3-0.2c0.1,0,0.3,0,0.6,0.1
		c0,1.1,0.1,2.2,0.2,3.5l0.4,4.2c0,0.4,0,0.7-0.2,0.8s-0.3,0.3-0.4,0.3c-0.1,0-0.3,0-0.5-0.1C201.1,42.8,200.9,41.3,200.8,40.1z"/>
	<path style="fill:#595959;" d="M208.9,36.3c-0.1-0.3-0.4-0.5-0.7-0.6c-0.3-0.1-0.7-0.2-1.2-0.1c-0.5,0-0.9,0.2-1.3,0.5
		c-0.4,0.3-0.5,0.7-0.5,1.2s0.3,0.8,0.7,1c0.4,0.2,0.9,0.4,1.5,0.5c0.6,0.1,1.1,0.2,1.7,0.3c0.6,0.1,1.1,0.3,1.5,0.6
		c0.4,0.3,0.7,0.8,0.7,1.3c0.1,0.8-0.2,1.5-0.9,2c-0.7,0.5-1.5,0.8-2.4,0.9c-0.6,0.1-1.3,0-2.3-0.2c-1-0.2-1.5-0.6-1.5-1
		c0-0.3,0.2-0.5,0.8-0.6c0.2,0,0.4,0.1,0.7,0.2c0.9,0.5,1.7,0.7,2.6,0.6c0.5,0,0.8-0.2,1.1-0.3c0.6-0.3,0.8-0.8,0.8-1.5
		c0-0.4-0.3-0.7-0.7-0.9c-0.4-0.2-0.9-0.3-1.4-0.4c-0.6-0.1-1.1-0.2-1.7-0.3c-0.6-0.1-1.1-0.3-1.5-0.7c-0.4-0.3-0.7-0.8-0.7-1.4
		c-0.1-0.8,0.2-1.4,0.9-2c0.6-0.5,1.5-0.9,2.5-1c0.7-0.1,1.3,0.1,1.9,0.4c0.6,0.3,0.9,0.8,1,1.5c0,0.5-0.2,0.7-0.7,0.8
		c-0.2,0-0.4,0-0.4-0.1c-0.1-0.1-0.1-0.2-0.2-0.4C208.9,36.6,208.9,36.4,208.9,36.3z"/>
	<path style="fill:#595959;" d="M213.7,39.6c0,0.3,0,0.4,0,0.5c0.1,0.8,0.4,1.3,0.9,1.7c0.5,0.4,1.1,0.5,1.7,0.5s1.1-0.2,1.5-0.4
		c0.4-0.2,0.6-0.4,0.8-0.6c0.4-0.6,0.8-0.9,1.2-1c0.1,0,0.3,0,0.5,0.1c-0.1,0.6-0.5,1.2-1.3,1.8c-0.8,0.6-1.8,0.9-3,1.1
		c-0.9,0.1-1.7-0.1-2.3-0.6c-0.7-0.5-1.1-1.2-1.2-2.2s0-1.9,0.3-2.9c0.3-0.9,0.8-1.8,1.4-2.5c0.7-0.7,1.4-1.1,2.1-1.2s1.4,0,1.9,0.3
		c0.5,0.3,0.8,0.7,0.8,1.3c0.1,1.1-0.3,2-1.2,2.8c-0.9,0.8-1.9,1.3-3,1.4C214.4,39.6,214.1,39.6,213.7,39.6z M215,38.9
		c0.6-0.1,1.1-0.3,1.5-0.7c0.4-0.4,0.7-0.8,0.9-1.3c0.2-0.4,0.2-0.8,0.2-1.2c0-0.3-0.2-0.6-0.5-0.9c-0.3-0.2-0.6-0.3-1-0.3
		c-0.6,0.1-1.2,0.6-1.6,1.5c-0.4,0.9-0.7,1.9-0.9,2.8C214.2,38.9,214.7,38.9,215,38.9z"/>
	<path style="fill:#595959;" d="M225.8,30.9c-0.1-1.2-0.4-2.1-0.8-2.5c0.1-0.3,0.4-0.4,0.8-0.4c0.1,0,0.2,0,0.2,0
		c0.3,0.3,0.6,1.2,0.7,2.7c0.1,0.8,0.1,1.8,0.2,2.9c0,1.9,0.1,3.3,0.2,4.2c0.2,2.4,0.8,3.5,1.7,3.4l0.7-0.2c0.1,0,0.2,0,0.3,0.1
		c0,0.5-0.3,0.7-1,0.8c-0.7,0.1-1.3-0.1-1.7-0.5c-0.4-0.4-0.7-0.9-0.9-1.5c-0.2-0.6-0.3-1.1-0.3-1.6s-0.1-0.9-0.1-1.4
		c0-0.5,0-1.2,0-2.2C225.8,32.9,225.8,31.6,225.8,30.9z"/>
	<path style="fill:#595959;" d="M231.3,37.9c0,0.3,0,0.4,0,0.5c0.1,0.8,0.4,1.3,0.9,1.7c0.5,0.4,1.1,0.5,1.7,0.5
		c0.6-0.1,1.1-0.2,1.5-0.4c0.4-0.2,0.6-0.4,0.8-0.6c0.4-0.6,0.8-0.9,1.2-1c0.1,0,0.3,0,0.5,0.1c-0.1,0.6-0.5,1.2-1.3,1.8
		c-0.8,0.6-1.8,0.9-3,1.1c-0.9,0.1-1.7-0.1-2.3-0.6c-0.7-0.5-1.1-1.2-1.2-2.2c-0.1-1,0-1.9,0.3-2.9c0.3-0.9,0.8-1.8,1.4-2.5
		c0.7-0.7,1.4-1.1,2.1-1.2c0.7-0.1,1.4,0,1.9,0.3c0.5,0.3,0.8,0.7,0.8,1.3c0.1,1.1-0.3,2-1.2,2.8c-0.9,0.8-1.9,1.3-3,1.4
		C232.1,37.9,231.7,37.9,231.3,37.9z M232.7,37.1c0.6-0.1,1.1-0.3,1.5-0.7c0.4-0.4,0.7-0.8,0.9-1.3s0.2-0.8,0.2-1.2
		c0-0.3-0.2-0.6-0.5-0.9c-0.3-0.2-0.6-0.3-1-0.3c-0.6,0.1-1.2,0.6-1.6,1.5c-0.4,0.9-0.7,1.9-0.9,2.8
		C231.9,37.2,232.3,37.2,232.7,37.1z"/>
	<path style="fill:#595959;" d="M247.9,32.5c-0.1-0.3-0.4-0.5-0.7-0.6c-0.3-0.1-0.7-0.2-1.2-0.1c-0.5,0-0.9,0.2-1.3,0.5
		c-0.4,0.3-0.5,0.7-0.5,1.2c0,0.5,0.3,0.8,0.7,1c0.4,0.2,0.9,0.4,1.5,0.5c0.6,0.1,1.1,0.2,1.7,0.3c0.6,0.1,1.1,0.3,1.5,0.6
		c0.4,0.3,0.7,0.8,0.7,1.3c0.1,0.8-0.2,1.5-0.9,2c-0.7,0.5-1.5,0.8-2.4,0.9c-0.6,0.1-1.3,0-2.3-0.2c-1-0.2-1.5-0.6-1.5-1
		c0-0.3,0.2-0.5,0.8-0.6c0.2,0,0.4,0.1,0.7,0.2c0.9,0.5,1.7,0.7,2.6,0.6c0.5,0,0.8-0.2,1.1-0.3c0.6-0.3,0.8-0.8,0.8-1.5
		c0-0.4-0.3-0.7-0.7-0.9c-0.4-0.2-0.9-0.3-1.4-0.4c-0.6-0.1-1.1-0.2-1.7-0.3c-0.6-0.1-1.1-0.3-1.5-0.7c-0.4-0.3-0.7-0.8-0.7-1.4
		c-0.1-0.8,0.2-1.4,0.9-2c0.6-0.5,1.5-0.9,2.5-1c0.7-0.1,1.3,0.1,1.9,0.4c0.6,0.3,0.9,0.8,1,1.5c0,0.5-0.2,0.7-0.7,0.8
		c-0.2,0-0.4,0-0.4-0.1c-0.1-0.1-0.1-0.2-0.2-0.4S247.9,32.6,247.9,32.5z"/>
	<path style="fill:#595959;" d="M257.7,32.1c-0.2,0.3-0.4,0.4-0.7,0.4c-0.2,0-0.4-0.1-0.6-0.3c-0.2-0.2-0.3-0.4-0.4-0.6
		c-0.1-0.2-0.3-0.4-0.5-0.6c-0.3-0.2-0.6-0.3-0.9-0.2c-0.5,0.1-0.9,0.5-1.2,1.2c-0.3,0.7-0.6,1.4-0.7,2.2c-0.1,0.8-0.1,1.5-0.1,2.2
		c0.1,0.7,0.3,1.3,0.7,1.7c0.4,0.5,1,0.7,1.6,0.6c0.8-0.1,1.3-0.4,1.7-1c0.2-0.2,0.3-0.5,0.5-0.7c0.4-0.6,0.7-0.9,1-0.9
		c0.1,0,0.3,0,0.5,0c0,0.5-0.3,1.1-1.1,2c-0.8,0.8-1.7,1.3-2.6,1.4c-1,0.1-1.8-0.1-2.4-0.7c-0.6-0.6-1-1.4-1.1-2.4
		c-0.1-1.3,0.1-2.6,0.6-4c0.3-0.7,0.6-1.2,1.1-1.7c0.5-0.5,1.1-0.7,1.7-0.8s1.2,0.1,1.7,0.5C256.9,30.9,257.4,31.4,257.7,32.1z"/>
	<path style="fill:#595959;" d="M265.9,32.9l0.1,2.2c0.1,1.1,0.3,1.8,0.6,2.2c0.2,0.2,0.4,0.3,0.7,0.3c0.1,0,0.2,0,0.3-0.1
		c0.3-0.1,0.5-0.1,0.7,0c0,0.4-0.5,0.7-1.3,0.8c-0.5,0.1-0.9-0.1-1.1-0.6c-0.2-0.3-0.3-0.7-0.4-1.2c-0.1-0.5-0.2-0.8-0.3-1
		c-0.7,1.6-1.4,2.7-2.1,3.1c-0.4,0.2-0.8,0.3-1.3,0.4c-0.5,0.1-0.9-0.2-1.3-0.6c-0.3-0.5-0.5-1.2-0.6-2.1s0-2,0.2-3
		c0.2-1.1,0.6-2,1.1-2.8c0.5-0.8,1.2-1.2,1.9-1.3c1-0.1,1.8,0.3,2.2,1.1C265.5,30.8,265.8,31.8,265.9,32.9z M261.2,32.7
		c-0.1,0.7-0.2,1.4-0.2,2c0,0.6,0,1.2,0,1.6c0,0.5,0.2,0.9,0.4,1.2c0.2,0.3,0.5,0.5,0.8,0.4c0.7-0.1,1.3-0.8,1.8-2.1
		c0.5-1.3,0.7-2.6,0.6-3.7c-0.1-0.7-0.3-1.3-0.7-1.7c-0.3-0.3-0.6-0.4-1-0.4c-0.4,0-0.8,0.3-1,0.8C261.5,31.4,261.3,32,261.2,32.7z"
		/>
	<path style="fill:#595959;" d="M276.6,36.8c-0.2,0.3-0.4,0.4-0.7,0.4c-0.5,0.1-1-0.2-1.3-0.7c-0.3-0.6-0.5-1.2-0.7-2.1
		c-0.1-0.8-0.2-1.6-0.3-2.5c-0.1-0.8-0.2-1.5-0.4-2.1c-0.2-0.6-0.4-0.8-0.8-0.8c-0.4,0-0.8,0.5-1,1.3s-0.4,1.7-0.4,2.7
		c-0.1,2.7-0.3,4.3-0.6,4.6c-0.2,0.1-0.4,0.2-0.6,0.2c-0.2,0-0.3,0-0.4,0c-0.4-1.1-0.7-3.1-1.1-5.9c-0.2-1.4-0.3-2.3-0.3-2.7
		c0.2-0.2,0.5-0.3,0.7-0.3c0.2,0,0.3,0,0.5,0c0.1,0.5,0.3,1.6,0.4,3.3c0.2,1.7,0.3,2.6,0.3,2.9c0-0.3,0.1-0.7,0.1-1.3
		c0-0.6,0.1-1.1,0.1-1.5c0-0.4,0.1-0.9,0.2-1.4c0.1-0.5,0.3-1,0.4-1.3c0.2-0.3,0.4-0.6,0.8-0.9c0.3-0.3,0.7-0.4,1.2-0.4
		c0.6-0.1,1,0.2,1.4,0.7c0.3,0.5,0.5,1.2,0.6,1.9s0.2,1.6,0.3,2.4c0.1,0.8,0.3,1.6,0.5,2.2C275.7,36.2,276.1,36.6,276.6,36.8z"/>
	<path style="fill:#595959;" d="M285.6,35.9c-0.2,0.3-0.4,0.4-0.7,0.4c-0.5,0.1-1-0.2-1.3-0.7c-0.3-0.6-0.5-1.2-0.7-2.1
		c-0.1-0.8-0.2-1.6-0.3-2.5s-0.2-1.5-0.4-2.1c-0.2-0.6-0.4-0.8-0.8-0.8c-0.4,0-0.8,0.5-1,1.3c-0.2,0.8-0.4,1.7-0.4,2.7
		c-0.1,2.7-0.3,4.3-0.6,4.6c-0.2,0.1-0.4,0.2-0.6,0.2c-0.2,0-0.3,0-0.4,0c-0.4-1.1-0.7-3.1-1.1-5.9c-0.2-1.4-0.3-2.3-0.3-2.7
		c0.2-0.2,0.5-0.3,0.7-0.3c0.2,0,0.3,0,0.5,0c0.1,0.5,0.3,1.6,0.4,3.3c0.2,1.7,0.3,2.6,0.3,2.9c0-0.3,0.1-0.7,0.1-1.3
		c0-0.6,0.1-1.1,0.1-1.5c0-0.4,0.1-0.9,0.2-1.4c0.1-0.5,0.3-1,0.4-1.3c0.2-0.3,0.4-0.6,0.8-0.9c0.3-0.3,0.7-0.4,1.2-0.4
		c0.6-0.1,1,0.2,1.4,0.7c0.3,0.5,0.5,1.2,0.6,1.9s0.2,1.6,0.3,2.4c0.1,0.8,0.3,1.6,0.5,2.2C284.7,35.4,285.1,35.8,285.6,35.9z"/>
	<path style="fill:#595959;" d="M287.4,32.4c0,0.3,0,0.4,0,0.5c0.1,0.8,0.4,1.3,0.9,1.7c0.5,0.4,1.1,0.5,1.7,0.5
		c0.6-0.1,1.1-0.2,1.5-0.4c0.4-0.2,0.6-0.4,0.8-0.6c0.4-0.6,0.8-0.9,1.2-1c0.1,0,0.3,0,0.5,0.1c-0.1,0.6-0.5,1.2-1.3,1.8
		c-0.8,0.6-1.8,0.9-3,1.1c-0.9,0.1-1.7-0.1-2.3-0.6c-0.7-0.5-1.1-1.2-1.2-2.2c-0.1-1,0-1.9,0.3-2.9c0.3-0.9,0.8-1.8,1.4-2.5
		c0.7-0.7,1.4-1.1,2.1-1.2c0.7-0.1,1.4,0,1.9,0.3c0.5,0.3,0.8,0.7,0.8,1.3c0.1,1.1-0.3,2-1.2,2.8s-1.9,1.3-3,1.4
		C288.2,32.4,287.8,32.4,287.4,32.4z M288.8,31.7c0.6-0.1,1.1-0.3,1.5-0.7c0.4-0.4,0.7-0.8,0.9-1.3c0.2-0.4,0.2-0.8,0.2-1.2
		c0-0.3-0.2-0.6-0.5-0.9c-0.3-0.2-0.6-0.3-1-0.3c-0.6,0.1-1.2,0.6-1.6,1.5c-0.4,0.9-0.7,1.9-0.9,2.8C288,31.7,288.5,31.7,288.8,31.7
		z"/>
	<path style="fill:#595959;" d="M297.4,33.4l0.2,1.1c0,0.3,0,0.5-0.2,0.6c-0.1,0.1-0.3,0.2-0.5,0.2c-0.2,0-0.3,0-0.5,0
		c-0.4-1.4-0.8-3.2-1.2-5.4c-0.4-2.2-0.6-3.4-0.6-3.7c0.2-0.2,0.4-0.3,0.6-0.3c0.2,0,0.4,0,0.6,0c0.1,0.4,0.2,1.2,0.3,2.4
		s0.3,2,0.3,2.3c0.1-1.1,0.3-2.1,0.7-3c0.2-0.5,0.5-1,0.9-1.3c0.4-0.3,0.8-0.5,1.3-0.6s0.9,0.1,1.4,0.5c0.4,0.4,0.7,0.7,0.7,1.1
		c0,0.1-0.1,0.2-0.2,0.3c-0.1,0.1-0.3,0.1-0.5,0.2s-0.3,0-0.4-0.2c-0.1-0.1-0.2-0.3-0.3-0.4c-0.1-0.2-0.2-0.3-0.3-0.4
		c-0.1-0.1-0.3-0.2-0.5-0.2c-0.6,0.1-1,0.6-1.3,1.7C297.4,29.8,297.2,31.5,297.4,33.4z"/>
	<path style="fill:#595959;" d="M313.1,18.6c-0.1,4.4,0,7.5,0.2,9.3c0.2,1.8,0.5,3.7,1,5.5c-0.2,0.3-0.4,0.4-0.6,0.4
		c-0.2,0-0.3,0-0.5,0c-0.4-0.9-0.6-1.9-0.8-3c-0.3,0.5-0.4,0.9-0.6,1.1c-0.1,0.2-0.3,0.5-0.7,1c-0.6,0.8-1.3,1.3-2.2,1.4
		c-0.7,0.1-1.2-0.2-1.5-0.8s-0.6-1.4-0.7-2.3c-0.1-1-0.1-1.9,0.1-2.8c0.1-0.9,0.4-1.7,0.9-2.4c0.5-0.7,1.1-1.1,1.9-1.2
		c0.5,0,0.9,0,1.3,0.2c0.4,0.2,0.7,0.4,0.9,0.7c0-0.3,0-0.9-0.1-1.6c0-0.7-0.1-1.3-0.1-1.9c0-0.6,0-1.1,0-1.7c0-1.2,0.3-1.9,0.7-1.9
		C312.7,18.5,312.9,18.5,313.1,18.6z M311.6,26.2c-0.2-0.3-0.4-0.4-0.7-0.5c-0.3-0.1-0.6-0.1-1.1-0.1c-0.4,0-0.8,0.3-1.1,0.9
		c-0.6,1-0.9,2.5-0.7,4.3c0.1,0.6,0.2,1.2,0.5,1.7c0.2,0.6,0.5,0.8,0.9,0.8c0.5-0.1,1-0.4,1.4-1.2c0.4-0.7,0.7-1.6,0.9-2.5
		c0.2-0.9,0.2-1.7,0.2-2.5C311.9,26.8,311.8,26.5,311.6,26.2z"/>
	<path style="fill:#595959;" d="M317,29.5c0,0.3,0,0.4,0,0.5c0.1,0.8,0.4,1.3,0.9,1.7c0.5,0.4,1.1,0.5,1.7,0.5
		c0.6-0.1,1.1-0.2,1.5-0.4c0.4-0.2,0.6-0.4,0.8-0.6c0.4-0.6,0.8-0.9,1.2-1c0.1,0,0.3,0,0.5,0.1c-0.1,0.6-0.5,1.2-1.3,1.8
		c-0.8,0.6-1.8,0.9-3,1.1c-0.9,0.1-1.7-0.1-2.3-0.6c-0.7-0.5-1.1-1.2-1.2-2.2c-0.1-1,0-1.9,0.3-2.9c0.3-0.9,0.8-1.8,1.4-2.5
		c0.7-0.7,1.4-1.1,2.1-1.2c0.7-0.1,1.4,0,1.9,0.3c0.5,0.3,0.8,0.7,0.8,1.3c0.1,1.1-0.3,2-1.2,2.8c-0.9,0.8-1.9,1.3-3,1.4
		C317.7,29.6,317.4,29.6,317,29.5z M318.3,28.8c0.6-0.1,1.1-0.3,1.5-0.7c0.4-0.4,0.7-0.8,0.9-1.3c0.2-0.4,0.2-0.8,0.2-1.2
		c0-0.3-0.2-0.6-0.5-0.9c-0.3-0.2-0.6-0.3-1-0.3c-0.6,0.1-1.2,0.6-1.6,1.5c-0.4,0.9-0.7,1.9-0.9,2.8C317.5,28.8,318,28.8,318.3,28.8
		z"/>
	<path style="fill:#595959;" d="M341.4,23.5c0.2,2.5-0.3,4.6-1.7,6c0.3,0.3,0.6,0.5,0.8,0.7c0.1,0.1,0.3,0.2,0.6,0.3
		c0.3,0.1,0.5,0.2,0.7,0.3c0.1,0.1,0.2,0.3,0.2,0.5c-0.1,0.1-0.3,0.1-0.5,0.1c-0.2,0-0.5,0-0.9-0.2c-0.4-0.1-0.7-0.3-1-0.6l-0.6-0.5
		c-1,0.7-2.2,1.2-3.7,1.3c-1.8,0.2-3.3-0.2-4.5-1.3c-1.2-1-1.8-2.4-2-4c-0.1-1.2,0-2.4,0.3-3.5c0.3-1.2,0.9-2.2,1.7-3
		c0.8-0.8,1.8-1.3,2.9-1.4c1.8-0.2,3.5,0.2,5,1c0.7,0.4,1.4,1,1.9,1.7S341.3,22.6,341.4,23.5z M338.2,28.2l0.7,0.7
		c1-1.1,1.4-2.7,1.2-4.6c-0.2-1.9-0.8-3.2-2-4c-1.1-0.8-2.6-1.1-4.3-0.9c-0.8,0.1-1.5,0.5-2.1,1.2c-0.6,0.7-1.1,1.5-1.4,2.5
		c-0.3,1-0.4,1.8-0.3,2.6s0.2,1.5,0.5,2.1c0.2,0.6,0.5,1.1,0.9,1.6c0.4,0.5,0.9,0.8,1.6,1.1c0.7,0.2,1.5,0.3,2.5,0.2
		c1-0.1,1.8-0.4,2.6-0.9c-1.2-1-1.9-1.6-2.1-1.8c-0.2-0.2-0.3-0.4-0.5-0.7c0.1-0.1,0.3-0.2,0.4-0.2
		C336.5,26.9,337.3,27.3,338.2,28.2z"/>
	<path style="fill:#595959;" d="M345.6,27l0.3,2.8c0,0.4,0,0.7-0.2,0.8c-0.2,0.2-0.3,0.2-0.5,0.3c-0.2,0-0.3,0-0.4,0
		c-0.3-1.3-0.5-2.6-0.6-3.9c-0.1-1.3-0.2-2.7-0.3-4.4c-0.1-1.6-0.2-2.9-0.2-3.9c-0.1-1,1.2-1.6,3.9-1.9c1.4-0.1,2.8,0,4.1,0.5
		c0.7,0.2,1.3,0.6,1.7,1.1c0.5,0.5,0.7,1.1,0.8,1.8s0,1.3-0.3,1.9c-0.2,0.6-0.6,1.1-1,1.5c-0.4,0.4-0.9,0.8-1.5,1.1
		c-0.9,0.5-2,1-3.2,1.2c0.6,0.3,1.7,1,3.2,2.2c0.4,0.4,1,0.6,1.6,0.9c0.6,0.2,1.3,0.3,1.9,0.3c0.1,0,0.2,0,0.4-0.1
		c0.2,0,0.4-0.1,0.5-0.1c0.1,0,0.3,0,0.4,0c0.1,0.1,0.2,0.2,0.2,0.4c0,0.4-0.5,0.7-1.5,0.8c-1.2,0.1-2.5-0.2-3.8-1.1
		c-0.6-0.3-1.1-0.7-1.7-1.1c-1.4-0.9-2.6-1.5-3.8-1.7C345.6,26.4,345.6,26.7,345.6,27z M352.8,20.6c-0.1-1.1-0.7-1.8-1.7-2.2
		c-1-0.4-2.2-0.6-3.7-0.4c-0.9,0.1-1.8,0.3-2.5,0.6c0.1,1,0.2,2.1,0.2,3.3c0.1,1.2,0.1,2.1,0.1,2.5c0,0.5,0.1,0.8,0.1,1
		c1.8-0.3,3.3-0.7,4.2-1.1c1.1-0.4,1.8-0.9,2.3-1.4C352.6,22.1,352.9,21.4,352.8,20.6z"/>
	<path style="fill:#595959;" d="M367.2,21.4c-0.2,0.3-0.4,0.4-0.7,0.4c-0.2,0-0.4-0.1-0.6-0.3c-0.2-0.2-0.3-0.4-0.4-0.6
		c-0.1-0.2-0.3-0.4-0.5-0.6c-0.3-0.2-0.6-0.3-0.9-0.2c-0.5,0.1-0.9,0.5-1.2,1.2c-0.3,0.7-0.6,1.4-0.7,2.2c-0.1,0.8-0.1,1.5-0.1,2.2
		s0.3,1.3,0.7,1.7c0.4,0.5,1,0.7,1.6,0.6c0.8-0.1,1.3-0.4,1.7-1c0.2-0.2,0.3-0.5,0.5-0.7c0.3-0.6,0.7-0.9,1-0.9c0.1,0,0.3,0,0.5,0
		c0,0.5-0.3,1.1-1.1,2s-1.7,1.3-2.6,1.4s-1.8-0.1-2.4-0.7c-0.6-0.6-1-1.4-1.1-2.4c-0.1-1.3,0.1-2.6,0.6-4c0.3-0.7,0.6-1.2,1.1-1.7
		c0.5-0.5,1.1-0.7,1.7-0.8c0.7-0.1,1.2,0.1,1.7,0.5C366.4,20.2,366.8,20.7,367.2,21.4z"/>
	<path style="fill:#595959;" d="M369.8,20.4c0.5-1,1.4-1.6,2.6-1.7c1.2-0.1,2.2,0.3,3,1.2c0.8,0.9,1.3,2,1.4,3.2
		c0.1,1.2-0.2,2.3-0.9,3.3c-0.7,0.9-1.7,1.5-2.9,1.6s-2.1-0.1-2.8-0.8c-0.6-0.6-1-1.6-1.1-2.8C369.1,22.7,369.3,21.4,369.8,20.4z
		 M370.7,21.3c-0.1,0.5-0.2,1-0.2,1.5c0,0.5,0,1,0,1.4c0,0.4,0.1,0.8,0.2,1.1c0.1,0.3,0.2,0.7,0.4,1c0.2,0.3,0.4,0.6,0.8,0.7
		c0.3,0.2,0.7,0.2,1.1,0.2c0.8-0.1,1.5-0.5,2-1.2c0.5-0.7,0.7-1.6,0.6-2.6c-0.1-1-0.4-1.9-1.1-2.8c-0.6-0.9-1.3-1.3-2-1.2
		c-0.5,0-0.8,0.2-1.1,0.6C371.1,20.3,370.9,20.7,370.7,21.3z"/>
	<path style="fill:#595959;" d="M384.8,11.6c-0.1,4.4,0,7.5,0.2,9.3c0.2,1.8,0.5,3.7,1,5.5c-0.2,0.3-0.4,0.4-0.6,0.4
		c-0.2,0-0.3,0-0.5,0c-0.4-0.9-0.6-1.9-0.8-3c-0.3,0.5-0.4,0.9-0.6,1.1c-0.1,0.2-0.3,0.5-0.7,1c-0.6,0.8-1.3,1.3-2.2,1.4
		c-0.7,0.1-1.2-0.2-1.5-0.8c-0.4-0.6-0.6-1.4-0.7-2.3c-0.1-1-0.1-1.9,0.1-2.8c0.1-0.9,0.4-1.7,0.9-2.4c0.5-0.7,1.1-1.1,1.9-1.2
		c0.5,0,0.9,0,1.3,0.2c0.4,0.2,0.7,0.4,0.9,0.7c0-0.3,0-0.9-0.1-1.6c0-0.7-0.1-1.3-0.1-1.9c0-0.5,0-1.1,0-1.7c0-1.2,0.3-1.9,0.7-1.9
		C384.4,11.5,384.6,11.5,384.8,11.6z M383.3,19.2c-0.2-0.3-0.4-0.4-0.7-0.5c-0.3-0.1-0.6-0.1-1.1-0.1c-0.4,0-0.8,0.3-1.1,0.9
		c-0.6,1-0.9,2.5-0.7,4.3c0.1,0.6,0.2,1.2,0.5,1.7c0.2,0.6,0.5,0.8,0.9,0.8c0.5-0.1,1-0.4,1.4-1.2c0.4-0.7,0.7-1.6,0.9-2.5
		c0.2-0.9,0.2-1.7,0.2-2.5C383.6,19.8,383.5,19.5,383.3,19.2z"/>
	<path style="fill:#595959;" d="M388.6,22.5c0,0.3,0,0.4,0,0.5c0.1,0.8,0.4,1.3,0.9,1.7c0.5,0.4,1.1,0.5,1.7,0.5
		c0.6-0.1,1.1-0.2,1.5-0.4c0.4-0.2,0.6-0.4,0.8-0.6c0.4-0.6,0.8-0.9,1.2-1c0.1,0,0.3,0,0.5,0.1c-0.1,0.6-0.5,1.2-1.3,1.8
		c-0.8,0.6-1.8,0.9-3,1.1c-0.9,0.1-1.7-0.1-2.3-0.6c-0.7-0.5-1.1-1.2-1.2-2.2c-0.1-1,0-1.9,0.3-2.9c0.3-0.9,0.8-1.8,1.4-2.5
		c0.7-0.7,1.4-1.1,2.1-1.2c0.7-0.1,1.4,0,1.9,0.3c0.5,0.3,0.8,0.7,0.8,1.3c0.1,1.1-0.3,2-1.2,2.8c-0.9,0.8-1.9,1.3-3,1.4
		C389.4,22.6,389.1,22.6,388.6,22.5z M390,21.8c0.6-0.1,1.1-0.3,1.5-0.7c0.4-0.4,0.7-0.8,0.9-1.3s0.2-0.8,0.2-1.2
		c0-0.3-0.2-0.6-0.5-0.9c-0.3-0.2-0.6-0.3-1-0.3c-0.6,0.1-1.2,0.6-1.6,1.5c-0.4,0.9-0.7,1.9-0.9,2.8C389.2,21.8,389.7,21.8,390,21.8
		z"/>
	<path style="fill:#595959;" d="M117.1,67.8c0.5-1,1.4-1.6,2.6-1.7c1.2-0.1,2.2,0.3,3,1.2s1.3,2,1.4,3.2s-0.2,2.3-0.9,3.3
		s-1.7,1.5-2.9,1.6s-2.1-0.1-2.8-0.8c-0.6-0.6-1-1.6-1.1-2.8C116.4,70.2,116.6,68.8,117.1,67.8z M118.1,68.7c-0.1,0.5-0.2,1-0.2,1.5
		c0,0.5,0,1,0,1.4c0,0.4,0.1,0.8,0.2,1.1c0.1,0.3,0.2,0.7,0.4,1c0.2,0.3,0.4,0.6,0.8,0.7c0.3,0.2,0.7,0.2,1.1,0.2
		c0.8-0.1,1.5-0.5,2-1.2c0.5-0.7,0.7-1.6,0.6-2.6c-0.1-1-0.4-1.9-1.1-2.8c-0.6-0.9-1.3-1.3-2-1.2c-0.5,0-0.8,0.2-1.1,0.6
		C118.4,67.8,118.2,68.2,118.1,68.7z"/>
	<path style="fill:#595959;" d="M127.2,65.8c-0.3,0.6-0.3,1.6-0.2,2.8c0.2,1.8,0.7,3.3,1.5,4.3c0.5,0.6,1,0.9,1.5,0.8
		c0.6-0.1,1-0.4,1.3-1c0.3-0.8,0.4-1.8,0.3-3.1c-0.2-1.6-0.5-2.8-1-3.5c-0.2-0.3-0.4-0.6-0.4-0.8c0-0.2,0-0.3,0.1-0.4
		c0.1-0.1,0.3-0.1,0.6-0.2c0.8-0.1,1.3,0.7,1.7,2.2c0.1,0.4,0.2,0.9,0.2,1.3c0.1,1.1,0,2.3-0.3,3.5c-0.5,1.6-1.4,2.5-2.8,2.6
		c-0.7,0.1-1.4-0.1-1.9-0.6c-1.1-0.9-1.7-2.4-1.9-4.5c-0.1-0.9-0.1-1.6,0-2.1c0.1-0.5,0.2-0.8,0.2-1c0.1-0.2,0.2-0.3,0.3-0.4
		c0.1-0.1,0.2-0.2,0.4-0.2C126.8,65.7,126.9,65.7,127.2,65.8z"/>
	<path style="fill:#595959;" d="M143.3,65.5c-0.1-0.3-0.4-0.5-0.7-0.6c-0.3-0.1-0.7-0.2-1.2-0.1c-0.5,0-0.9,0.2-1.3,0.5
		c-0.4,0.3-0.5,0.7-0.5,1.2c0,0.5,0.3,0.8,0.7,1c0.4,0.2,0.9,0.4,1.5,0.5c0.6,0.1,1.1,0.2,1.7,0.3c0.6,0.1,1.1,0.3,1.5,0.6
		c0.4,0.3,0.7,0.8,0.7,1.3c0.1,0.8-0.2,1.5-0.9,2s-1.5,0.8-2.4,0.9c-0.6,0.1-1.3,0-2.3-0.2c-1-0.2-1.5-0.6-1.5-1
		c0-0.3,0.2-0.5,0.8-0.6c0.2,0,0.4,0.1,0.7,0.2c0.9,0.5,1.7,0.7,2.6,0.6c0.5,0,0.8-0.2,1.1-0.3c0.6-0.3,0.8-0.8,0.8-1.5
		c0-0.4-0.3-0.7-0.7-0.9c-0.4-0.2-0.9-0.3-1.4-0.4c-0.6-0.1-1.1-0.2-1.7-0.3c-0.6-0.1-1.1-0.3-1.5-0.7c-0.4-0.3-0.7-0.8-0.7-1.4
		c-0.1-0.8,0.2-1.4,0.9-2c0.6-0.5,1.5-0.9,2.5-1c0.7-0.1,1.3,0.1,1.9,0.4c0.6,0.3,0.9,0.8,1,1.5c0,0.5-0.2,0.7-0.7,0.8
		c-0.2,0-0.4,0-0.4-0.1c-0.1-0.1-0.1-0.2-0.2-0.4C143.4,65.8,143.4,65.6,143.3,65.5z"/>
	<path style="fill:#595959;" d="M153,66.7l0.1,2.2c0.1,1.1,0.3,1.8,0.6,2.2c0.2,0.2,0.4,0.3,0.7,0.3c0.1,0,0.2,0,0.3-0.1
		c0.3-0.1,0.5-0.1,0.7,0c0,0.4-0.5,0.7-1.3,0.8c-0.5,0.1-0.9-0.1-1.1-0.6c-0.2-0.3-0.3-0.7-0.4-1.2c-0.1-0.5-0.2-0.8-0.3-1
		c-0.7,1.6-1.4,2.7-2.1,3.1c-0.4,0.2-0.8,0.3-1.3,0.4s-0.9-0.2-1.3-0.6c-0.3-0.5-0.5-1.2-0.6-2.1c-0.1-1,0-2,0.2-3
		c0.2-1.1,0.6-2,1.1-2.8s1.2-1.2,1.9-1.3c1-0.1,1.8,0.3,2.2,1.1C152.6,64.7,152.9,65.6,153,66.7z M148.3,66.6
		c-0.1,0.7-0.2,1.4-0.2,2c0,0.6,0,1.2,0,1.6s0.2,0.9,0.4,1.2c0.2,0.3,0.5,0.5,0.8,0.4c0.7-0.1,1.3-0.8,1.8-2.1
		c0.5-1.3,0.7-2.6,0.6-3.7c-0.1-0.7-0.3-1.3-0.7-1.7c-0.3-0.3-0.6-0.4-1-0.4s-0.8,0.3-1,0.8C148.6,65.3,148.4,65.9,148.3,66.6z"/>
	<path style="fill:#595959;" d="M156,57.9c0,0.3,0,0.6,0.1,1c0,0.4,0.1,0.7,0.2,1.1c-0.2,0.2-0.4,0.3-0.7,0.4
		c-0.4,0-0.6-0.2-0.7-0.8c0,0,0-0.1,0-0.3c0-0.2,0-0.3,0-0.4c0-0.1,0-0.3,0-0.5c0.1-0.3,0.2-0.5,0.5-0.5
		C155.7,57.8,155.9,57.8,156,57.9z M155.7,67.3c-0.2-2.5-0.3-3.9,0-4.3c0.1-0.1,0.2-0.2,0.3-0.2c0.1,0,0.3,0,0.6,0.1
		c0,1.1,0.1,2.2,0.2,3.5l0.4,4.2c0,0.4,0,0.7-0.2,0.8c-0.2,0.2-0.3,0.3-0.4,0.3s-0.3,0-0.5-0.1C156,69.9,155.8,68.5,155.7,67.3z"/>
	<path style="fill:#595959;" d="M163.8,63.5c-0.1-0.3-0.4-0.5-0.7-0.6c-0.3-0.1-0.7-0.2-1.2-0.1c-0.5,0-0.9,0.2-1.3,0.5
		c-0.4,0.3-0.5,0.7-0.5,1.2s0.3,0.8,0.7,1c0.4,0.2,0.9,0.4,1.5,0.5c0.6,0.1,1.1,0.2,1.7,0.3c0.6,0.1,1.1,0.3,1.5,0.6
		c0.4,0.3,0.7,0.8,0.7,1.3c0.1,0.8-0.2,1.5-0.9,2c-0.7,0.5-1.5,0.8-2.4,0.9c-0.6,0.1-1.3,0-2.3-0.2c-1-0.2-1.5-0.6-1.5-1
		c0-0.3,0.2-0.5,0.8-0.6c0.2,0,0.4,0.1,0.7,0.2c0.9,0.5,1.7,0.7,2.6,0.6c0.5,0,0.8-0.2,1.1-0.3c0.6-0.3,0.8-0.8,0.8-1.5
		c0-0.4-0.3-0.7-0.7-0.9c-0.4-0.2-0.9-0.3-1.4-0.4c-0.6-0.1-1.1-0.2-1.7-0.3c-0.6-0.1-1.1-0.3-1.5-0.7c-0.4-0.3-0.7-0.8-0.7-1.4
		c-0.1-0.8,0.2-1.4,0.9-2c0.6-0.5,1.5-0.9,2.5-1c0.7-0.1,1.3,0.1,1.9,0.4c0.6,0.3,0.9,0.8,1,1.5c0,0.5-0.2,0.7-0.7,0.8
		c-0.2,0-0.4,0-0.4-0.1c-0.1-0.1-0.1-0.2-0.2-0.4C163.8,63.8,163.8,63.6,163.8,63.5z"/>
	<path style="fill:#595959;" d="M168,56.7c0,0.3,0,0.6,0.1,1c0,0.4,0.1,0.7,0.2,1.1c-0.2,0.2-0.4,0.3-0.7,0.4
		c-0.4,0-0.6-0.2-0.7-0.8c0,0,0-0.1,0-0.3c0-0.2,0-0.3,0-0.4c0-0.1,0-0.3,0-0.5c0.1-0.3,0.2-0.5,0.5-0.5
		C167.7,56.6,167.9,56.6,168,56.7z M167.7,66.1c-0.2-2.5-0.3-3.9,0-4.3c0.1-0.1,0.2-0.2,0.3-0.2c0.1,0,0.3,0,0.6,0.1
		c0,1.1,0.1,2.2,0.2,3.5l0.4,4.2c0,0.4,0,0.7-0.2,0.8c-0.2,0.2-0.3,0.3-0.4,0.3c-0.1,0-0.3,0-0.5-0.1
		C167.9,68.8,167.8,67.3,167.7,66.1z"/>
	<path style="fill:#595959;" d="M175.5,58.6c-0.1-1.2-0.4-2.1-0.8-2.5c0.1-0.3,0.4-0.4,0.8-0.4c0.1,0,0.2,0,0.2,0
		c0.3,0.3,0.6,1.2,0.7,2.7c0.1,0.8,0.1,1.8,0.2,2.9c0,1.9,0.1,3.3,0.2,4.2c0.2,2.4,0.8,3.5,1.7,3.4l0.7-0.2c0.1,0,0.2,0,0.3,0.1
		c0,0.5-0.3,0.7-1,0.8s-1.3-0.1-1.7-0.5c-0.4-0.4-0.7-0.9-0.9-1.5c-0.2-0.6-0.3-1.1-0.3-1.6s-0.1-0.9-0.1-1.4c0-0.5,0-1.2,0-2.2
		C175.6,60.6,175.6,59.3,175.5,58.6z"/>
	<path style="fill:#595959;" d="M185.9,63.5l0.1,2.2c0.1,1.1,0.3,1.8,0.6,2.2c0.2,0.2,0.4,0.3,0.7,0.3c0.1,0,0.2,0,0.3-0.1
		c0.3-0.1,0.5-0.1,0.7,0c0,0.4-0.5,0.7-1.3,0.8c-0.5,0.1-0.9-0.1-1.1-0.6c-0.2-0.3-0.3-0.7-0.4-1.2c-0.1-0.5-0.2-0.8-0.3-1
		c-0.7,1.6-1.4,2.7-2.1,3.1c-0.4,0.2-0.8,0.3-1.3,0.4s-0.9-0.2-1.3-0.6c-0.3-0.5-0.5-1.2-0.6-2.1c-0.1-1,0-2,0.2-3
		c0.2-1.1,0.6-2,1.1-2.8c0.5-0.8,1.2-1.2,1.9-1.3c1-0.1,1.8,0.3,2.2,1.1C185.5,61.4,185.8,62.4,185.9,63.5z M181.2,63.3
		c-0.1,0.7-0.2,1.4-0.2,2c0,0.6,0,1.2,0,1.6s0.2,0.9,0.4,1.2c0.2,0.3,0.5,0.5,0.8,0.4c0.7-0.1,1.3-0.8,1.8-2.1
		c0.5-1.3,0.7-2.6,0.6-3.7c-0.1-0.7-0.3-1.3-0.7-1.7c-0.3-0.3-0.6-0.4-1-0.4c-0.4,0-0.8,0.3-1,0.8C181.5,62,181.3,62.6,181.2,63.3z"
		/>
	<path style="fill:#595959;" d="M194.8,66.2l0.2,1.1c0,0.3,0,0.5-0.2,0.6c-0.1,0.1-0.3,0.2-0.5,0.2c-0.2,0-0.3,0-0.5,0
		c-0.4-1.4-0.8-3.2-1.2-5.4c-0.4-2.2-0.6-3.4-0.6-3.7c0.2-0.2,0.4-0.3,0.6-0.3c0.2,0,0.4,0,0.6,0c0.1,0.4,0.2,1.2,0.3,2.4
		s0.3,2,0.3,2.3c0.1-1.1,0.3-2.1,0.7-3c0.2-0.5,0.5-1,0.9-1.3c0.4-0.3,0.8-0.5,1.3-0.6c0.5,0,0.9,0.1,1.4,0.5
		c0.4,0.4,0.7,0.7,0.7,1.1c0,0.1-0.1,0.2-0.2,0.3c-0.1,0.1-0.3,0.1-0.5,0.2c-0.2,0-0.3,0-0.4-0.2c-0.1-0.1-0.2-0.3-0.3-0.4
		c-0.1-0.2-0.2-0.3-0.3-0.4c-0.1-0.1-0.3-0.2-0.5-0.2c-0.6,0.1-1,0.6-1.3,1.7C194.8,62.6,194.7,64.3,194.8,66.2z"/>
	<path style="fill:#595959;" d="M201.3,63.6c0,0.3,0,0.4,0,0.5c0.1,0.8,0.4,1.3,0.9,1.7s1.1,0.5,1.7,0.5c0.6-0.1,1.1-0.2,1.5-0.4
		c0.4-0.2,0.6-0.4,0.8-0.6c0.4-0.6,0.8-0.9,1.2-1c0.1,0,0.3,0,0.5,0.1c-0.1,0.6-0.5,1.2-1.3,1.8c-0.8,0.6-1.8,0.9-3,1.1
		c-0.9,0.1-1.7-0.1-2.3-0.6c-0.7-0.5-1.1-1.2-1.2-2.2c-0.1-1,0-1.9,0.3-2.9c0.3-0.9,0.8-1.8,1.4-2.5c0.7-0.7,1.4-1.1,2.1-1.2
		c0.7-0.1,1.4,0,1.9,0.3c0.5,0.3,0.8,0.7,0.8,1.3c0.1,1.1-0.3,2-1.2,2.8c-0.9,0.8-1.9,1.3-3,1.4C202,63.6,201.7,63.7,201.3,63.6z
		 M202.6,55.2c0.8-0.6,1.3-1,1.4-1.1c0.2-0.1,0.3-0.2,0.5-0.2c0.2,0,0.4,0,0.6,0c0.2,0,0.3,0.1,0.4,0.2c0,0.1-0.1,0.2-0.2,0.3
		c-0.1,0.1-0.6,0.5-1.4,1.1c-0.8,0.6-1.4,1.1-1.8,1.5c-0.1,0.1-0.2,0.1-0.4,0.2c-0.2,0-0.4,0-0.6-0.1c-0.2-0.1-0.4-0.1-0.4-0.2
		c0,0,0-0.1,0.1-0.2C201.2,56.3,201.8,55.8,202.6,55.2z M202.6,62.9c0.6-0.1,1.1-0.3,1.5-0.7c0.4-0.4,0.7-0.8,0.9-1.3
		c0.2-0.4,0.2-0.8,0.2-1.2c0-0.3-0.2-0.6-0.5-0.9c-0.3-0.2-0.6-0.3-1-0.3c-0.6,0.1-1.2,0.6-1.6,1.5c-0.4,0.9-0.7,1.9-0.9,2.8
		C201.8,62.9,202.3,62.9,202.6,62.9z"/>
	<path style="fill:#595959;" d="M211,66.7c-0.2,0-0.5-1.9-0.9-5.7c-0.2-1.6-0.3-2.6-0.3-2.9l-0.4,0c-0.2,0-0.3,0-0.4,0
		c-0.1,0-0.2,0-0.4,0c-0.2,0-0.3,0-0.4,0c-0.1,0-0.2,0-0.3-0.1c-0.2-0.1-0.3-0.2-0.3-0.4c0-0.2,0.4-0.4,1.1-0.5
		c0.3,0,0.6-0.1,0.9-0.1c0-0.3,0-0.6-0.1-1c0-0.4-0.1-0.7-0.1-0.9c0-0.2,0-0.5,0-0.8c0-0.3,0-0.6,0-0.7c0-0.2,0.1-0.4,0.1-0.6
		s0.1-0.4,0.3-0.5c0.1-0.1,0.2-0.3,0.4-0.4c0.3-0.2,0.7-0.4,1.4-0.5c0.7-0.1,1.2,0.1,1.5,0.4s0.7,0.8,1,1.6
		c-0.2,0.2-0.4,0.4-0.6,0.4c-0.1,0-0.2,0-0.3,0c-0.3-0.6-0.5-1-0.7-1.2c-0.2-0.2-0.5-0.3-0.8-0.2c-0.3,0-0.5,0.1-0.7,0.2
		c-0.1,0.1-0.3,0.3-0.3,0.5c-0.2,0.4-0.2,1.3,0,2.8c0,0.1,0,0.2,0,0.3c0,0.2,0,0.3,0,0.5l1.6-0.3c0.6-0.1,1,0.1,1,0.3
		c0,0.2-0.1,0.3-0.4,0.4s-0.7,0.2-1.1,0.2c-0.5,0.1-0.8,0.1-0.9,0.2c0,0.4,0,0.8,0.1,1.4c0.1,0.6,0.2,1.5,0.4,2.7
		c0.2,1.2,0.3,2.2,0.4,2.8c0.1,0.7,0,1.1-0.1,1.4C211.7,66.5,211.4,66.6,211,66.7z"/>
	<path style="fill:#595959;" d="M216.1,62.2c0,0.3,0,0.4,0,0.5c0.1,0.8,0.4,1.3,0.9,1.7c0.5,0.4,1.1,0.5,1.7,0.5s1.1-0.2,1.5-0.4
		c0.4-0.2,0.6-0.4,0.8-0.6c0.4-0.6,0.8-0.9,1.2-1c0.1,0,0.3,0,0.5,0.1c-0.1,0.6-0.5,1.2-1.3,1.8c-0.8,0.6-1.8,0.9-3,1.1
		c-0.9,0.1-1.7-0.1-2.3-0.6c-0.7-0.5-1.1-1.2-1.2-2.2c-0.1-1,0-1.9,0.3-2.9c0.3-0.9,0.8-1.8,1.4-2.5c0.7-0.7,1.4-1.1,2.1-1.2
		c0.7-0.1,1.4,0,1.9,0.3c0.5,0.3,0.8,0.7,0.8,1.3c0.1,1.1-0.3,2-1.2,2.8c-0.9,0.8-1.9,1.3-3,1.4C216.8,62.2,216.5,62.2,216.1,62.2z
		 M217.4,53.7c0.8-0.6,1.3-1,1.4-1.1c0.2-0.1,0.3-0.2,0.5-0.2c0.2,0,0.4,0,0.6,0c0.2,0,0.3,0.1,0.4,0.2c0,0.1-0.1,0.2-0.2,0.3
		s-0.6,0.5-1.4,1.1c-0.8,0.6-1.4,1.1-1.8,1.5c-0.1,0.1-0.2,0.1-0.4,0.2c-0.2,0-0.4,0-0.6-0.1c-0.2-0.1-0.4-0.1-0.4-0.2
		c0,0,0-0.1,0.1-0.2C216,54.8,216.6,54.4,217.4,53.7z M217.4,61.4c0.6-0.1,1.1-0.3,1.5-0.7c0.4-0.4,0.7-0.8,0.9-1.3
		c0.2-0.4,0.2-0.8,0.2-1.2c0-0.3-0.2-0.6-0.5-0.9c-0.3-0.2-0.6-0.3-1-0.3c-0.6,0.1-1.2,0.6-1.6,1.5c-0.4,0.9-0.7,1.9-0.9,2.8
		C216.6,61.4,217.1,61.5,217.4,61.4z"/>
	<path style="fill:#595959;" d="M226,63.2l0.2,1.1c0,0.3,0,0.5-0.2,0.6c-0.1,0.1-0.3,0.2-0.5,0.2c-0.2,0-0.3,0-0.5,0
		c-0.4-1.4-0.8-3.2-1.2-5.4c-0.4-2.2-0.6-3.4-0.6-3.7c0.2-0.2,0.4-0.3,0.6-0.3c0.2,0,0.4,0,0.6,0c0.1,0.4,0.2,1.2,0.3,2.4
		c0.1,1.2,0.3,2,0.3,2.3c0.1-1.1,0.3-2.1,0.7-3c0.2-0.5,0.5-1,0.9-1.3c0.4-0.3,0.8-0.5,1.3-0.6c0.5,0,0.9,0.1,1.4,0.5
		c0.4,0.4,0.7,0.7,0.7,1.1c0,0.1-0.1,0.2-0.2,0.3s-0.3,0.1-0.5,0.2c-0.2,0-0.3,0-0.4-0.2c-0.1-0.1-0.2-0.3-0.3-0.4
		c-0.1-0.2-0.2-0.3-0.3-0.4c-0.1-0.1-0.3-0.2-0.5-0.2c-0.6,0.1-1,0.6-1.3,1.7C226,59.6,225.9,61.3,226,63.2z"/>
	<path style="fill:#595959;" d="M232.1,60.6c0,0.3,0,0.4,0,0.5c0.1,0.8,0.4,1.3,0.9,1.7c0.5,0.4,1.1,0.5,1.7,0.5
		c0.6-0.1,1.1-0.2,1.5-0.4c0.4-0.2,0.6-0.4,0.8-0.6c0.4-0.6,0.8-0.9,1.2-1c0.1,0,0.3,0,0.5,0.1c-0.1,0.6-0.5,1.2-1.3,1.8
		c-0.8,0.6-1.8,0.9-3,1.1c-0.9,0.1-1.7-0.1-2.3-0.6c-0.7-0.5-1.1-1.2-1.2-2.2c-0.1-1,0-1.9,0.3-2.9c0.3-0.9,0.8-1.8,1.4-2.5
		c0.7-0.7,1.4-1.1,2.1-1.2c0.7-0.1,1.4,0,1.9,0.3c0.5,0.3,0.8,0.7,0.8,1.3c0.1,1.1-0.3,2-1.2,2.8c-0.9,0.8-1.9,1.3-3,1.4
		C232.9,60.6,232.5,60.6,232.1,60.6z M233.5,59.9c0.6-0.1,1.1-0.3,1.5-0.7c0.4-0.4,0.7-0.8,0.9-1.3s0.2-0.8,0.2-1.2
		c0-0.3-0.2-0.6-0.5-0.9c-0.3-0.2-0.6-0.3-1-0.3c-0.6,0.1-1.2,0.6-1.6,1.5c-0.4,0.9-0.7,1.9-0.9,2.8
		C232.7,59.9,233.2,59.9,233.5,59.9z"/>
	<path style="fill:#595959;" d="M248.1,62.4c-0.2,0.3-0.4,0.4-0.7,0.4c-0.5,0.1-1-0.2-1.3-0.7c-0.3-0.6-0.5-1.2-0.7-2.1
		c-0.1-0.8-0.2-1.6-0.3-2.5c-0.1-0.8-0.2-1.5-0.4-2.1c-0.2-0.6-0.4-0.8-0.8-0.8c-0.4,0-0.8,0.5-1,1.3c-0.2,0.8-0.4,1.7-0.4,2.7
		c-0.1,2.7-0.3,4.3-0.6,4.6c-0.2,0.1-0.4,0.2-0.6,0.2c-0.2,0-0.3,0-0.4,0c-0.4-1.1-0.7-3.1-1.1-5.9c-0.2-1.4-0.3-2.3-0.3-2.7
		c0.2-0.2,0.5-0.3,0.7-0.3s0.3,0,0.5,0c0.1,0.5,0.3,1.6,0.4,3.3c0.2,1.7,0.3,2.6,0.3,2.9c0-0.3,0.1-0.7,0.1-1.3
		c0-0.6,0.1-1.1,0.1-1.5c0-0.4,0.1-0.9,0.2-1.4c0.1-0.5,0.3-1,0.4-1.3c0.2-0.3,0.4-0.6,0.8-0.9c0.3-0.3,0.7-0.4,1.2-0.4
		c0.6-0.1,1,0.2,1.4,0.7c0.3,0.5,0.5,1.2,0.6,1.9s0.2,1.6,0.3,2.4c0.1,0.8,0.3,1.6,0.5,2.2C247.3,61.8,247.6,62.2,248.1,62.4z"/>
	<path style="fill:#595959;" d="M255,55.1c-0.2,0.3-0.4,0.4-0.7,0.4c-0.2,0-0.4-0.1-0.6-0.3c-0.2-0.2-0.3-0.4-0.4-0.6
		c-0.1-0.2-0.3-0.4-0.5-0.6c-0.3-0.2-0.6-0.3-0.9-0.2c-0.5,0.1-0.9,0.5-1.2,1.2c-0.3,0.7-0.6,1.4-0.7,2.2c-0.1,0.8-0.1,1.5-0.1,2.2
		s0.3,1.3,0.7,1.7c0.4,0.5,1,0.7,1.6,0.6c0.8-0.1,1.3-0.4,1.7-1c0.2-0.2,0.3-0.5,0.5-0.7c0.3-0.6,0.7-0.9,1-0.9c0.1,0,0.3,0,0.5,0
		c0,0.5-0.3,1.1-1.1,2c-0.8,0.8-1.7,1.3-2.6,1.4s-1.8-0.1-2.4-0.7c-0.6-0.6-1-1.4-1.1-2.4c-0.1-1.3,0.1-2.6,0.6-4
		c0.3-0.7,0.6-1.2,1.1-1.7c0.5-0.5,1.1-0.7,1.7-0.8s1.2,0.1,1.7,0.5C254.3,53.9,254.7,54.4,255,55.1z"/>
	<path style="fill:#595959;" d="M258.4,58.1c0,0.3,0,0.4,0,0.5c0.1,0.8,0.4,1.3,0.9,1.7c0.5,0.4,1.1,0.5,1.7,0.5
		c0.6-0.1,1.1-0.2,1.5-0.4c0.4-0.2,0.6-0.4,0.8-0.6c0.4-0.6,0.8-0.9,1.2-1c0.1,0,0.3,0,0.5,0.1c-0.1,0.6-0.5,1.2-1.3,1.8
		c-0.8,0.6-1.8,0.9-3,1.1c-0.9,0.1-1.7-0.1-2.3-0.6c-0.7-0.5-1.1-1.2-1.2-2.2c-0.1-1,0-1.9,0.3-2.9c0.3-0.9,0.8-1.8,1.4-2.5
		c0.7-0.7,1.4-1.1,2.1-1.2c0.7-0.1,1.4,0,1.9,0.3c0.5,0.3,0.8,0.7,0.8,1.3c0.1,1.1-0.3,2-1.2,2.8c-0.9,0.8-1.9,1.3-3,1.4
		C259.1,58.1,258.8,58.1,258.4,58.1z M259.8,57.3c0.6-0.1,1.1-0.3,1.5-0.7c0.4-0.4,0.7-0.8,0.9-1.3s0.2-0.8,0.2-1.2
		c0-0.3-0.2-0.6-0.5-0.9c-0.3-0.2-0.6-0.3-1-0.3c-0.6,0.1-1.2,0.6-1.6,1.5c-0.4,0.9-0.7,1.9-0.9,2.8C259,57.3,259.4,57.3,259.8,57.3
		z"/>
	<path style="fill:#595959;" d="M276.6,44.9c-0.1,4.4,0,7.5,0.2,9.3c0.2,1.8,0.5,3.7,1,5.5c-0.2,0.3-0.4,0.4-0.6,0.4
		c-0.2,0-0.3,0-0.5,0c-0.4-0.9-0.6-1.9-0.8-3c-0.3,0.5-0.4,0.9-0.6,1.1c-0.1,0.2-0.3,0.5-0.7,1c-0.6,0.8-1.3,1.3-2.2,1.4
		c-0.7,0.1-1.2-0.2-1.5-0.8s-0.6-1.4-0.7-2.3c-0.1-1-0.1-1.9,0.1-2.8c0.1-0.9,0.4-1.7,0.9-2.4s1.1-1.1,1.9-1.2c0.5,0,0.9,0,1.3,0.2
		c0.4,0.2,0.7,0.4,0.9,0.7c0-0.3,0-0.9-0.1-1.6c0-0.7-0.1-1.3-0.1-1.9c0-0.5,0-1.1,0-1.7c0-1.2,0.3-1.9,0.7-1.9
		C276.2,44.8,276.4,44.8,276.6,44.9z M275.1,52.6c-0.2-0.3-0.4-0.4-0.7-0.5c-0.3-0.1-0.6-0.1-1.1-0.1c-0.4,0-0.8,0.3-1.1,0.9
		c-0.6,1-0.9,2.5-0.7,4.3c0.1,0.6,0.2,1.2,0.5,1.7c0.2,0.6,0.5,0.8,0.9,0.8c0.5-0.1,1-0.4,1.4-1.2c0.4-0.7,0.7-1.6,0.9-2.5
		c0.2-0.9,0.2-1.7,0.2-2.5C275.4,53.1,275.3,52.8,275.1,52.6z"/>
	<path style="fill:#595959;" d="M280.4,55.9c0,0.3,0,0.4,0,0.5c0.1,0.8,0.4,1.3,0.9,1.7c0.5,0.4,1.1,0.5,1.7,0.5
		c0.6-0.1,1.1-0.2,1.5-0.4c0.4-0.2,0.6-0.4,0.8-0.6c0.4-0.6,0.8-0.9,1.2-1c0.1,0,0.3,0,0.5,0.1c-0.1,0.6-0.5,1.2-1.3,1.8
		c-0.8,0.6-1.8,0.9-3,1.1c-0.9,0.1-1.7-0.1-2.3-0.6c-0.7-0.5-1.1-1.2-1.2-2.2c-0.1-1,0-1.9,0.3-2.9c0.3-0.9,0.8-1.8,1.4-2.5
		c0.7-0.7,1.4-1.1,2.1-1.2c0.7-0.1,1.4,0,1.9,0.3c0.5,0.3,0.8,0.7,0.8,1.3c0.1,1.1-0.3,2-1.2,2.8c-0.9,0.8-1.9,1.3-3,1.4
		C281.2,55.9,280.8,55.9,280.4,55.9z M281.8,55.1c0.6-0.1,1.1-0.3,1.5-0.7c0.4-0.4,0.7-0.8,0.9-1.3s0.2-0.8,0.2-1.2
		c0-0.3-0.2-0.6-0.5-0.9c-0.3-0.2-0.6-0.3-1-0.3c-0.6,0.1-1.2,0.6-1.6,1.5c-0.4,0.9-0.7,1.9-0.9,2.8C281,55.2,281.5,55.2,281.8,55.1
		z"/>
	<path style="fill:#595959;" d="M292.5,47.2c-0.1-1.2-0.4-2.1-0.8-2.5c0.1-0.3,0.4-0.4,0.8-0.4c0.1,0,0.2,0,0.2,0
		c0.3,0.3,0.6,1.2,0.7,2.7c0.1,0.8,0.1,1.8,0.2,2.9c0,1.9,0.1,3.3,0.2,4.2c0.2,2.4,0.8,3.5,1.7,3.4l0.7-0.2c0.1,0,0.2,0,0.3,0.1
		c0,0.5-0.3,0.7-1,0.8c-0.7,0.1-1.3-0.1-1.7-0.5c-0.4-0.4-0.7-0.9-0.9-1.5c-0.2-0.6-0.3-1.1-0.3-1.6s-0.1-0.9-0.1-1.4
		c0-0.5,0-1.2,0-2.2C292.6,49.2,292.6,47.9,292.5,47.2z"/>
	<path style="fill:#595959;" d="M297.8,45.2c0,0.4,0,0.9-0.1,1.6c-0.1,0.7-0.1,1.2-0.1,1.5c0,0.4-0.1,0.6-0.5,0.6l-0.4-0.1
		c-0.2-0.1-0.4-0.2-0.4-0.4c0-0.4,0-0.9,0.1-1.6c0.1-0.7,0.1-1.2,0.1-1.6c0-0.3,0.2-0.5,0.5-0.5l0.4,0.1
		C297.7,44.9,297.8,45,297.8,45.2z"/>
	<path style="fill:#595959;" d="M306,51.8l0.1,2.2c0.1,1.1,0.3,1.8,0.6,2.2c0.2,0.2,0.4,0.3,0.7,0.3c0.1,0,0.2,0,0.3-0.1
		c0.3-0.1,0.5-0.1,0.7,0c0,0.4-0.5,0.7-1.3,0.8c-0.5,0.1-0.9-0.1-1.1-0.6c-0.2-0.3-0.3-0.7-0.4-1.2c-0.1-0.5-0.2-0.8-0.3-1
		c-0.7,1.6-1.4,2.7-2.1,3.1c-0.4,0.2-0.8,0.3-1.3,0.4c-0.5,0-0.9-0.2-1.3-0.6c-0.3-0.5-0.5-1.2-0.6-2.1c-0.1-1,0-2,0.2-3
		c0.2-1.1,0.6-2,1.1-2.8c0.5-0.8,1.2-1.2,1.9-1.3c1-0.1,1.8,0.3,2.2,1.1C305.6,49.7,305.8,50.7,306,51.8z M301.3,51.6
		c-0.1,0.7-0.2,1.4-0.2,2c0,0.6,0,1.2,0,1.6s0.2,0.9,0.4,1.2c0.2,0.3,0.5,0.5,0.8,0.4c0.7-0.1,1.3-0.8,1.8-2.1
		c0.5-1.3,0.7-2.6,0.6-3.7c-0.1-0.7-0.3-1.3-0.7-1.7c-0.3-0.3-0.6-0.4-1-0.4c-0.4,0-0.8,0.3-1,0.8C301.6,50.3,301.4,50.9,301.3,51.6
		z"/>
	<path style="fill:#595959;" d="M310.6,54.9l0.2,1.1c0,0.3,0,0.5-0.2,0.6c-0.1,0.1-0.3,0.2-0.5,0.2c-0.2,0-0.3,0-0.5,0
		c-0.4-1.4-0.8-3.2-1.2-5.4c-0.4-2.2-0.6-3.4-0.6-3.7c0.2-0.2,0.4-0.3,0.6-0.3c0.2,0,0.4,0,0.6,0c0.1,0.4,0.2,1.2,0.3,2.4
		c0.1,1.2,0.3,2,0.3,2.3c0.1-1.1,0.3-2.1,0.7-3c0.2-0.5,0.5-1,0.9-1.3c0.4-0.3,0.8-0.5,1.3-0.6s0.9,0.1,1.4,0.5
		c0.4,0.4,0.7,0.7,0.7,1.1c0,0.1-0.1,0.2-0.2,0.3c-0.1,0.1-0.3,0.1-0.5,0.2c-0.2,0-0.3,0-0.4-0.2c-0.1-0.1-0.2-0.3-0.3-0.4
		c-0.1-0.2-0.2-0.3-0.3-0.4s-0.3-0.2-0.5-0.2c-0.6,0.1-1,0.6-1.3,1.7C310.6,51.3,310.5,53,310.6,54.9z"/>
	<path style="fill:#595959;" d="M315.7,48.4c-0.6,0.1-1,0-1.2-0.3c0-0.2,0.1-0.4,0.2-0.5c0.2-0.1,0.3-0.2,0.5-0.3s0.5-0.1,1-0.2
		c0-0.3,0-0.8-0.1-1.3c0-0.5-0.1-1-0.1-1.4c-0.1-1,0-1.6,0.3-1.9c0.1-0.1,0.2-0.2,0.4-0.2c0.1,0,0.2,0,0.4,0
		c0.1,0.9,0.2,1.4,0.2,1.6l0.2,2.8c0,0,0.1,0,0.2,0l1.3-0.2c1-0.1,1.5,0,1.5,0.3c0,0.4-0.1,0.7-0.5,0.8c-0.2,0.1-0.3,0.1-0.6,0.1
		c-0.2,0-0.5,0-0.9,0s-0.6,0-0.8,0s-0.2,0-0.3,0c0,0.4,0,0.7,0,1.1c0,0.4,0.1,0.8,0.2,1.3c0.1,0.5,0.2,1.2,0.3,1.9
		c0.2,0.7,0.4,1.4,0.7,1.9c0.3,0.5,0.7,0.7,1.1,0.7c0.2,0,0.5-0.1,0.7-0.3c0.3-0.2,0.5-0.3,0.6-0.3c0.2,0,0.3,0,0.4,0.1
		c0.1,0.1,0.2,0.1,0.2,0.2c0,0.3-0.2,0.5-0.7,0.8c-0.5,0.3-1,0.5-1.3,0.5c-1.4,0.1-2.4-1.1-3-3.7c-0.2-0.7-0.4-2-0.6-3.9
		C316.2,48.3,315.9,48.3,315.7,48.4z"/>
	<path style="fill:#595959;" d="M323.2,41.6c0,0.3,0,0.6,0.1,1c0,0.4,0.1,0.7,0.2,1.1c-0.2,0.2-0.4,0.3-0.7,0.4
		c-0.4,0-0.6-0.2-0.7-0.8c0,0,0-0.1,0-0.3c0-0.2,0-0.3,0-0.4c0-0.1,0-0.3,0-0.5c0.1-0.3,0.2-0.5,0.5-0.5
		C322.9,41.4,323.1,41.5,323.2,41.6z M322.9,50.9c-0.2-2.5-0.3-3.9,0-4.3c0.1-0.1,0.2-0.2,0.3-0.2c0.1,0,0.3,0,0.6,0.1
		c0,1.1,0.1,2.2,0.2,3.5l0.4,4.2c0,0.4,0,0.7-0.2,0.8c-0.2,0.2-0.3,0.3-0.4,0.3s-0.3,0-0.5-0.1C323.2,53.6,323,52.2,322.9,50.9z"/>
	<path style="fill:#595959;" d="M332.6,47.5c-0.2,0.3-0.4,0.4-0.7,0.4c-0.2,0-0.4-0.1-0.6-0.3c-0.2-0.2-0.3-0.4-0.4-0.6
		c-0.1-0.2-0.3-0.4-0.5-0.6c-0.3-0.2-0.6-0.3-0.9-0.2c-0.5,0.1-0.9,0.5-1.2,1.2c-0.3,0.7-0.6,1.4-0.7,2.2c-0.1,0.8-0.1,1.5-0.1,2.2
		s0.3,1.3,0.7,1.7c0.4,0.5,1,0.7,1.6,0.6c0.8-0.1,1.3-0.4,1.7-1c0.2-0.2,0.3-0.5,0.5-0.7c0.3-0.6,0.7-0.9,1-0.9c0.1,0,0.3,0,0.5,0
		c0,0.5-0.3,1.1-1.1,2c-0.8,0.8-1.7,1.3-2.6,1.4c-1,0.1-1.8-0.1-2.4-0.7c-0.6-0.6-1-1.4-1.1-2.4c-0.1-1.3,0.1-2.6,0.6-4
		c0.3-0.7,0.6-1.2,1.1-1.7c0.5-0.5,1.1-0.7,1.7-0.8s1.2,0.1,1.7,0.5C331.8,46.3,332.3,46.9,332.6,47.5z"/>
	<path style="fill:#595959;" d="M334.9,43.1c-0.1-1.2-0.4-2.1-0.8-2.5c0.1-0.3,0.4-0.4,0.8-0.4c0.1,0,0.2,0,0.2,0
		c0.3,0.3,0.6,1.2,0.7,2.7c0.1,0.8,0.1,1.8,0.2,2.9c0,1.9,0.1,3.3,0.2,4.2c0.2,2.4,0.8,3.5,1.7,3.4l0.7-0.2c0.1,0,0.2,0,0.3,0.1
		c0,0.5-0.3,0.7-1,0.8c-0.7,0.1-1.3-0.1-1.7-0.5c-0.4-0.4-0.7-0.9-0.9-1.5c-0.2-0.6-0.3-1.1-0.3-1.6c0-0.4-0.1-0.9-0.1-1.4
		c0-0.5,0-1.2,0-2.2C335,45,335,43.8,334.9,43.1z"/>
	<path style="fill:#595959;" d="M340.4,50c0,0.3,0,0.4,0,0.5c0.1,0.8,0.4,1.3,0.9,1.7c0.5,0.4,1.1,0.5,1.7,0.5
		c0.6-0.1,1.1-0.2,1.5-0.4c0.4-0.2,0.6-0.4,0.8-0.6c0.4-0.6,0.8-0.9,1.2-1c0.1,0,0.3,0,0.5,0.1c-0.1,0.6-0.5,1.2-1.3,1.8
		c-0.8,0.6-1.8,0.9-3,1.1c-0.9,0.1-1.7-0.1-2.3-0.6c-0.7-0.5-1.1-1.2-1.2-2.2c-0.1-1,0-1.9,0.3-2.9c0.3-0.9,0.8-1.8,1.4-2.5
		c0.7-0.7,1.4-1.1,2.1-1.2s1.4,0,1.9,0.3c0.5,0.3,0.8,0.7,0.8,1.3c0.1,1.1-0.3,2-1.2,2.8c-0.9,0.8-1.9,1.3-3,1.4
		C341.2,50.1,340.8,50.1,340.4,50z M341.8,49.3c0.6-0.1,1.1-0.3,1.5-0.7c0.4-0.4,0.7-0.8,0.9-1.3s0.2-0.8,0.2-1.2
		c0-0.3-0.2-0.6-0.5-0.9c-0.3-0.2-0.6-0.3-1-0.3c-0.6,0.1-1.2,0.6-1.6,1.5c-0.4,0.9-0.7,1.9-0.9,2.8C341,49.3,341.5,49.3,341.8,49.3
		z"/>
	<path style="fill:#595959;" d="M358.6,36.9c-0.1,4.4,0,7.5,0.2,9.3c0.2,1.8,0.5,3.7,1,5.5c-0.2,0.3-0.4,0.4-0.6,0.4
		c-0.2,0-0.3,0-0.5,0c-0.4-0.9-0.6-1.9-0.8-3c-0.3,0.5-0.4,0.9-0.6,1.1c-0.1,0.2-0.3,0.5-0.7,1c-0.6,0.8-1.3,1.3-2.2,1.4
		c-0.7,0.1-1.2-0.2-1.5-0.8c-0.4-0.6-0.6-1.4-0.7-2.3s-0.1-1.9,0.1-2.8c0.1-0.9,0.4-1.7,0.9-2.4c0.5-0.7,1.1-1.1,1.9-1.2
		c0.5,0,0.9,0,1.3,0.2c0.4,0.2,0.7,0.4,0.9,0.7c0-0.3,0-0.9-0.1-1.6c0-0.7-0.1-1.3-0.1-1.9c0-0.5,0-1.1,0-1.7c0-1.2,0.3-1.8,0.7-1.9
		C358.2,36.8,358.4,36.8,358.6,36.9z M357.1,44.6c-0.2-0.3-0.4-0.4-0.7-0.5c-0.3-0.1-0.6-0.1-1.1-0.1c-0.4,0-0.8,0.3-1.1,0.9
		c-0.6,1-0.9,2.5-0.7,4.3c0.1,0.6,0.2,1.2,0.5,1.7c0.2,0.6,0.5,0.8,0.9,0.8c0.5-0.1,1-0.4,1.4-1.2c0.4-0.7,0.7-1.6,0.9-2.5
		c0.2-0.9,0.2-1.7,0.2-2.5C357.4,45.1,357.3,44.8,357.1,44.6z"/>
	<path style="fill:#595959;" d="M362.5,47.9c0,0.3,0,0.4,0,0.5c0.1,0.8,0.4,1.3,0.9,1.7c0.5,0.4,1.1,0.5,1.7,0.5
		c0.6-0.1,1.1-0.2,1.5-0.4c0.4-0.2,0.6-0.4,0.8-0.6c0.4-0.6,0.8-0.9,1.2-1c0.1,0,0.3,0,0.5,0.1c-0.1,0.6-0.5,1.2-1.3,1.8
		c-0.8,0.6-1.8,0.9-3,1.1c-0.9,0.1-1.7-0.1-2.3-0.6c-0.7-0.5-1.1-1.2-1.2-2.2c-0.1-1,0-1.9,0.3-2.9c0.3-0.9,0.8-1.8,1.4-2.5
		c0.7-0.7,1.4-1.1,2.1-1.2c0.7-0.1,1.4,0,1.9,0.3c0.5,0.3,0.8,0.7,0.8,1.3c0.1,1.1-0.3,2-1.2,2.8c-0.9,0.8-1.9,1.3-3,1.4
		C363.2,47.9,362.9,47.9,362.5,47.9z M363.8,39.5c0.8-0.6,1.3-1,1.4-1.1c0.2-0.1,0.3-0.2,0.5-0.2c0.2,0,0.4,0,0.6,0
		c0.2,0,0.3,0.1,0.4,0.2c0,0.1-0.1,0.2-0.2,0.3c-0.1,0.1-0.6,0.5-1.4,1.1c-0.8,0.6-1.4,1.1-1.8,1.5c-0.1,0.1-0.2,0.1-0.4,0.2
		c-0.2,0-0.4,0-0.6-0.1c-0.2-0.1-0.4-0.1-0.4-0.2c0,0,0-0.1,0.1-0.2C362.4,40.6,363,40.1,363.8,39.5z M363.9,47.1
		c0.6-0.1,1.1-0.3,1.5-0.7c0.4-0.4,0.7-0.8,0.9-1.3s0.2-0.8,0.2-1.2c0-0.3-0.2-0.6-0.5-0.9c-0.3-0.2-0.6-0.3-1-0.3
		c-0.6,0.1-1.2,0.6-1.6,1.5c-0.4,0.9-0.7,1.9-0.9,2.8C363.1,47.2,363.5,47.2,363.9,47.1z"/>
	<path style="fill:#595959;" d="M374.8,42.9c-0.1-0.3-0.4-0.5-0.7-0.6c-0.3-0.1-0.7-0.2-1.2-0.1c-0.5,0-0.9,0.2-1.3,0.5
		c-0.4,0.3-0.5,0.7-0.5,1.2s0.3,0.8,0.7,1c0.4,0.2,0.9,0.4,1.5,0.5s1.1,0.2,1.7,0.3c0.6,0.1,1.1,0.3,1.5,0.6
		c0.4,0.3,0.7,0.8,0.7,1.3c0.1,0.8-0.2,1.5-0.9,2c-0.7,0.5-1.5,0.8-2.4,0.9c-0.6,0.1-1.3,0-2.3-0.2c-1-0.2-1.5-0.6-1.5-1
		c0-0.3,0.2-0.5,0.8-0.6c0.2,0,0.4,0.1,0.7,0.2c0.9,0.5,1.7,0.7,2.6,0.6c0.5,0,0.8-0.2,1.1-0.3c0.6-0.3,0.8-0.8,0.8-1.5
		c0-0.4-0.3-0.7-0.7-0.9c-0.4-0.2-0.9-0.3-1.4-0.4c-0.6-0.1-1.1-0.2-1.7-0.3c-0.6-0.1-1.1-0.3-1.5-0.7c-0.4-0.3-0.7-0.8-0.7-1.4
		c-0.1-0.8,0.2-1.4,0.9-2c0.6-0.5,1.5-0.9,2.5-1c0.7-0.1,1.3,0.1,1.9,0.4c0.6,0.3,0.9,0.8,1,1.5c0,0.5-0.2,0.7-0.7,0.8
		c-0.2,0-0.4,0-0.4-0.1c-0.1-0.1-0.1-0.2-0.2-0.4S374.8,43,374.8,42.9z"/>
	<path style="fill:#595959;" d="M379,36.2c0,0.3,0,0.6,0.1,1c0,0.4,0.1,0.7,0.2,1.1c-0.2,0.2-0.4,0.3-0.7,0.4
		c-0.4,0-0.6-0.2-0.7-0.8c0,0,0-0.1,0-0.3c0-0.2,0-0.3,0-0.4c0-0.1,0-0.3,0-0.5c0.1-0.3,0.2-0.5,0.5-0.5C378.7,36,378.9,36,379,36.2
		z M378.7,45.5c-0.2-2.5-0.3-3.9,0-4.3c0.1-0.1,0.2-0.2,0.3-0.2c0.1,0,0.3,0,0.6,0.1c0,1.1,0.1,2.2,0.2,3.5l0.4,4.2
		c0,0.4,0,0.7-0.2,0.8c-0.2,0.2-0.3,0.3-0.4,0.3c-0.1,0-0.3,0-0.5-0.1C379,48.2,378.8,46.8,378.7,45.5z"/>
	<path style="fill:#595959;" d="M384.4,47.7l0.2,1.1c0,0.3,0,0.5-0.2,0.6c-0.1,0.1-0.3,0.2-0.5,0.2c-0.2,0-0.3,0-0.5,0
		c-0.4-1.4-0.8-3.2-1.2-5.4c-0.4-2.2-0.6-3.4-0.6-3.7c0.2-0.2,0.4-0.3,0.6-0.3s0.4,0,0.6,0c0.1,0.4,0.2,1.2,0.3,2.4s0.3,2,0.3,2.3
		c0.1-1.1,0.3-2.1,0.7-3c0.2-0.5,0.5-1,0.9-1.3c0.4-0.3,0.8-0.5,1.3-0.6s0.9,0.1,1.4,0.5c0.4,0.4,0.7,0.7,0.7,1.1
		c0,0.1-0.1,0.2-0.2,0.3c-0.1,0.1-0.3,0.1-0.5,0.2c-0.2,0-0.3,0-0.4-0.2c-0.1-0.1-0.2-0.3-0.3-0.4c-0.1-0.2-0.2-0.3-0.3-0.4
		c-0.1-0.1-0.3-0.2-0.5-0.2c-0.6,0.1-1,0.6-1.3,1.7C384.4,44.1,384.3,45.8,384.4,47.7z"/>
	<path style="fill:#595959;" d="M390.8,45.1c0,0.3,0,0.4,0,0.5c0.1,0.8,0.4,1.3,0.9,1.7c0.5,0.4,1.1,0.5,1.7,0.5
		c0.6-0.1,1.1-0.2,1.5-0.4c0.4-0.2,0.6-0.4,0.8-0.6c0.4-0.6,0.8-0.9,1.2-1c0.1,0,0.3,0,0.5,0.1c-0.1,0.6-0.5,1.2-1.3,1.8
		c-0.8,0.6-1.8,0.9-3,1.1c-0.9,0.1-1.7-0.1-2.3-0.6c-0.7-0.5-1.1-1.2-1.2-2.2c-0.1-1,0-1.9,0.3-2.9c0.3-0.9,0.8-1.8,1.4-2.5
		c0.7-0.7,1.4-1.1,2.1-1.2c0.7-0.1,1.4,0,1.9,0.3c0.5,0.3,0.8,0.7,0.8,1.3c0.1,1.1-0.3,2-1.2,2.8c-0.9,0.8-1.9,1.3-3,1.4
		C391.6,45.1,391.3,45.2,390.8,45.1z M392.2,36.7c0.8-0.6,1.3-1,1.4-1.1c0.2-0.1,0.3-0.2,0.5-0.2c0.2,0,0.4,0,0.6,0
		c0.2,0,0.3,0.1,0.4,0.2c0,0.1-0.1,0.2-0.2,0.3c-0.1,0.1-0.6,0.5-1.4,1.1c-0.8,0.6-1.4,1.1-1.8,1.5c-0.1,0.1-0.2,0.1-0.4,0.2
		c-0.2,0-0.4,0-0.6-0.1c-0.2-0.1-0.4-0.1-0.4-0.2c0,0,0-0.1,0.1-0.2C390.8,37.8,391.4,37.3,392.2,36.7z M392.2,44.4
		c0.6-0.1,1.1-0.3,1.5-0.7c0.4-0.4,0.7-0.8,0.9-1.3c0.2-0.4,0.2-0.8,0.2-1.2c0-0.3-0.2-0.6-0.5-0.9c-0.3-0.2-0.6-0.3-1-0.3
		c-0.6,0.1-1.2,0.6-1.6,1.5c-0.4,0.9-0.7,1.9-0.9,2.8C391.4,44.4,391.9,44.4,392.2,44.4z"/>
</g>
<path style="fill:none;stroke:#595959;stroke-miterlimit:10;" d="M437.5,2.4c-0.4,3.1-1.9,11.7-9,19c-10.2,10.5-23.8,10.1-26,10"/>
<path style="fill:none;stroke:#595959;stroke-miterlimit:10;" d="M432,6.9"/>
<polyline style="fill:none;stroke:#595959;stroke-miterlimit:10;" points="430.5,11.2 437.7,1.2 440.5,12.6 "/>
<g>
</g>
<g>
</g>
<g>
</g>
<g>
</g>
<g>
</g>
<g>
</g>
<g>
</g>
<g>
</g>
<g>
</g>
<g>
</g>
<g>
</g>
<g>
</g>
<g>
</g>
<g>
</g>
<g>
</g>
</svg>
