<?xml version="1.0" encoding="UTF-8" standalone="no"?>
<!-- Generator: Adobe Illustrator 17.0.2, SVG Export Plug-In . SVG Version: 6.00 Build 0)  -->

<svg
   xmlns:dc="http://purl.org/dc/elements/1.1/"
   xmlns:cc="http://creativecommons.org/ns#"
   xmlns:rdf="http://www.w3.org/1999/02/22-rdf-syntax-ns#"
   xmlns:svg="http://www.w3.org/2000/svg"
   xmlns="http://www.w3.org/2000/svg"
   xmlns:sodipodi="http://sodipodi.sourceforge.net/DTD/sodipodi-0.dtd"
   xmlns:inkscape="http://www.inkscape.org/namespaces/inkscape"
   version="1.1"
   id="Calque_1"
   x="0px"
   y="0px"
   width="300"
   height="50"
   viewBox="0 0 300 50"
   enable-background="new 0 0 100 100"
   xml:space="preserve"
   sodipodi:docname="emmy.svg"
   inkscape:version="0.92.3 (2405546, 2018-03-11)"
   inkscape:export-filename="/sites/chez-emmy.lan/client/assets/emmy.png"
   inkscape:export-xdpi="96"
   inkscape:export-ydpi="96"><metadata
   id="metadata42"><rdf:RDF><cc:Work
       rdf:about=""><dc:format>image/svg+xml</dc:format><dc:type
         rdf:resource="http://purl.org/dc/dcmitype/StillImage" /><dc:title></dc:title></cc:Work></rdf:RDF></metadata><defs
   id="defs40" /><sodipodi:namedview
   pagecolor="#ffffff"
   bordercolor="#666666"
   borderopacity="1"
   objecttolerance="10"
   gridtolerance="10"
   guidetolerance="10"
   inkscape:pageopacity="0"
   inkscape:pageshadow="2"
   inkscape:window-width="1600"
   inkscape:window-height="851"
   id="namedview38"
   showgrid="false"
   fit-margin-top="0"
   fit-margin-left="0"
   fit-margin-right="0"
   fit-margin-bottom="0"
   inkscape:zoom="3.7"
   inkscape:cx="149.05405"
   inkscape:cy="26.558868"
   inkscape:window-x="0"
   inkscape:window-y="0"
   inkscape:window-maximized="1"
   inkscape:current-layer="flowRoot881" />

<g
   aria-label="CHEZ EMMY"
   transform="translate(5.197906,-19.55664)"
   style="font-style:normal;font-variant:normal;font-weight:bold;font-stretch:normal;font-size:40px;line-height:1.25;font-family:sans-serif;-inkscape-font-specification:'sans-serif Bold';letter-spacing:0px;word-spacing:0px;fill:#ff9900;fill-opacity:1;stroke:none"
   id="flowRoot881"><path
     d="m 28.583334,58.379557 q -2.208333,1.145834 -4.604167,1.729167 -2.395833,0.583333 -5,0.583333 -7.770833,0 -12.3125001,-4.333333 -4.5416668,-4.354167 -4.5416668,-11.791667 0,-7.458334 4.5416668,-11.791667 4.5416671,-4.354167 12.3125001,-4.354167 2.604167,0 5,0.583333 2.395834,0.583334 4.604167,1.729167 v 6.4375 q -2.229167,-1.520833 -4.395833,-2.229166 -2.166667,-0.708334 -4.5625,-0.708334 -4.291667,0 -6.750001,2.75 -2.458333,2.75 -2.458333,7.583334 0,4.8125 2.458333,7.5625 2.458334,2.75 6.750001,2.75 2.395833,0 4.5625,-0.708333 2.166666,-0.708334 4.395833,-2.229167 z"
     style="font-style:normal;font-variant:normal;font-weight:bold;font-stretch:normal;font-size:42.66666794px;line-height:1;font-family:sans-serif;-inkscape-font-specification:'sans-serif Bold';fill:#ff9900;fill-opacity:1"
     id="path893" /><path
     d="m 35.250001,28.983723 h 8.020833 V 40.83789 H 55.104168 V 28.983723 h 8.020834 V 60.087891 H 55.104168 V 46.90039 H 43.270834 v 13.187501 h -8.020833 z"
     style="font-style:normal;font-variant:normal;font-weight:bold;font-stretch:normal;font-size:42.66666794px;line-height:1;font-family:sans-serif;-inkscape-font-specification:'sans-serif Bold';fill:#ff9900;fill-opacity:1"
     id="path895" /><path
     d="m 71.000003,28.983723 h 21.645834 v 6.0625 H 79.020836 v 5.791667 h 12.812501 v 6.0625 H 79.020836 v 7.125 H 93.10417 v 6.062501 H 71.000003 Z"
     style="font-style:normal;font-variant:normal;font-weight:bold;font-stretch:normal;font-size:42.66666794px;line-height:1;font-family:sans-serif;-inkscape-font-specification:'sans-serif Bold';fill:#ff9900;fill-opacity:1"
     id="path897" /><path
     d="m 98.645833,28.983723 h 26.145837 v 4.854167 l -16.6875,20.1875 h 17.16666 v 6.062501 H 98.166667 V 55.233724 L 114.85417,35.046223 H 98.645833 Z"
     style="font-style:normal;font-variant:normal;font-weight:bold;font-stretch:normal;font-size:42.66666794px;line-height:1;font-family:sans-serif;-inkscape-font-specification:'sans-serif Bold';fill:#ff9900;fill-opacity:1"
     id="path899" /><path
     d="m 145.91667,28.983723 h 21.64583 v 6.0625 h -13.625 V 40.83789 H 166.75 v 6.0625 h -12.8125 v 7.125 h 14.08333 v 6.062501 h -22.10416 z"
     style="font-style:normal;font-variant:normal;font-weight:bold;font-stretch:normal;font-size:42.66666794px;line-height:1;font-family:sans-serif;-inkscape-font-specification:'sans-serif Bold';fill:#ff9900;fill-opacity:1"
     id="path901" /><path
     d="m 175.08334,28.983723 h 10.20833 l 7.08334,16.645834 7.125,-16.645834 h 10.1875 v 31.104168 h -7.58334 V 37.33789 l -7.16666,16.770834 h -5.08334 L 182.68751,37.33789 v 22.750001 h -7.60417 z"
     style="font-style:normal;font-variant:normal;font-weight:bold;font-stretch:normal;font-size:42.66666794px;line-height:1;font-family:sans-serif;-inkscape-font-specification:'sans-serif Bold';fill:#ff9900;fill-opacity:1"
     id="path903" /><path
     d="m 217.58334,28.983723 h 10.20833 l 7.08334,16.645834 7.125,-16.645834 h 10.1875 v 31.104168 h -7.58334 V 37.33789 l -7.16666,16.770834 h -5.08334 L 225.18751,37.33789 v 22.750001 h -7.60417 z"
     style="font-style:normal;font-variant:normal;font-weight:bold;font-stretch:normal;font-size:42.66666794px;line-height:1;font-family:sans-serif;-inkscape-font-specification:'sans-serif Bold';fill:#ff9900;fill-opacity:1"
     id="path905" /><path
     d="m 255.75002,28.983723 h 8.77083 l 7.08334,11.083334 7.08333,-11.083334 h 8.79167 l -11.85417,18.000001 v 13.104167 h -8.02083 V 46.983724 Z"
     style="font-style:normal;font-variant:normal;font-weight:bold;font-stretch:normal;font-size:42.66666794px;line-height:1;font-family:sans-serif;-inkscape-font-specification:'sans-serif Bold';fill:#ff9900;fill-opacity:1"
     id="path907" /></g></svg>