<?xml version="1.0" encoding="utf-8"?>
<!-- Generator: Adobe Illustrator 17.0.2, SVG Export Plug-In . SVG Version: 6.00 Build 0)  -->
<!DOCTYPE svg PUBLIC "-//W3C//DTD SVG 1.1//EN" "http://www.w3.org/Graphics/SVG/1.1/DTD/svg11.dtd">
<svg version="1.1" id="Calque_1" xmlns="http://www.w3.org/2000/svg" xmlns:xlink="http://www.w3.org/1999/xlink" x="0px" y="0px"
	 width="100px" height="100px" viewBox="0 0 100 100" enable-background="new 0 0 100 100" xml:space="preserve">
<g id="ichtus-logo">
	<g id="ichtus-logo-sky">
		<g>
			<path fill="#FFFFFF" d="M49.572,98.486c-26.585,0-48.214-21.706-48.214-48.386c0-26.681,21.628-48.387,48.214-48.387
				c26.592,0,48.227,21.706,48.227,48.387C97.799,76.78,76.164,98.486,49.572,98.486z"/>
			<path fill="#3176A2" d="M49.572,2.714c26.041,0,47.227,21.258,47.227,47.387c0,26.129-21.186,47.386-47.227,47.386
				c-26.034,0-47.214-21.257-47.214-47.386C2.359,23.972,23.539,2.714,49.572,2.714 M49.572,0.714
				c-27.136,0-49.214,22.155-49.214,49.387c0,27.231,22.077,49.386,49.214,49.386c27.144,0,49.227-22.154,49.227-49.386
				C98.799,22.869,76.716,0.714,49.572,0.714L49.572,0.714z"/>
		</g>
	</g>
	<g id="ichtus-logo-fish">
		<path fill="#3176A2" d="M30.985,20.171c0,0,0,0.847,0,1.887c0,1.041,0.037,2.172,0.084,2.516c0.048,0.346,0.139,0.858,0.209,1.134
			c0.069,0.277,0.202,0.583,0.294,0.673c0.091,0.092,0.353,0.207,0.587,0.25c0.23,0.048,0.625,0.084,0.876,0.084
			c0.255,0,0.609-0.092,0.796-0.209c0.186-0.114,0.466-0.358,0.627-0.545c0.16-0.186,0.385-0.504,0.502-0.713
			c0.117-0.207,0.3-0.528,0.418-0.713c0.117-0.187,0.398-0.371,0.627-0.42c0.229-0.048,0.679-0.103,1.004-0.125
			c0.325-0.026,0.735-0.174,0.921-0.339c0.186-0.161,0.485-0.498,0.666-0.754c0.187-0.251,0.357-0.687,0.378-0.963
			c0.027-0.278,0.027-0.675,0-0.885c-0.02-0.207,0.223-0.374,0.542-0.374c0.324,0,0.776-0.097,1.005-0.209
			c0.234-0.117,0.533-0.381,0.671-0.587c0.139-0.21,0.212-0.509,0.165-0.675c-0.043-0.161-0.196-0.368-0.334-0.46
			c-0.138-0.095-0.401-0.188-0.587-0.21c-0.182-0.025-0.523,0.016-0.751,0.085c-0.23,0.07-0.533,0.237-0.672,0.375
			c-0.133,0.139-0.399,0.347-0.581,0.465c-0.187,0.112-0.412,0.112-0.502,0c-0.091-0.118-0.188-0.534-0.209-0.925
			c-0.023-0.394,0.014-0.884,0.083-1.092c0.069-0.21,0.181-0.528,0.25-0.715c0.068-0.181,0.031-0.444-0.085-0.584
			c-0.112-0.14-0.319-0.273-0.457-0.294c-0.138-0.027-0.382,0.028-0.548,0.125c-0.16,0.09-0.422,0.28-0.581,0.418
			c-0.161,0.139-0.387,0.383-0.502,0.544c-0.117,0.164-0.245,0.448-0.293,0.631c-0.048,0.185-0.122,0.601-0.165,0.923
			c-0.048,0.324-0.066,0.834-0.045,1.133c0.022,0.303,0.003,0.714-0.039,0.922c-0.048,0.208-0.14,0.491-0.209,0.63
			c-0.07,0.137-0.24,0.327-0.379,0.418c-0.138,0.096-0.345,0.304-0.462,0.464c-0.113,0.161-0.302,0.465-0.419,0.673
			c-0.112,0.209-0.245,0.546-0.288,0.755c-0.048,0.208-0.163,0.434-0.254,0.504c-0.092,0.068-0.243,0.051-0.334-0.044
			c-0.089-0.092-0.167-0.374-0.167-0.63c0-0.251,0.019-0.839,0.044-1.297c0.021-0.464,0.021-1.126,0-1.474
			c-0.025-0.346-0.136-0.74-0.254-0.878c-0.112-0.139-0.319-0.253-0.457-0.253c-0.138,0-0.401,0.076-0.587,0.169
			c-0.187,0.09-0.333,0.17-0.333,0.17"/>
		<path fill="#3176A2" d="M47.968,18.364c0.181-0.113,0.504-0.362,0.711-0.543c0.207-0.187,0.409-0.469,0.457-0.629
			c0.048-0.167,0.03-0.428-0.04-0.589c-0.069-0.161-0.259-0.426-0.417-0.59c-0.16-0.161-0.367-0.387-0.462-0.503
			c-0.091-0.114-0.147-0.397-0.125-0.629c0.022-0.23-0.033-0.609-0.124-0.839c-0.091-0.231-0.28-0.554-0.418-0.714
			c-0.138-0.161-0.479-0.406-0.756-0.544c-0.276-0.14-0.727-0.237-0.999-0.21c-0.278,0.021-0.691,0.174-0.921,0.334
			c-0.234,0.16-0.588,0.484-0.795,0.714c-0.209,0.23-0.508,0.553-0.672,0.714c-0.161,0.16-0.386,0.367-0.503,0.459
			c-0.113,0.094-0.246,0.094-0.29,0c-0.048-0.092-0.102-0.489-0.128-0.879c-0.021-0.394-0.04-1.075-0.04-1.512
			c0-0.438-0.133-1.026-0.293-1.3c-0.16-0.275-0.63-0.691-1.046-0.921c-0.415-0.234-1.018-0.407-1.337-0.38
			c-0.325,0.021-0.887,0.23-1.254,0.459c-0.372,0.234-0.842,0.553-1.05,0.714c-0.208,0.165-0.488,0.447-0.627,0.629
			c-0.138,0.186-0.419,0.357-0.626,0.38c-0.207,0.02-0.506-0.108-0.667-0.294c-0.164-0.183-0.445-0.657-0.627-1.049
			c-0.186-0.39-0.522-0.866-0.756-1.048c-0.23-0.187-0.681-0.377-1.005-0.42c-0.319-0.047-0.752,0.026-0.959,0.165
			c-0.209,0.138-0.452,0.461-0.543,0.713c-0.095,0.256-0.188,0.727-0.21,1.051c-0.026,0.322-0.044,0.776-0.044,1.006
			c0,0.234-0.055,0.609-0.125,0.838c-0.069,0.235-0.198,0.608-0.293,0.844c-0.091,0.23-0.335,0.609-0.544,0.838
			c-0.206,0.23-0.566,0.571-0.794,0.754c-0.23,0.186-0.699,0.542-1.045,0.798c-0.347,0.25-0.871,0.612-1.169,0.797
			c-0.304,0.183-0.696,0.505-0.881,0.715c-0.186,0.203-0.351,0.735-0.377,1.172c-0.022,0.438-0.078,1.215-0.126,1.721
			c-0.048,0.507-0.066,1.339-0.039,1.846c0.021,0.508,0.058,1.396,0.079,1.972c0.026,0.578,0.064,1.448,0.086,1.933
			c0.026,0.482,0.062,1.123,0.083,1.421c0.027,0.305-0.015,0.721-0.083,0.924c-0.07,0.208-0.295,0.551-0.498,0.758
			c-0.209,0.21-0.568,0.624-0.797,0.924c-0.234,0.3-0.607,0.809-0.841,1.133c-0.23,0.321-0.584,0.835-0.791,1.134
			c-0.208,0.3-0.452,0.771-0.547,1.048c-0.09,0.277-0.238,0.786-0.333,1.133c-0.091,0.346-0.165,1.1-0.165,1.677
			c0,0.578-0.018,1.732-0.045,2.56c-0.021,0.833-0.003,2.077,0.045,2.77c0.043,0.694,0.122,1.655,0.165,2.142
			c0.048,0.484,0.139,1.183,0.21,1.551c0.069,0.368,0.239,0.84,0.377,1.05c0.139,0.207,0.438,0.49,0.672,0.629
			c0.228,0.137,0.619,0.309,0.875,0.378c0.255,0.07,0.647-0.004,0.881-0.17c0.229-0.16,0.547-0.331,0.706-0.373
			c0.165-0.048,0.483-0.03,0.711,0.039c0.234,0.07,0.589,0.143,0.797,0.169c0.207,0.022,0.547,0.004,0.75-0.042
			c0.209-0.044,0.475,0.011,0.588,0.127c0.117,0.114,0.246,0.303,0.294,0.42c0.047,0.114,0.01,0.36-0.085,0.546
			c-0.091,0.185-0.298,0.371-0.459,0.418c-0.159,0.048-0.499,0.066-0.75,0.041c-0.256-0.023-0.671-0.078-0.926-0.125
			c-0.251-0.044-0.647-0.062-0.876-0.04c-0.228,0.02-0.587,0.209-0.794,0.419c-0.208,0.207-0.433,0.564-0.503,0.797
			c-0.069,0.231-0.069,0.609,0,0.84c0.069,0.228,0.276,0.547,0.462,0.712c0.181,0.161,0.633,0.423,0.999,0.585
			c0.373,0.166,0.842,0.258,1.049,0.214c0.209-0.048,0.641-0.182,0.961-0.295c0.325-0.117,0.794-0.325,1.045-0.464
			c0.255-0.139,0.688-0.366,0.964-0.504c0.277-0.139,0.838-0.328,1.254-0.418c0.415-0.092,1.165-0.262,1.672-0.375
			c0.505-0.119,1.26-0.4,1.675-0.635c0.416-0.23,0.996-0.586,1.294-0.793c0.298-0.21,0.749-0.626,1.005-0.925
			c0.255-0.303,0.609-0.904,0.796-1.343c0.182-0.442,0.426-1.177,0.543-1.636c0.117-0.463,0.245-1.199,0.293-1.637
			c0.048-0.438,0.006-1.196-0.084-1.676c-0.091-0.486-0.279-1.245-0.418-1.682c-0.138-0.436-0.456-1.026-0.712-1.303
			c-0.25-0.272-0.683-0.559-0.96-0.629c-0.277-0.07-0.654-0.088-0.834-0.04c-0.187,0.047-0.486,0.177-0.672,0.294
			c-0.186,0.112-0.467,0.302-0.628,0.419c-0.159,0.117-0.385,0.247-0.502,0.295c-0.116,0.043-0.324-0.068-0.457-0.255
			c-0.139-0.182-0.479-0.446-0.756-0.584c-0.275-0.14-0.727-0.292-1.004-0.339c-0.278-0.043-0.668-0.006-0.878,0.085
			c-0.206,0.09-0.529,0.318-0.71,0.504c-0.187,0.187-0.412,0.542-0.502,0.798c-0.09,0.251-0.168,0.65-0.168,0.879
			c0,0.234,0.059,0.59,0.128,0.798c0.069,0.207,0.234,0.508,0.373,0.674c0.138,0.159,0.443,0.386,0.672,0.504
			c0.229,0.112,0.662,0.186,0.961,0.165c0.298-0.023,0.749-0.095,1.004-0.165c0.25-0.071,0.573-0.302,0.711-0.504
			c0.138-0.208,0.363-0.552,0.502-0.759c0.139-0.208,0.327-0.472,0.418-0.585c0.09-0.117,0.28-0.252,0.417-0.294
			c0.139-0.047,0.291,0.066,0.334,0.25c0.048,0.187,0.103,0.542,0.124,0.798c0.026,0.256,0.063,0.839,0.085,1.303
			c0.025,0.46,0.044,1.176,0.044,1.593c0,0.416-0.06,0.998-0.13,1.303c-0.069,0.298-0.235,0.733-0.373,0.963
			c-0.138,0.23-0.461,0.627-0.711,0.882c-0.256,0.251-0.652,0.575-0.88,0.714c-0.23,0.133-0.607,0.268-0.836,0.29
			c-0.229,0.026-0.51-0.047-0.627-0.165c-0.116-0.117-0.19-0.343-0.169-0.504c0.026-0.159,0.138-0.441,0.255-0.627
			c0.111-0.187,0.245-0.543,0.293-0.798c0.043-0.257,0.043-0.632,0-0.839c-0.048-0.208-0.273-0.51-0.502-0.673
			c-0.234-0.162-0.607-0.29-0.836-0.29c-0.234,0-0.588,0.055-0.795,0.125c-0.209,0.068-0.471,0.235-0.588,0.375
			c-0.112,0.138-0.246,0.406-0.293,0.589c-0.043,0.187-0.195,0.334-0.334,0.334c-0.138,0-0.42-0.111-0.627-0.25
			c-0.207-0.139-0.567-0.31-0.796-0.379c-0.229-0.07-0.57-0.145-0.752-0.165c-0.184-0.027-0.502,0.01-0.71,0.08
			c-0.207,0.07-0.451,0.092-0.541,0.044c-0.096-0.048-0.206-0.331-0.254-0.629c-0.048-0.3-0.14-1.886-0.211-3.529
			c-0.069-1.64-0.031-3.434,0.085-3.983c0.117-0.554,0.319-1.369,0.458-1.807c0.138-0.437,0.479-1.136,0.756-1.552
			c0.276-0.416,0.782-1.079,1.128-1.468c0.347-0.394,0.854-0.996,1.13-1.342c0.278-0.347,0.558-0.875,0.627-1.178
			c0.069-0.298,0.162-0.844,0.209-1.214c0.048-0.371,0.006-1.407-0.084-2.31c-0.091-0.901-0.188-2.372-0.21-3.274
			c-0.021-0.898-0.002-1.976,0.04-2.391c0.048-0.416,0.2-0.905,0.337-1.093c0.138-0.182,0.475-0.487,0.751-0.668
			c0.277-0.187,0.728-0.562,1.005-0.838c0.277-0.278,0.71-0.694,0.96-0.925c0.256-0.228,0.61-0.627,0.796-0.882
			c0.185-0.252,0.448-0.613,0.586-0.798c0.138-0.183,0.346-0.353,0.459-0.375c0.116-0.027,0.342,0.015,0.502,0.085
			c0.16,0.07,0.445,0.142,0.627,0.164c0.186,0.024,0.559-0.052,0.835-0.164c0.276-0.117,0.765-0.345,1.089-0.504
			c0.325-0.165,0.831-0.429,1.13-0.589c0.299-0.161,0.787-0.369,1.089-0.461c0.298-0.094,0.713-0.15,0.921-0.128
			c0.202,0.026,0.47,0.21,0.582,0.42c0.118,0.206,0.191,0.737,0.168,1.175c-0.02,0.438-0.003,1.082,0.041,1.429
			c0.048,0.345,0.181,0.758,0.293,0.924c0.118,0.159,0.514,0.289,0.88,0.289c0.368,0,0.874-0.13,1.131-0.289
			c0.251-0.166,0.646-0.411,0.876-0.549c0.234-0.14,0.551-0.365,0.711-0.504c0.16-0.14,0.391-0.177,0.502-0.08
			c0.118,0.09,0.247,0.298,0.295,0.46c0.046,0.16,0.023,0.387-0.04,0.504c-0.069,0.117-0.129,0.398-0.129,0.629
			c0,0.23,0.059,0.553,0.129,0.713c0.064,0.161,0.33,0.387,0.582,0.504c0.255,0.112,0.688,0.191,0.964,0.169
			C47.409,18.593,47.781,18.481,47.968,18.364z"/>
		<path fill="#3176A2" d="M42.745,19.227c-0.109,0.096-0.266,0.281-0.349,0.409c-0.077,0.126-0.172,0.418-0.206,0.643
			c-0.027,0.225,0.01,0.607,0.089,0.848c0.08,0.239,0.291,0.582,0.467,0.759c0.175,0.175,0.495,0.415,0.702,0.526
			c0.209,0.114,0.562,0.206,0.785,0.206c0.225,0,0.629-0.078,0.904-0.174c0.275-0.096,0.769-0.267,1.108-0.382
			c0.337-0.111,0.926-0.297,1.309-0.407c0.386-0.116,1.108-0.245,1.609-0.295c0.494-0.05,1.217-0.05,1.6,0
			c0.385,0.05,1.056,0.103,1.484,0.119c0.434,0.016,1.053,0.121,1.37,0.232c0.324,0.116,0.877,0.31,1.229,0.437
			c0.35,0.132,1.031,0.409,1.514,0.617c0.484,0.211,1.244,0.483,1.69,0.613c0.449,0.128,1.106,0.285,1.456,0.352
			c0.357,0.065,0.999,0.102,1.428,0.087c0.438-0.018,1.119-0.085,1.52-0.145c0.4-0.066,0.99-0.305,1.309-0.531
			c0.323-0.224,0.818-0.669,1.108-0.993c0.291-0.319,0.696-0.888,0.905-1.257c0.207-0.369,0.573-0.999,0.815-1.401
			c0.241-0.407,0.661-1.075,0.936-1.493c0.272-0.419,0.677-1.012,0.902-1.319c0.225-0.303,0.473-0.528,0.554-0.495
			c0.079,0.032,0.16,0.242,0.176,0.469c0.015,0.225,0.091,1.014,0.175,1.756c0.077,0.738,0.197,1.78,0.261,2.308
			c0.065,0.532,0.089,1.179,0.056,1.432c-0.033,0.259-0.094,0.603-0.144,0.763c-0.049,0.158-0.19,0.398-0.323,0.525
			c-0.126,0.132-0.464,0.351-0.755,0.499c-0.291,0.143-0.68,0.339-0.878,0.437c-0.191,0.095-0.425,0.281-0.523,0.407
			c-0.094,0.13-0.228,0.38-0.294,0.555c-0.06,0.178-0.075,0.431-0.025,0.556c0.049,0.128,0.191,0.352,0.319,0.502
			c0.131,0.142,0.378,0.367,0.554,0.495c0.176,0.131,0.518,0.379,0.759,0.555c0.241,0.176,0.622,0.431,0.842,0.557
			c0.225,0.127,0.515,0.381,0.643,0.557c0.131,0.175,0.311,0.558,0.408,0.848c0.095,0.289,0.176,0.843,0.176,1.227
			c0,0.387-0.067,1.017-0.144,1.405c-0.083,0.387-0.202,0.884-0.267,1.109c-0.06,0.226-0.232,0.595-0.375,0.82
			c-0.147,0.226-0.329,0.42-0.41,0.442c-0.078,0.012-0.24-0.065-0.35-0.174c-0.109-0.116-0.319-0.38-0.466-0.589
			c-0.142-0.207-0.405-0.708-0.581-1.11c-0.18-0.402-0.428-1.086-0.554-1.52c-0.133-0.435-0.366-1.159-0.529-1.609
			c-0.158-0.45-0.421-1.11-0.579-1.461c-0.159-0.356-0.464-0.801-0.672-0.995c-0.209-0.198-0.59-0.407-0.843-0.468
			c-0.257-0.067-0.638-0.133-0.847-0.149c-0.209-0.018-0.485,0.013-0.612,0.062c-0.131,0.044-0.34,0.192-0.466,0.318
			c-0.132,0.127-0.274,0.394-0.323,0.588c-0.045,0.192-0.088,0.599-0.088,0.905c0,0.302,0.028,0.777,0.061,1.051
			c0.033,0.274,0.019,0.658-0.031,0.85c-0.05,0.193-0.153,0.523-0.231,0.732c-0.082,0.207-0.305,0.6-0.498,0.875
			c-0.191,0.276-0.52,0.681-0.729,0.907c-0.209,0.225-0.851,0.751-1.427,1.17c-0.576,0.418-1.457,1.009-1.956,1.318
			c-0.495,0.302-1.412,0.856-2.039,1.226c-0.624,0.373-1.663,0.966-2.304,1.317c-0.637,0.353-1.623,0.893-2.182,1.201
			c-0.564,0.304-1.142,0.656-1.284,0.789c-0.147,0.126-0.329,0.338-0.41,0.469c-0.079,0.126-0.197,0.349-0.263,0.495
			c-0.064,0.146-0.155,0.315-0.206,0.38c-0.044,0.066-0.312,0.156-0.58,0.206c-0.273,0.05-0.731,0.155-1.021,0.232
			c-0.291,0.082-0.71,0.254-0.935,0.381c-0.219,0.131-0.539,0.38-0.698,0.556c-0.158,0.176-0.369,0.491-0.466,0.701
			c-0.095,0.208-0.176,0.523-0.176,0.704c0,0.177,0.053,0.455,0.118,0.614c0.065,0.159,0.246,0.37,0.406,0.468
			c0.164,0.094,0.479,0.199,0.703,0.231c0.225,0.034,0.563,0.058,0.755,0.058c0.192,0,0.453,0.041,0.584,0.088
			c0.128,0.049,0.246,0.168,0.263,0.266c0.015,0.095,0.015,0.267,0,0.377c-0.016,0.115-0.134,0.245-0.263,0.294
			c-0.131,0.048-0.574,0.034-0.991-0.031c-0.415-0.061-0.992-0.205-1.282-0.321c-0.291-0.11-0.71-0.334-0.935-0.499
			c-0.225-0.16-0.487-0.383-0.581-0.495c-0.097-0.111-0.135-0.312-0.086-0.438c0.044-0.13,0.163-0.342,0.26-0.468
			c0.094-0.128,0.176-0.381,0.176-0.557c0-0.177-0.091-0.454-0.205-0.614c-0.11-0.165-0.373-0.383-0.581-0.499
			c-0.209-0.111-0.537-0.215-0.728-0.233c-0.197-0.015-0.549-0.003-0.792,0.031c-0.241,0.03-0.623,0.176-0.843,0.32
			c-0.224,0.143-0.544,0.435-0.702,0.644c-0.16,0.208-0.303,0.615-0.319,0.908c-0.016,0.29,0.037,0.668,0.118,0.848
			c0.079,0.178,0.331,0.571,0.55,0.877c0.225,0.302,0.686,0.766,1.021,1.026c0.339,0.254,0.901,0.612,1.253,0.789
			c0.355,0.175,0.97,0.429,1.37,0.556c0.401,0.126,1.124,0.313,1.607,0.408c0.478,0.097,1.186,0.188,1.57,0.205
			c0.385,0.018,0.989-0.012,1.341-0.057c0.355-0.048,0.85-0.286,1.108-0.524c0.258-0.242,0.624-0.692,0.817-0.993
			c0.191-0.31,0.414-0.759,0.497-1c0.077-0.239,0.144-0.62,0.144-0.845c0-0.226-0.053-0.57-0.117-0.762
			c-0.061-0.194-0.209-0.538-0.319-0.759c-0.114-0.225-0.205-0.584-0.205-0.793c0-0.208,0.091-0.524,0.205-0.7
			c0.11-0.176,0.847-0.745,1.632-1.257c0.785-0.517,2.212-1.477,3.178-2.138c0.96-0.659,2.403-1.697,3.203-2.308
			c0.806-0.61,1.882-1.47,2.392-1.901c0.51-0.434,1.101-1.092,1.309-1.462c0.209-0.374,0.475-0.951,0.586-1.288
			c0.114-0.339,0.281-0.866,0.38-1.17c0.093-0.308,0.265-0.637,0.379-0.73c0.109-0.099,0.31-0.114,0.436-0.031
			c0.127,0.082,0.389,0.555,0.581,1.051c0.196,0.502,0.587,1.512,0.877,2.256c0.287,0.738,0.72,1.793,0.961,2.339
			c0.242,0.544,0.622,1.257,0.846,1.58c0.225,0.322,0.592,0.674,0.817,0.789c0.224,0.112,0.562,0.216,0.755,0.231
			c0.197,0.018,0.549-0.02,0.79-0.087c0.242-0.061,0.609-0.328,0.815-0.582c0.209-0.258,0.495-0.707,0.643-0.994
			c0.144-0.292,0.42-1.043,0.611-1.669c0.192-0.628,0.454-1.76,0.586-2.514c0.126-0.76,0.231-1.891,0.231-2.52
			c0-0.627-0.092-1.439-0.206-1.813c-0.11-0.369-0.425-0.923-0.698-1.226c-0.273-0.308-0.693-0.691-0.934-0.851
			c-0.242-0.159-0.436-0.384-0.436-0.496s0.186-0.374,0.41-0.584c0.219-0.21,0.496-0.554,0.61-0.764
			c0.111-0.207,0.283-0.614,0.38-0.906c0.095-0.287,0.162-0.813,0.146-1.168c-0.016-0.353-0.084-1.141-0.146-1.753
			c-0.064-0.614-0.222-1.523-0.353-2.019c-0.127-0.5-0.322-1.16-0.436-1.463c-0.111-0.308-0.201-0.781-0.201-1.055
			c0-0.271,0.052-0.667,0.113-0.876c0.066-0.21,0.141-0.553,0.175-0.762c0.034-0.204-0.087-0.548-0.262-0.758
			c-0.175-0.21-0.476-0.472-0.668-0.586c-0.191-0.111-0.496-0.216-0.672-0.233c-0.176-0.018-0.481-0.018-0.672,0
			c-0.192,0.016-0.531,0.122-0.755,0.233c-0.225,0.114-0.583,0.31-0.791,0.436c-0.208,0.132-0.547,0.409-0.755,0.619
			c-0.208,0.208-0.551,0.614-0.758,0.906c-0.209,0.287-0.484,0.789-0.611,1.109c-0.127,0.324-0.38,0.941-0.555,1.375
			c-0.176,0.434-0.48,1.107-0.673,1.494c-0.192,0.385-0.479,0.91-0.642,1.169c-0.159,0.257-0.459,0.716-0.668,1.025
			c-0.209,0.304-0.617,0.776-0.903,1.051c-0.291,0.275-0.681,0.629-0.874,0.788c-0.197,0.165-0.521,0.337-0.73,0.381
			c-0.206,0.05-0.603,0.064-0.877,0.031c-0.269-0.032-0.717-0.109-0.991-0.174c-0.274-0.066-0.783-0.276-1.135-0.468
			c-0.355-0.195-1.022-0.562-1.488-0.82c-0.466-0.257-1.228-0.68-1.689-0.936c-0.466-0.256-1.214-0.571-1.662-0.702
			c-0.45-0.127-1.355-0.352-2.013-0.495c-0.659-0.148-1.325-0.264-1.483-0.264c-0.16,0-0.503,0.011-0.76,0.027
			c-0.257,0.018-0.742,0.07-1.078,0.12c-0.335,0.047-0.797,0.153-1.021,0.23c-0.225,0.082-0.54,0.174-0.698,0.207
			c-0.16,0.033-0.36-0.048-0.437-0.174c-0.083-0.128-0.254-0.3-0.379-0.382c-0.128-0.078-0.432-0.183-0.673-0.232
			c-0.242-0.048-0.555-0.062-0.698-0.03C43.069,19.024,42.859,19.13,42.745,19.227z"/>
	</g>
	<g id="ichtus-logo-water">
		<path fill="#3176A2" d="M98.442,52.893c0,0-0.6,0.392-1.336,0.87c-0.734,0.478-1.975,1.081-2.757,1.345
			c-0.776,0.259-2.122,0.721-2.989,1.02c-0.867,0.306-2.319,0.662-3.227,0.793c-0.912,0.129-2.468,0.309-3.463,0.396
			c-0.992,0.087-2.374,0.191-3.07,0.238c-0.694,0.042-1.896-0.029-2.675-0.161c-0.78-0.127-2.016-0.449-2.753-0.709
			c-0.734-0.264-1.62-0.76-1.969-1.106c-0.345-0.346-0.771-0.989-0.943-1.421c-0.172-0.434-0.102-1.076,0.156-1.421
			c0.259-0.346,0.829-0.844,1.261-1.104c0.431-0.264,0.61-0.902,0.393-1.421c-0.213-0.523-0.888-1.413-1.497-1.976
			c-0.603-0.566-1.769-1.309-2.596-1.66c-0.821-0.346-2.132-0.632-2.909-0.632c-0.779,0-2.232,0.146-3.23,0.319
			c-0.993,0.173-2.835,0.705-4.087,1.183c-1.257,0.478-3.454,1.366-4.879,1.974c-1.429,0.609-3.836,1.427-5.352,1.814
			c-1.516,0.391-3.959,0.999-5.429,1.345c-1.475,0.345-3.776,0.879-5.115,1.184c-1.344,0.304-3.255,0.767-4.248,1.027
			c-0.998,0.259-2.627,0.404-3.62,0.313c-0.998-0.086-2.695-0.298-3.779-0.47c-1.08-0.173-2.606-0.566-3.383-0.87
			c-0.78-0.305-2.127-0.944-2.988-1.422c-0.867-0.478-1.928-1.221-2.363-1.658c-0.431-0.432-0.821-1.001-0.867-1.263
			c-0.041-0.26,0.17-0.507,0.473-0.552c0.303-0.042,0.799-0.152,1.102-0.238c0.301-0.088-0.015-0.76-0.71-1.498
			c-0.689-0.742-1.685-1.696-2.202-2.133c-0.523-0.433-1.263-0.999-1.653-1.264c-0.39-0.26-1.451-0.652-2.359-0.867
			c-0.912-0.217-2.398-0.288-3.306-0.16c-0.908,0.132-2.433,0.527-3.379,0.879c-0.951,0.351-2.579,0.959-3.619,1.341
			c-0.726,0.271-1.358,0.5-1.678,0.62c-0.001,0,0.039,0.032,0.046,0.044c-0.159,1.633-0.251,3.722-0.251,5.396
			c0,26.988,21.798,48.857,48.686,48.857c26.042,0,47.298-20.492,48.633-46.275C98.511,53.55,98.442,52.893,98.442,52.893z"/>
	</g>
	<g id="ichtus-logo-letters">
		<path fill="#FFFFFF" d="M13.997,65.972l4.221,13.471l-3.603,1.136l-4.221-13.47L13.997,65.972z"/>
		<path fill="#FFFFFF" d="M31.04,75.497c-0.472,0.364-1.679,0.986-3.329,1.36c-5.134,1.17-8.124-1.54-8.953-5.199
			c-1.102-4.862,1.885-8.14,5.974-9.078c1.59-0.361,2.944-0.346,3.579-0.172l-0.054,3.065c-0.665-0.105-1.555-0.159-2.658,0.09
			c-2.117,0.484-3.666,2.146-3.026,4.968c0.57,2.516,2.404,3.726,4.932,3.152c0.893-0.207,1.849-0.616,2.369-0.973L31.04,75.497z"/>
		<path fill="#FFFFFF" d="M37.881,60.822l-0.304,5.813l3.985,0.456l0.672-5.82l4.238,0.783l-2.01,13.991l-3.567-0.562l0.334-5.147
			l-3.682-0.449l-0.557,5.262l-3.572,0.335l0.557-14.547L37.881,60.822z"/>
		<path fill="#FFFFFF" d="M52.873,66.41l-3.511-0.757l0.568-2.816l5.8,1.119l5.129,1.233l-0.716,2.779l-3.575-0.766l-2.283,10.715
			l-3.697-0.796L52.873,66.41z"/>
		<path fill="#FFFFFF" d="M66.985,66.871l-1.218,7.911c-0.325,2.112,0.211,3.427,1.675,3.655c1.487,0.229,2.378-0.758,2.72-2.973
			l1.219-7.906l3.87,0.202l-1.326,8.078c-0.662,4.306-3.144,6.15-7.041,5.544c-3.819-0.592-5.5-2.995-4.806-7.489l1.235-7.92
			L66.985,66.871z"/>
		<path fill="#FFFFFF" d="M79.16,78.49c0.947,0.143,3.108-0.414,4.433-0.866c1.229-0.411,1.682-1.031,1.454-1.707
			c-0.221-0.653-0.944-0.83-2.619-0.839c-2.521-0.027-4.427-0.781-5.092-2.761c-0.796-2.366,0.566-4.86,3.932-5.998
			c1.601-0.545,2.83-0.626,3.854-0.533l0.209,3.115c-0.66-0.065-1.775-0.106-3.124,0.349c-1.085,0.37-1.547,0.964-1.344,1.56
			c0.226,0.675,1.029,0.711,2.923,0.779c2.689,0.064,4.214,0.987,4.84,2.852c0.772,2.304-0.45,4.653-4.256,6.214
			c-2.08,0.855-4.444,1.335-5.329,1.194L79.16,78.49z"/>
	</g>
</g>
</svg>
