<svg id="f29bba16-2fa5-4e17-b220-7f263edd2662" data-name="Calque 1" xmlns="http://www.w3.org/2000/svg" viewBox="0 0 1646.0985 243.3451"><defs><style>.ab1fcf76-6fab-41d8-8737-7403735fb0aa{fill:#fff;}</style></defs><title>LaRevueDurable-blanc</title><path class="ab1fcf76-6fab-41d8-8737-7403735fb0aa" d="M48.2162,49.2315H60.639v132.25h63.32v10.4194H48.2162Z"/><path class="ab1fcf76-6fab-41d8-8737-7403735fb0aa" d="M137.7865,101.1294c5.21-15.6294,17.2324-29.2553,40.0762-29.2553,30.0566,0,37.4707,20.8393,37.4707,40.4765v50.6958c0,10.62.6015,26.4492.8017,28.8545h-11.622l-.8018-18.8354c-9.418,10.4194-20.4385,21.24-38.6729,21.24-20.84,0-32.8623-14.2265-32.8623-32.8618,0-35.8677,32.8623-40.2759,63.32-40.2759h8.2149c-.6006-21.04-1.2022-38.8735-27.251-38.8735-18.2353,0-23.8457,12.8242-28.2539,22.2422Zm65.9248,29.6563h-7.8145c-29.456,0-51.2968,3.8071-51.2968,29.2549,0,17.4331,11.8222,23.0434,22.4423,23.0434,14.4268,0,22.4424-8.0146,36.669-21.8408Z"/><path class="ab1fcf76-6fab-41d8-8737-7403735fb0aa" d="M243.7914,49.2315h49.0927c24.4463,0,43.6827,12.0224,43.6827,38.2724,0,27.4517-18.836,34.064-26.05,36.4688l34.0644,67.9282H322.54l-29.4561-64.522H262.2259v64.522H243.7914Zm18.4345,63.3193h29.0547c20.84,0,26.8506-12.6235,26.8506-23.6445,0-23.8447-20.6387-24.8467-28.8545-24.8467H262.2259Z"/><path class="ab1fcf76-6fab-41d8-8737-7403735fb0aa" d="M373.8363,137.1978c.8018,31.86,15.63,43.081,31.46,43.081,19.2363,0,26.65-14.4272,28.4531-20.8393l15.43,5.41c-7.6143,18.2344-22.2422,29.4556-43.8828,29.4556-42.08,0-49.8946-37.6709-49.8946-61.7163,0-23.8452,7.8145-61.5161,49.8946-61.5161,34.0644,0,46.2871,29.4556,46.2871,57.3081v8.8169Zm59.3125-13.2251c0-21.24-9.6182-38.8735-28.4541-38.8735-18.4346,0-28.4531,14.6274-30.8584,38.8735Z"/><path class="ab1fcf76-6fab-41d8-8737-7403735fb0aa" d="M479.2386,73.4771l20.6387,67.728c3.2061,10.42,5.21,17.4331,9.418,33.0625h1.0019c4.208-15.6294,6.0108-22.6426,9.418-33.0625l21.6406-67.728h17.6328L520.3158,191.9009H498.475L459.6009,73.4771Z"/><path class="ab1fcf76-6fab-41d8-8737-7403735fb0aa" d="M660.3832,191.9009H642.7494V172.6646c-9.6182,8.6162-22.042,21.6406-40.0752,21.6406-18.2354,0-29.4561-11.0205-29.2559-33.4629V73.4771h17.6338V154.43c0,12.0225,2.8047,23.8452,17.4326,23.8452,16.4307,0,27.0508-12.0229,34.2647-20.4389V73.4771h17.6338Z"/><path class="ab1fcf76-6fab-41d8-8737-7403735fb0aa" d="M700.4584,137.1978c.8017,31.86,15.63,43.081,31.46,43.081,19.2364,0,26.65-14.4272,28.4531-20.8393l15.43,5.41c-7.6142,18.2344-22.2422,29.4556-43.8828,29.4556-42.08,0-49.8945-37.6709-49.8945-61.7163,0-23.8452,7.8144-61.5161,49.8945-61.5161,34.0645,0,46.2871,29.4556,46.2871,57.3081v8.8169Zm59.3125-13.2251c0-21.24-9.6182-38.8735-28.4541-38.8735-18.4346,0-28.4532,14.6274-30.8584,38.8735Z"/><path class="ab1fcf76-6fab-41d8-8737-7403735fb0aa" d="M799.0433,49.2315h58.5108c43.6826,0,71.1347,24.0454,71.1347,70.333,0,49.0928-30.6582,72.3364-73.94,72.3364H799.0433Zm39.2744,113.414h12.2237c28.2529,0,36.8691-15.8295,36.8691-42.0791,0-23.8452-10.62-42.0795-36.4687-42.0795H838.3177Z"/><path class="ab1fcf76-6fab-41d8-8737-7403735fb0aa" d="M1055.5287,191.9009h-37.6709V177.8746c-16.4317,13.4248-24.0459,16.831-37.4707,16.831-23.2442,0-30.2578-15.8291-30.2578-36.8691V71.0728h37.6718v79.55c0,8.0151,2.2041,13.2246,11.2207,13.2246,6.6123,0,10.82-3.0054,18.836-10.0186V71.0728h37.6709Z"/><path class="ab1fcf76-6fab-41d8-8737-7403735fb0aa" d="M1080.9779,71.0728H1118.65V90.5093h.4c7.6142-15.2285,24.4462-20.8393,32.4609-20.8393a39.174,39.174,0,0,1,6.8135.601v33.8643c-2.2041-1.002-5.6114-1.8037-12.2237-1.8037-11.8222,0-21.24,5.01-27.4511,13.4253v76.144h-37.6719Z"/><path class="ab1fcf76-6fab-41d8-8737-7403735fb0aa" d="M1267.33,170.6607c0,7.2139.2,15.6289.8008,21.24h-36.4687c-.2-5.21-.8018-11.2212-.8018-15.6294h-.6006c-8.2158,8.0152-19.8379,18.4341-34.0644,18.4341-26.8506,0-34.4649-22.041-34.4649-36.4683,0-30.0566,25.8487-43.2817,54.3028-43.2817,4.8086,0,10.2187.4009,14.2265.8013V111.95c0-11.6215-3.0058-18.4345-14.8281-18.4345-11.0205,0-15.0283,8.416-16.4307,16.23l-33.4638-9.6181c1.8037-5.61,10.42-31.86,51.6982-31.86,39.2734,0,50.0947,21.44,50.0947,51.898Zm-37.07-14.6275V138.6c-4.4082-.4008-9.2178-.8012-13.0244-.8012-11.6221,0-19.0361,6.2114-19.0361,16.23,0,7.0132,5.01,11.8223,12.0224,11.8223C1218.6381,165.8516,1225.25,160.2412,1230.26,156.0332Z"/><path class="ab1fcf76-6fab-41d8-8737-7403735fb0aa" d="M1292.3773,36.2071h37.6719V83.2959c9.6181-8.2158,17.4326-15.0283,32.2607-15.0283,35.4668,0,42.0791,34.4649,42.0791,61.5161,0,30.4575-6.6123,64.9219-41.0771,64.9219-9.418,0-20.0381-2.2041-33.2627-15.6289v12.8242h-37.6719Zm37.6719,121.2285c5.0088,4.6089,9.6181,9.2178,17.833,9.2178,16.832,0,18.0342-22.6431,18.0342-33.6636,0-15.0283-.8018-36.6694-18.4346-36.6694-7.6143,0-12.2236,4.208-17.4326,9.8183Z"/><path class="ab1fcf76-6fab-41d8-8737-7403735fb0aa" d="M1425.6312,36.2071h37.6709V191.9009h-37.6709Z"/><path class="ab1fcf76-6fab-41d8-8737-7403735fb0aa" d="M1595.9525,132.188v9.6182h-74.9414c0,8.0151,0,26.0493,18.8359,26.0493,12.2227,0,16.4307-9.0171,19.0352-14.6274l31.86,10.4194c-10.82,22.8433-26.8505,31.0581-51.497,31.0581-47.8907,0-56.7071-40.8765-56.7071-62.7178,0-35.0664,19.4366-63.72,56.7071-63.72C1570.9056,68.2676,1595.9525,87.3033,1595.9525,132.188Zm-37.07-15.0283c-.4-7.6143-2.2041-23.6445-18.2344-23.6445-17.6328,0-19.6367,16.23-19.6367,23.6445Z"/></svg>