<?xml version="1.0" encoding="utf-8"?>
<!-- Generator: Adobe Illustrator 22.0.1, SVG Export Plug-In . SVG Version: 6.00 Build 0)  -->
<svg version="1.1" id="Calque_1" xmlns="http://www.w3.org/2000/svg" xmlns:xlink="http://www.w3.org/1999/xlink" x="0px" y="0px"
	 viewBox="0 0 136.6 94.3" style="enable-background:new 0 0 136.6 94.3;" xml:space="preserve">
<g>
	<g>
		<g>
			<path style="fill:#A4CE4C;" d="M46.4,65.8c1-0.5,2.1-1.1,3.1-1.6c2.9-1.5,5.7-3,8.6-4.5c1-0.5,1.9-1,2.8-1.5c0,0,0-0.1,0.1-0.1
				c0.2-0.4,0.4-0.8,0.5-1.1c-1.1,0.6-2.3,1.3-3.4,1.9c-2.9,1.6-5.9,3.1-8.8,4.6c-1.1,0.6-2.2,1.1-3.2,1.7L46.4,65.8L46.4,65.8z"/>
			<path style="fill:#A4CE4C;" d="M34.3,73.1c1.3-0.9,2.6-1.9,4.1-2.8c0,0,0-0.1,0-0.1c0.9-0.6,1.9-1.1,2.9-1.7
				c0.1,0,0.2-0.1,0.2-0.1c0,0,0,0.1,0,0.1c0,0,0,0,0,0c0.8-0.4,1.6-0.9,2.4-1.3l-0.3-0.7c-0.7,0.4-1.3,0.7-1.9,1.1
				c-0.2,0.1-0.5,0.3-0.8,0.4c-0.8,0.5-1.6,0.9-2.3,1.4c-1.8,1.1-3.4,2.1-4.8,3.3c-2.1,1.6-3.8,3.2-5,5c-0.5,0.6-0.9,1.3-1.2,2h0.9
				c0.3-0.6,0.6-1.1,1-1.6C30.6,76.2,32.2,74.6,34.3,73.1z"/>
			<path style="fill:#A4CE4C;" d="M64.4,60c0.1,1.4,0.3,3.2,0.5,5.1c0.2-0.4,0.4-0.8,0.5-1.1c0.9-2.1,1.7-4,2.2-5.9
				c0.5-1.8,0.8-3.4,0.9-4.7c0.8-0.6,1.5-1.1,2.2-1.6c0.6-0.5,1.2-0.9,1.8-1.3c0.6-0.4,1.1-0.9,1.7-1.3c0.6-0.4,1.2-0.9,1.8-1.4
				c0.2-0.1,0.3-0.2,0.3-0.3c0-0.1,0-0.2-0.1-0.3C76.1,47,76,47,75.9,46.9c-0.2,0-0.3,0.1-0.5,0.2c-0.5,0.4-1.1,0.9-1.6,1.2
				c-0.5,0.4-1.1,0.8-1.6,1.2c-0.5,0.4-1.1,0.8-1.7,1.3c-0.6,0.5-1.2,0.9-1.9,1.5c0-0.7-0.2-1.2-0.3-1.7c-0.2-0.4-0.5-0.8-0.9-1
				c0.6-0.5,1-1,1.1-1.7c0.1-0.7,0-1.3-0.3-1.9c-0.3-0.6-0.8-1-1.4-1.4c-0.6-0.3-1.4-0.4-2.3-0.2c-0.7,0.2-1.4,0.5-2.2,1
				c-0.8,0.5-1.7,1.2-2.8,2c-0.2,0.1-0.3,0.3-0.3,0.4c0,0.1,0,0.2,0.1,0.3c0.1,0.1,0.2,0.1,0.3,0.1c0.2,0,0.3-0.1,0.5-0.3
				c0.6-0.5,1.2-0.9,1.6-1.2c0.4-0.3,0.8-0.6,1.1-0.8c0.3-0.2,0.6-0.3,0.8-0.4c0.2-0.1,0.5-0.2,0.8-0.2c0.5-0.1,0.9,0,1.2,0.2
				c0.3,0.2,0.5,0.5,0.6,0.9c0.1,0.4,0.1,0.8,0,1.2c-0.1,0.4-0.3,0.8-0.6,1.2c-0.3,0.4-0.7,0.7-1.2,1c-0.4,0.2-0.9,0.5-1.3,0.7
				c-0.2,0.1-0.4,0.2-0.4,0.4c-0.1,0.1-0.1,0.3,0,0.4c0,0.1,0.1,0.1,0.3,0.2c0.1,0,0.3,0,0.5-0.1c1.2-0.5,2-0.6,2.4-0.1
				c0.4,0.5,0.6,1.3,0.4,2.6c-0.9,0.6-1.8,1.1-2.7,1.7c0,0,0.1,0.1,0.1,0.1c0.1,0.1,0.1,0.2,0.1,0.3c0,0.1,0.1,0.2,0.1,0.3
				c0.7-0.4,1.4-0.9,2.2-1.3c-0.3,1.2-0.8,2.7-1.5,4.3C64.6,59.5,64.5,59.7,64.4,60z"/>
			<path style="fill:#A4CE4C;" d="M61.9,64.9c-1,1.8-2.2,3.6-3.4,5.5c-0.1,0.2-0.3,0.4-0.5,0.6l-0.3,0.6l-4.1,8.7
				c0,0-0.7,1.5-0.7,1.5c-0.1,0.2-0.1,0.3-0.3,0.4c-0.1,0.1-0.3,0.3-0.7,0.3c-0.2,0-0.7-0.1-1-0.7l-0.7-1.5
				c-0.4,0.4-0.8,0.8-1.2,1.2c-1.8,1.7-3.6,3.2-5.6,4.5c-2.5,1.7-4.7,2.7-6.7,3.1c-2,0.4-3.7,0.4-5.1,0c-1.4-0.4-2.5-1.2-3.2-2.4
				c-0.7-1.1-1.1-2.4-1-3.9c0-0.2,0-0.4,0.1-0.6h-0.8c0,0.2,0,0.4,0,0.6c0,1.1,0.1,2.1,0.5,3.2c0.4,1.1,1,2,1.7,2.9
				c0.8,0.9,1.7,1.6,2.8,2.1c1.1,0.5,2.4,0.9,3.8,0.9c1.4,0.1,3-0.2,4.7-0.7c1.7-0.5,3.5-1.4,5.4-2.8c2.3-1.5,4.4-3.3,6.4-5.3
				c2-2,3.8-4,5.5-6.2c1.7-2.2,3.2-4.4,4.5-6.6c0.1-0.2,0.2-0.4,0.4-0.6l0-0.1L61.9,64.9z"/>
			<path style="fill:#A4CE4C;" d="M29.7,55.3l0.1-0.1v0l0.4-0.9c0.4-0.7,0.8-1.4,1.4-2.2c0.6-0.8,1.2-1.6,1.8-2.3
				c0.6-0.7,1.2-1.3,1.8-1.8c0.6-0.5,1-0.7,1.3-0.7c0.5,0,0.7,0.1,0.8,0.4c0.1,0.3,0,0.7-0.2,1.2c-0.2,0.5-0.5,1.1-0.8,1.8
				c-0.4,0.7-0.7,1.5-1.1,2.3c-0.4,0.8-0.7,1.7-1,2.6C34.1,55.7,34,55.8,34,56h0.2c0.7,0,1.1,0.4,1.1,1.1v0.6c0,0.3-0.1,0.6-0.3,0.8
				c-0.2,0.2-0.5,0.3-0.9,0.3h-0.7c0,0.3,0,0.6,0.1,0.9c0.1,0.5,0.2,1,0.4,1.4c0.2,0.4,0.5,0.7,0.8,1c0.3,0.2,0.7,0.3,1.2,0.3
				c0.5,0,1.1-0.2,1.7-0.6c0.6-0.4,1.1-0.9,1.7-1.5c0.1-0.7,0.1-1.4,0.2-2c-0.2,0.2-0.3,0.4-0.5,0.6c-0.4,0.5-0.8,1-1.2,1.3
				c-0.4,0.3-0.6,0.5-0.9,0.5c-0.5,0-0.7-0.2-0.7-0.5c0-0.3,0.1-0.8,0.3-1.3c0.2-0.5,0.5-1.2,0.9-1.9c0.4-0.7,0.8-1.5,1.1-2.3
				c0.4-0.8,0.7-1.7,1-2.5c0.3-0.9,0.5-1.7,0.5-2.4c0.2-1.2,0-2.3-0.4-3.1c-0.4-0.8-1.1-1.2-2-1.2c-0.7,0-1.5,0.3-2.3,1
				c-0.7,0.6-1.5,1.2-2.2,2c0.3-1,0.7-2.1,1.1-3.2c0.2-0.6,0.5-1.2,0.8-1.9h0c0,0,0.1-0.2,0.1-0.2S36,41,36,41
				c1.1,0,2.4-0.2,3.7-0.4c0,0,0.1,0,0.1,0c0,0,0.1,0,0.1,0c1.3-0.3,2.6-0.7,3.9-1.2c1.4-0.6,2.7-1.3,4-2.2c1.3-0.9,2.5-2.1,3.6-3.5
				c1.3-1.7,2.3-3.4,2.9-5.1c0.6-1.7,1-3.3,1-4.7c0-1.5-0.2-2.7-0.7-3.7c-0.5-1-1.3-1.7-2.4-2c-1-0.3-2.2,0-3.6,0.6
				c-1.4,0.7-2.9,1.9-4.6,3.8c-1.6,1.8-3.4,4.4-5.3,7.6c-1.5,2.6-3.2,5.9-4.8,9.7l0,0l0,0.1c0,0,0,0,0,0.1c-0.2,0-0.4,0.1-0.5,0.2
				c-0.1,0.1-0.2,0.3-0.2,0.4c0,0.1,0,0.3,0.2,0.4c0,0,0,0,0.1,0l-1,2l-0.2,0.4h0c-1.9,3.8-4.7,9.4-6.3,12.7h3.6
				C29.5,55.8,29.6,55.6,29.7,55.3z M41.4,30.3c1.6-2.6,3.1-4.7,4.5-6.2c1.4-1.5,2.6-2.5,3.7-3.1c1.1-0.5,2-0.7,2.6-0.5
				c0.7,0.2,1.2,0.6,1.5,1.4c0.4,0.8,0.5,1.7,0.4,2.9c-0.1,1.2-0.5,2.5-1.1,4c-0.6,1.5-1.5,3-2.7,4.5c-0.9,1.2-2.1,2.2-3.3,3
				c-1.3,0.8-2.6,1.5-3.9,2c-1.3,0.5-2.6,0.9-3.9,1.1c-1.1,0.2-2.1,0.3-2.9,0.4C38.2,36,39.9,32.8,41.4,30.3z"/>
			<path style="fill:#A4CE4C;" d="M41.6,55.8l0.4,0.8c0.2-0.3,0.4-0.5,0.5-0.8c0.5-0.8,0.9-1.5,1.2-2.1c0.3-0.7,0.6-1.2,0.8-1.6
				c0.1-0.2,0.1-0.3,0-0.4c-0.1-0.1-0.2-0.2-0.3-0.3c-0.1,0-0.3,0-0.4,0c-0.2,0-0.3,0.2-0.3,0.3c-0.1,0.4-0.4,0.9-0.7,1.5
				c-0.3,0.6-0.7,1.2-1.1,1.9c-0.1,0.1-0.2,0.3-0.3,0.4C41.5,55.6,41.6,55.7,41.6,55.8z"/>
			<path style="fill:#A4CE4C;" d="M24.4,60.8c0.2,0.7,0.5,1.1,0.9,1.4c0.4,0.3,0.8,0.4,1.2,0.4c0.4,0,0.7-0.1,0.9-0.3
				c0.2-0.2,0.3-0.4,0.2-0.6c-0.2-0.3-0.1-1.1,0.4-2.2c0.1-0.2,0.1-0.4,0.2-0.6h-3.7C24.3,59.8,24.3,60.4,24.4,60.8z"/>
			<path style="fill:#A4CE4C;" d="M16.1,62.7c-1,0.6-2,1.1-2.9,1.3c-1,0.2-1.9,0.3-2.7,0.1c-0.9-0.2-1.6-0.6-2.1-1.3
				c-0.8-0.8-1.2-2-1.4-3.5c-0.1-1.5-0.1-3.1,0.2-5c0.3-1.8,0.8-3.8,1.5-5.8c0.7-2,1.6-4,2.6-6c1-1.9,2.1-3.8,3.3-5.5
				c1.2-1.7,2.4-3.2,3.7-4.3c1.3-1.2,2.5-2,3.8-2.5c1.3-0.5,2.5-0.5,3.7-0.1c0.7,0.3,1.2,0.7,1.6,1.2c0.4,0.5,0.7,1.1,0.9,1.9
				c0.2,0.7,0.2,1.5,0.2,2.3c-0.1,0.8-0.3,1.7-0.6,2.6c0,0.1,0,0.2,0,0.3c0.1,0.1,0.1,0.1,0.2,0.2c0.1,0,0.2,0,0.3,0
				c0.1,0,0.2-0.1,0.2-0.2c0.9-2,1.3-3.8,1.4-5.6c0-1.8-0.4-3.2-1.4-4.3c-1.1-1.2-2.4-1.8-4.2-1.7c-1.7,0.1-3.5,0.6-5.4,1.7
				c-1.6,1-3.3,2.3-4.9,4.2c-1.6,1.8-3.1,3.8-4.5,6.1c-1.4,2.3-2.6,4.6-3.6,7.1c-1,2.5-1.8,4.9-2.2,7.2c-0.5,2.3-0.6,4.5-0.4,6.5
				c0.2,2,0.8,3.5,1.9,4.7c0.8,0.9,1.7,1.5,2.9,1.8c1.1,0.3,2.3,0.3,3.5,0.1c1.2-0.2,2.5-0.7,3.8-1.4c0.4-0.2,0.8-0.5,1.2-0.8v-1.7
				C16.5,62.5,16.3,62.6,16.1,62.7z"/>
			<path style="fill:#A4CE4C;" d="M23.7,52.4c0-0.1,0-0.3-0.1-0.3c-0.1-0.1-0.2-0.1-0.3-0.1c-0.1,0-0.2,0-0.3,0.1
				c-0.1,0-0.2,0.1-0.2,0.3c-0.3,1.4-0.7,2.6-1.2,3.8h1.1C23.1,54.9,23.5,53.7,23.7,52.4z"/>
			<path style="fill:#A4CE4C;" d="M20,58.9c-0.2,0.2-0.3,0.5-0.5,0.7v1.9c0.7-0.8,1.3-1.6,1.8-2.5H20z"/>
			<path style="fill:#A4CE4C;" d="M51.6,45.8c-0.9,0.5-1.6,1.1-2.3,1.9c-0.7,0.8-1.3,1.6-1.8,2.5c-0.5,0.9-0.9,1.8-1.2,2.6
				c-0.4,1.3-0.7,2.4-0.8,3.5c-0.1,1.1,0,2,0.3,2.8c0.3,0.8,0.8,1.4,1.5,1.8c0.7,0.4,1.7,0.7,2.8,0.7c0.8,0,1.7-0.2,2.5-0.7
				c0.8-0.4,1.6-1,2.4-1.7c0.7-0.7,1.4-1.5,2.1-2.3c0.7-0.9,1.2-1.7,1.7-2.5c0.1-0.2,0.1-0.4,0.1-0.5c-0.1-0.1-0.2-0.2-0.3-0.2
				c-0.2,0-0.3,0-0.5,0.1c-0.2,0.1-0.4,0.2-0.5,0.4c-0.4,0.7-0.9,1.4-1.4,2.1c-0.5,0.7-1.1,1.3-1.6,1.8c-0.6,0.5-1.1,1-1.7,1.3
				c-0.6,0.3-1.2,0.5-1.8,0.5c-0.7,0-1.2-0.2-1.5-0.5c-0.4-0.3-0.6-0.8-0.8-1.3c1.8-1.2,3.2-2.4,4.3-3.7c1.1-1.3,2-2.7,2.7-4.2
				c0.2-0.4,0.3-0.8,0.5-1.4c0.1-0.6,0.2-1.1,0.2-1.6c0-0.5-0.2-1-0.5-1.4C55.5,45.2,55,45,54.4,45C53.4,45,52.5,45.3,51.6,45.8z
				 M54.4,48.3c-0.1,0.3-0.2,0.6-0.3,1c-0.1,0.3-0.2,0.6-0.3,0.7c-0.3,0.8-0.6,1.4-1,2c-0.3,0.6-0.7,1.2-1.2,1.7
				c-0.4,0.5-0.9,1-1.4,1.5c-0.5,0.5-1.1,1-1.8,1.5c-0.1-0.5,0-1,0-1.6c0.1-0.5,0.2-1,0.4-1.5c0.1-0.4,0.4-1,0.7-1.7
				c0.3-0.7,0.7-1.5,1.2-2.1c0.5-0.7,1-1.3,1.5-1.8c0.5-0.5,1.1-0.8,1.6-0.8c0.3,0,0.5,0.1,0.6,0.4C54.5,47.8,54.5,48,54.4,48.3z"/>
		</g>
		<g>
			<path style="fill:#231F20;" d="M64.8,65c-0.2-1.9-0.3-3.7-0.5-5.1c-0.2-2.1-0.3-3.5-0.3-3.5c0,0,0-0.1,0-0.1
				c0-0.2-0.1-0.4-0.2-0.5c0-0.1-0.1-0.1-0.1-0.2c-0.2-0.2-0.4-0.3-0.7-0.3c-0.4,0-0.8,0.2-0.9,0.6c0,0-0.2,0.3-0.4,0.9
				C61.4,57,61.2,57.5,61,58c-2.5,5.3-8.9,18.5-8.9,18.5c-0.1,0.2-0.2,0.4-0.3,0.6l-5.5-11.4L46,65l-4.4-9.1
				c-0.2-0.4-0.5-0.6-0.9-0.6c-0.5,0-0.8,0.3-0.9,0.5c-0.1,0.2-0.2,0.4-0.2,0.6c0,0-0.6,6.5-1.2,12.8c0.8-0.5,1.5-0.9,2.3-1.4
				c0.2-0.1,0.5-0.3,0.8-0.4c0.1-1.7,0.3-3.2,0.4-4.3l1.6,3.3l0.3,0.7l6.3,13.2l0.7,1.5c0.3,0.6,0.7,0.7,0.9,0.7
				c0.4,0,0.6-0.2,0.7-0.3c0.1-0.1,0.2-0.3,0.3-0.4c0,0,0.7-1.5,0.7-1.5l4.1-8.7l0.3-0.6l3.8-7.9l0.2,1.8l0.4,5l1,11.4
				c0,0.3,0.1,0.6,0.3,0.8c0.1,0.2,0.4,0.3,0.9,0.3h0.7c0.7,0,1.1-0.4,1.1-1.1C66.3,81.1,65.5,72.1,64.8,65z M38.4,70.2
				c-0.5,5.6-1,10.8-1,10.8c0,0.4,0.1,0.6,0.3,0.8c0.1,0.2,0.4,0.4,0.9,0.4h0.7c0.7,0,1.1-0.4,1.1-1.2c0,0,0.6-7,1.1-12.7
				c-0.1,0-0.2,0.1-0.2,0.1C40.2,69,39.3,69.6,38.4,70.2z"/>
			<path style="fill:#231F20;" d="M94.2,55.8c-0.2-0.3-0.5-0.4-0.8-0.4c-0.4,0-0.7,0.2-0.9,0.6c0,0-9.9,20.6-9.9,20.6
				c-0.1,0.2-0.2,0.4-0.3,0.6L72.1,55.9c-0.2-0.4-0.5-0.6-0.9-0.6c-0.5,0-0.8,0.3-0.9,0.5c-0.1,0.2-0.2,0.4-0.2,0.6
				c0,0-2.2,24.7-2.2,24.7c0,0.4,0.1,0.6,0.3,0.8c0.1,0.2,0.4,0.4,0.9,0.4h0.7c0.7,0,1.1-0.4,1.1-1.2c0,0,1.2-13.1,1.6-18.1
				l8.9,18.8c0.3,0.6,0.7,0.7,0.9,0.7c0.4,0,0.6-0.2,0.7-0.3c0.1-0.1,0.2-0.3,0.3-0.4c0,0,4.8-10.2,4.8-10.2l4.1-8.6l1.6,18.1
				c0,0.3,0.1,0.6,0.3,0.8c0.1,0.2,0.4,0.3,0.9,0.3h0.7c0.7,0,1.1-0.4,1.1-1.1c0,0-2.3-24.8-2.3-24.8C94.4,56.2,94.3,56,94.2,55.8z"
				/>
			<path style="fill:#231F20;" d="M117.5,56.2c-0.1-0.1-0.3-0.2-0.4-0.2c-0.1,0-0.3,0-0.4,0h-0.4c-0.3,0-0.6,0-0.8,0.1
				c-0.2,0.1-0.4,0.2-0.5,0.3c-0.1,0.1-0.2,0.3-0.3,0.4c-0.1,0.1-0.1,0.2-0.2,0.4c0,0-3.5,5.8-3.5,5.8l-3,5.1l-2.8-4.8
				c0,0-3.3-5.5-3.3-5.5c0,0-0.7-1.1-0.7-1.1c-0.1-0.2-0.3-0.4-0.5-0.5c-0.2-0.1-0.4-0.2-0.6-0.2c-0.2,0-0.3,0-0.5,0
				c-0.1,0-0.2,0-0.4,0c-0.2,0-0.5,0.1-0.7,0.2c-0.2,0.2-0.4,0.4-0.4,0.7c0,0.2,0.1,0.5,0.2,0.7c0,0,7.4,12.4,8.2,13.7v9.9
				c0,0.7,0.4,1.1,1.1,1.1h0.6c0.7,0,1.1-0.4,1.1-1.1v-9.9c1.4-2.3,2.8-4.6,4.1-6.8c0,0,4.1-6.9,4.1-6.9c0.1-0.1,0.1-0.2,0.2-0.4
				c0-0.1,0-0.2,0-0.3C117.7,56.6,117.6,56.4,117.5,56.2z"/>
			<path style="fill:#231F20;" d="M34.4,79.4H19.5v-6h11.7c0.4,0,0.7-0.2,0.8-0.3c0.2-0.2,0.3-0.5,0.3-0.8v-0.6
				c0-0.5-0.2-0.7-0.4-0.9c-0.2-0.2-0.5-0.3-0.8-0.3H19.5V58.9h14.7c0.4,0,0.6-0.1,0.9-0.3c0.2-0.2,0.3-0.5,0.3-0.8v-0.6
				c0-0.7-0.4-1.1-1.2-1.1H17.7c-0.2,0-0.5,0.1-0.7,0.2c-0.2,0.1-0.4,0.4-0.4,0.9v24.1c0,0.3,0.1,0.5,0.2,0.7
				c0.1,0.2,0.4,0.4,0.8,0.4h16.8c0.7,0,1.1-0.4,1.1-1.1v-0.6C35.6,79.9,35.1,79.4,34.4,79.4z"/>
		</g>
		<g>
			<g>
				<g>
					<g>
						<path style="fill:#A4CE4C;" d="M122.6,33.7L122.6,33.7c1.2-0.5,2.2-1.3,2.9-2.5c1.8-2.9,0.9-6.7-2.1-8.5
							c-2.9-1.8-6.8-0.9-8.5,2.1c-0.7,1.2-1,2.5-0.9,3.8l0,0v0c0,0.1,0,0.1,0,0.2l0.9,8l7.5-2.8C122.5,33.7,122.5,33.7,122.6,33.7
							L122.6,33.7z"/>
					</g>
				</g>
			</g>
			<g>
				<g>
					<path style="fill:#A4CE4C;" d="M104.7,26.8L104.7,26.8c-0.3-1.3-1.1-2.5-2.2-3.4c-2.8-2.3-6.9-1.8-9.2,1
						c-2.3,2.8-1.9,6.9,1,9.2c1.1,0.9,2.5,1.4,3.8,1.5l0,0l0,0c0.1,0,0.1,0,0.2,0l8.4,0.2l-1.9-8.2C104.8,27,104.8,26.9,104.7,26.8
						L104.7,26.8z"/>
				</g>
			</g>
			<g>
				<g>
					<path style="fill:#A4CE4C;" d="M111.8,9L111.8,9c0.3-1.1,0.2-2.3-0.3-3.4c-1.1-2.8-4.3-4.1-7.1-2.9c-2.8,1.1-4.1,4.3-2.9,7.1
						c0.5,1.1,1.2,2,2.2,2.6l0,0l0,0c0,0,0.1,0.1,0.1,0.1l6.1,3.5l1.8-6.7C111.7,9.2,111.8,9.1,111.8,9L111.8,9z"/>
				</g>
			</g>
			<g>
				<g>
					<path style="fill:#A4CE4C;" d="M105.6,44.7L105.6,44.7c-0.7,0.6-1.2,1.5-1.4,2.4c-0.5,2.4,1.1,4.8,3.5,5.3
						c2.4,0.5,4.8-1.1,5.3-3.5c0.2-1,0.1-1.9-0.3-2.8l0,0l0,0c0,0,0-0.1-0.1-0.1l-2.5-5.2l-4.4,3.8
						C105.6,44.7,105.6,44.7,105.6,44.7L105.6,44.7z"/>
				</g>
			</g>
			<g>
				<g>
					<path style="fill:#A4CE4C;" d="M125.4,45.8L125.4,45.8c0.6,0.7,1.4,1.2,2.4,1.4c2.4,0.6,4.8-1,5.4-3.4c0.6-2.4-1-4.8-3.4-5.4
						c-1-0.2-1.9-0.1-2.8,0.3l0,0l0,0c0,0-0.1,0-0.1,0.1l-5.3,2.4l3.7,4.5C125.3,45.7,125.3,45.7,125.4,45.8L125.4,45.8z"/>
				</g>
			</g>
		</g>
	</g>
</g>
</svg>
