<svg id="43b3e79f-0da4-4034-8683-a540a290a62f" data-name="Calque 1" xmlns="http://www.w3.org/2000/svg" xmlns:xlink="http://www.w3.org/1999/xlink" viewBox="0 0 154.03 142"><defs><linearGradient id="5ec7542d-5c0b-44fc-99cd-7de896e309f0" x1="-2128.05" y1="-12339.68" x2="-2128.05" y2="-12348.16" gradientTransform="matrix(-0.93, 0.37, -0.37, -0.93, -6410.51, -10628.88)" gradientUnits="userSpaceOnUse"><stop offset="0" stop-color="#f1716c"/><stop offset="0.31" stop-color="#e76564"/><stop offset="0.87" stop-color="#cc474e"/><stop offset="1" stop-color="#c53f48"/></linearGradient><linearGradient id="a3303341-738b-460b-9d49-b890a3dd64bb" x1="3066.65" y1="-2018.61" x2="3066.65" y2="-2031.66" gradientTransform="matrix(0.85, 0.52, -0.52, 0.85, -3528.57, 147.8)" xlink:href="#5ec7542d-5c0b-44fc-99cd-7de896e309f0"/></defs><title>logo-test</title><path d="M14.8,63.17a.5.5,0,0,1,.19.38.58.58,0,0,1-.12.3.65.65,0,0,0-.09.13,2.12,2.12,0,0,1-.15.21,2,2,0,0,1-.18.21.28.28,0,0,1-.18.1h0l-.1,0L14,64.39A8.31,8.31,0,0,0,11.77,63a6.32,6.32,0,0,0-2.53-.51,7.11,7.11,0,0,0-2.12.31,7.67,7.67,0,0,0-1.89.91,8.11,8.11,0,0,0-1.6,1.39,8.64,8.64,0,0,0-1.22,1.8A9.11,9.11,0,0,0,1.62,69a9.87,9.87,0,0,0-.28,2.31,10,10,0,0,0,.28,2.34,9.72,9.72,0,0,0,.8,2.09,9.38,9.38,0,0,0,1.23,1.78,8.49,8.49,0,0,0,1.58,1.37,7.59,7.59,0,0,0,1.84.88,6.64,6.64,0,0,0,2,.31,7.42,7.42,0,0,0,4.73-1.83l.3-.19a.37.37,0,0,1,.19-.07.37.37,0,0,1,.2.11,2,2,0,0,1,.22.26,2.21,2.21,0,0,1,.18.34A.76.76,0,0,1,15,79a.37.37,0,0,1-.06.21.86.86,0,0,1-.16.18A9.33,9.33,0,0,1,12.19,81a7.9,7.9,0,0,1-3.06.58,8,8,0,0,1-3.56-.81,9,9,0,0,1-2.89-2.21,10.56,10.56,0,0,1-2-3.28,11.12,11.12,0,0,1-.72-4,11.24,11.24,0,0,1,.33-2.74,10.49,10.49,0,0,1,.92-2.46A11,11,0,0,1,2.68,64a9.44,9.44,0,0,1,1.85-1.62,9.1,9.1,0,0,1,2.18-1A7.91,7.91,0,0,1,9.14,61a7.69,7.69,0,0,1,3,.59A10.19,10.19,0,0,1,14.8,63.17Z" style="fill:#231f20"/><path d="M31.45,61.68a.57.57,0,0,1,.1-.36.43.43,0,0,1,.33-.12h.41a.43.43,0,0,1,.47.48V80.83c0,.33-.16.49-.47.49h-.41c-.29,0-.43-.16-.43-.49V74.29H19.6v6.54c0,.33-.15.49-.45.49h-.43c-.28,0-.43-.16-.43-.49V61.68a.57.57,0,0,1,.11-.36.41.41,0,0,1,.32-.12h.44a.44.44,0,0,1,.32.12.52.52,0,0,1,.12.36V72.79H31.45Z" style="fill:#231f20"/><path d="M49.19,61.2c.3,0,.46.16.46.49v.48a.52.52,0,0,1-.12.36.41.41,0,0,1-.34.13H38.5V72.79h8.64a.46.46,0,0,1,.33.12.54.54,0,0,1,.13.39v.49a.53.53,0,0,1-.13.36.42.42,0,0,1-.33.14H38.5v5.56H49.38c.31,0,.46.17.46.5v.49q0,.48-.45.48H37.54a.32.32,0,0,1-.29-.13.57.57,0,0,1-.09-.34V61.68c0-.2,0-.34.13-.4a.58.58,0,0,1,.31-.08Z" style="fill:#231f20"/><path d="M52.17,81.32a.57.57,0,0,1-.27-.07q-.15-.06-.15-.3a.49.49,0,0,1,0-.19,1,1,0,0,1,.11-.17q2.72-4.52,5.41-9l5.41-9H53.29c-.31,0-.47-.17-.47-.51v-.47a.42.42,0,0,1,.47-.48H64.41a.65.65,0,0,1,.26.06.35.35,0,0,1,.15.31.32.32,0,0,1,0,.19l-.1.17L53.89,79.85H64.63c.3,0,.44.17.44.5v.47a.55.55,0,0,1-.12.37.39.39,0,0,1-.32.13Z" style="fill:#231f20"/><path d="M88.21,61.2c.31,0,.46.16.46.49v.48a.57.57,0,0,1-.11.36.43.43,0,0,1-.35.13H77.52V72.79h8.64a.45.45,0,0,1,.33.12.5.5,0,0,1,.13.39v.49a.52.52,0,0,1-.12.36.43.43,0,0,1-.34.14H77.52v5.56H88.41c.3,0,.45.17.45.5v.49c0,.32-.15.48-.44.48H76.57a.33.33,0,0,1-.3-.13.57.57,0,0,1-.09-.34V61.68c0-.2,0-.34.14-.4a.53.53,0,0,1,.31-.08Z" style="fill:#231f20"/><path d="M108.3,64.92q-1.74,4.11-3.42,8.15l-3.42,8.16a1.13,1.13,0,0,1-.12.21.33.33,0,0,1-.24.1c-.15,0-.26-.11-.35-.31L93.91,64.92,92.66,80.8c0,.35-.15.52-.44.52h-.51a.35.35,0,0,1-.32-.16.66.66,0,0,1-.11-.38l1.59-19.63a1.07,1.07,0,0,1,.1-.36.33.33,0,0,1,.3-.16.35.35,0,0,1,.33.26l7.5,17.65v0s0,0,0,0v0l.24-.6c.08-.21.16-.41.25-.61l7-16.44a.36.36,0,0,1,.34-.26.29.29,0,0,1,.28.17.8.8,0,0,1,.11.35L111,80.83c0,.33-.14.49-.43.49H110a.46.46,0,0,1-.36-.14.58.58,0,0,1-.11-.39Z" style="fill:#231f20"/><path d="M130.29,64.92l-3.42,8.15q-1.68,4.05-3.42,8.16a.57.57,0,0,1-.12.21.3.3,0,0,1-.24.1c-.14,0-.26-.11-.34-.31l-6.84-16.31L114.66,80.8c0,.35-.15.52-.45.52h-.5a.37.37,0,0,1-.33-.16.65.65,0,0,1-.1-.38l1.58-19.63a1.08,1.08,0,0,1,.11-.36.32.32,0,0,1,.3-.16.35.35,0,0,1,.32.26l7.5,17.65v0s0,0,0,0v0l.24-.6c.08-.21.16-.41.25-.61l7-16.44a.35.35,0,0,1,.33-.26.3.3,0,0,1,.29.17,1,1,0,0,1,.11.35L133,80.83c0,.33-.15.49-.43.49H132a.42.42,0,0,1-.35-.14.59.59,0,0,1-.12-.39Z" style="fill:#231f20"/><path d="M135.12,61.83a.62.62,0,0,1-.1-.32.34.34,0,0,1,.12-.26.44.44,0,0,1,.26-.1h.3a1,1,0,0,1,.3,0,.73.73,0,0,1,.28.1.77.77,0,0,1,.25.3l.48.89c.77,1.48,1.53,3,2.3,4.42l2.3,4.4,2.45-4.68,2.46-4.65.15-.31a1,1,0,0,1,.16-.24.65.65,0,0,1,.25-.17,1.17,1.17,0,0,1,.42-.06h.25a.88.88,0,0,1,.24,0,.46.46,0,0,1,.17.09.27.27,0,0,1,.06.19.36.36,0,0,1,0,.14.6.6,0,0,1-.07.18c-1,1.82-2,3.66-2.92,5.5s-1.94,3.68-2.93,5.51v8c0,.33-.14.5-.43.5h-.45c-.29,0-.43-.17-.43-.5v-8Z" style="fill:#231f20"/><path d="M139.67,54.51c.62,1.56,1.47,2.68,1.89,2.52s.27-1.57-.36-3.14-1.47-2.68-1.89-2.51S139.05,53,139.67,54.51Z" style="fill:#a4ce4c"/><path d="M139.51,54.57c.57,1.44,1.48,2.87,2.12,2.62s.33-1.88-.27-3.36a5.33,5.33,0,0,0-1.74-2.6.53.53,0,0,0-.37,0,.48.48,0,0,0-.26.28A5.25,5.25,0,0,0,139.51,54.57Zm-.14-3a.19.19,0,0,1,.11,0A5.1,5.1,0,0,1,141,54c.69,1.72.67,2.82.46,2.9s-1-.7-1.67-2.42a5.07,5.07,0,0,1-.52-2.82S139.34,51.55,139.37,51.54Z" style="fill:#fff"/><path d="M142.1,53.37c1.17,1.28,1.81,2.51,1.43,2.76s-1.62-.6-2.79-1.88-1.8-2.52-1.42-2.76S140.94,52.09,142.1,53.37Z" style="fill:#a4ce4c"/><path d="M142,53.48a4.93,4.93,0,0,1,1.48,2.44.08.08,0,0,1,0,.06c-.2.13-1.25-.4-2.57-1.85a5.1,5.1,0,0,1-1.49-2.43.15.15,0,0,1,0-.07C139.6,51.51,140.66,52,142,53.48Zm-2.76-2.14a.42.42,0,0,0-.18.31c-.08.59.73,1.79,1.57,2.71s2.42,2.29,3,1.91a.42.42,0,0,0,.19-.31c.07-.59-.74-1.79-1.58-2.71S139.81,51,139.22,51.34Z" style="fill:#fff"/><path d="M138.66,54.74c0,1.73.42,3.07.86,3s.77-1.56.73-3.29-.43-3.06-.87-3S138.62,53,138.66,54.74Z" style="fill:#a4ce4c"/><path d="M138.48,54.75c0,1.24.27,2.67.73,3a.42.42,0,0,0,.34.1c.69-.13.9-2.14.87-3.46s-.26-2.68-.72-3a.41.41,0,0,0-.35-.1C138.66,51.42,138.45,53.43,138.48,54.75Zm.94-3.12.06,0a5,5,0,0,1,.6,2.79c0,2-.36,3.06-.59,3.1,0,0,0,0-.06,0a4.91,4.91,0,0,1-.6-2.79C138.79,52.78,139.19,51.67,139.42,51.63Z" style="fill:#fff"/><path d="M135.69,49.3h0a3.21,3.21,0,1,0,4.82-1.92h0l-.08-.05-3.56-2.11-1.14,4a.29.29,0,0,0,0,.09Z" style="fill:url(#5ec7542d-5c0b-44fc-99cd-7de896e309f0)"/><path d="M149.63,18.36c1.35-2.2,2-4.28,1.36-4.65s-2.17,1.12-3.52,3.32-2,4.29-1.36,4.65S148.28,20.56,149.63,18.36Z" style="fill:#a4ce4c"/><path d="M149.79,18.46c1.26-2.06,2.11-4.41,1.3-4.91s-2.52,1.33-3.78,3.39c-1.14,1.86-1.78,3.66-1.59,4.47a.66.66,0,0,0,.29.43C146.82,22.34,148.53,20.52,149.79,18.46Zm-3.59,3.06a.29.29,0,0,1-.11-.19c-.14-.61.34-2.24,1.54-4.2,1.45-2.37,2.88-3.49,3.27-3.26s0,2-1.43,4.39S146.59,21.76,146.2,21.52Z" style="fill:#fff"/><path d="M146,16.41c.51-2.61,1.45-4.53,2.09-4.3s.76,2.56.25,5.17-1.45,4.53-2.09,4.29S145.48,19,146,16.41Z" style="fill:#a4ce4c"/><path d="M146.18,16.45c.45-2.35,1.18-3.86,1.67-4.13.1-.06.15,0,.16,0,.43.16.68,2.12.13,4.95-.45,2.35-1.18,3.86-1.67,4.13a.25.25,0,0,1-.17,0C145.88,21.24,145.62,19.28,146.18,16.45Zm0,5.3a.57.57,0,0,0,.48-.05c.68-.38,1.43-2.14,1.86-4.39s.49-5-.36-5.37a.57.57,0,0,0-.48.05c-.68.38-1.43,2.14-1.86,4.38S145.32,21.43,146.17,21.75Z" style="fill:#fff"/><path d="M150.86,19.39c2.09-1.64,3.38-3.34,2.88-3.81s-2.62.49-4.72,2.13-3.39,3.34-2.88,3.8S148.76,21,150.86,19.39Z" style="fill:#a4ce4c"/><path d="M151,19.54c1.8-1.41,3-2.87,3.06-3.64a.51.51,0,0,0-.17-.45c-.67-.62-3.05.62-5,2.11s-3,2.87-3.07,3.64a.54.54,0,0,0,.17.45C146.69,22.27,149.07,21,151,19.54Zm-4.7,1.84a.16.16,0,0,1-.05-.16c0-.56,1-1.89,2.92-3.37,2.27-1.77,4.14-2.44,4.47-2.13a.21.21,0,0,1,0,.16c0,.56-1,1.89-2.92,3.37C148.47,21,146.6,21.68,146.27,21.38Z" style="fill:#fff"/><path d="M146.88,28.05h0a4.95,4.95,0,1,0-6.09-7.17,5,5,0,0,0-.71,3h0c0,.05,0,.1,0,.15l.68,6.33,5.95-2.27.14-.05Z" style="fill:url(#a3303341-738b-460b-9d49-b890a3dd64bb)"/><path d="M132.66,22.61h0A5.21,5.21,0,1,0,124.34,28a5.24,5.24,0,0,0,3,1.16h.17l6.7.17-1.54-6.52c0-.05,0-.1,0-.15Z" style="fill:#a4ce4c"/><path d="M138.25,8.46h0a4.32,4.32,0,1,0-6.44,2.66h0l.12.07L136.76,14l1.46-5.37,0-.12Z" style="fill:#a4ce4c"/><path d="M133.81,34.53h0a3.58,3.58,0,1,0,4.94,4.68A3.69,3.69,0,0,0,139,37h0a.52.52,0,0,0,0-.11l-1-4.49-4.1,2.09-.1.05Z" style="fill:#a4ce4c"/><path d="M146.46,39.06h0a3.58,3.58,0,1,0,2.85-5h-.12l-4.56.65L146.41,39l.05.09Z" style="fill:#a4ce4c"/><path d="M132.28,105.44a70.52,70.52,0,0,1-123,0" style="fill:none;stroke:#231f20;stroke-linecap:round;stroke-linejoin:round"/><path d="M5.21,45a70.53,70.53,0,0,1,106-31.68" style="fill:none;stroke:#231f20;stroke-linecap:round;stroke-linejoin:round"/></svg>