<svg id="afc22c29-e7bd-4595-af86-735cb6bb7868" data-name="Calque 1" xmlns="http://www.w3.org/2000/svg" viewBox="0 0 266.4972 29.647"><defs><style>.bc0fda2b-8394-4c5a-9a8e-fd2ff4ba9493{fill:#fff;}</style></defs><title>logo-artisans-de-la-transition-blanc</title><path class="bc0fda2b-8394-4c5a-9a8e-fd2ff4ba9493" d="M16.9587,18.77l-1.9438.0264H11.3967L9.48,18.77,7.86,23.684a3.7136,3.7136,0,0,1-.8232.081,3.5749,3.5749,0,0,1-.9585-.1357l-.0542-.0811,6.1831-18.333a6.4073,6.4073,0,0,1,1.1338-.081,4.67,4.67,0,0,1,1.0258.081l6.21,18.333a1.8763,1.8763,0,0,1-1.0127.27,1.3,1.3,0,0,1-.8237-.2021,1.7126,1.7126,0,0,1-.4317-.7695ZM10.02,17.1224l1.5927-.0263h3.1861q.0263,0,.7021.0127c.45.01.7559.0136.918.0136l-1.7822-5.373q-.8643-2.565-1.377-4.4277h-.1348q-.432,1.6464-.8911,3.0781Z"/><path class="bc0fda2b-8394-4c5a-9a8e-fd2ff4ba9493" d="M23.0334,11.264a1.8065,1.8065,0,0,1,.81-1.0263,3.0036,3.0036,0,0,1,1.8359,2.4033,3.84,3.84,0,0,1,3.6182-2.4033,7.7337,7.7337,0,0,1,1.2148.1084A3.13,3.13,0,0,1,30.08,12.101c-.18-.0176-.477-.0274-.8911-.0274a3.57,3.57,0,0,0-3.375,2.5654v9.0176a4.2338,4.2338,0,0,1-.918.0811,3.8558,3.8558,0,0,1-.8906-.0811V14.018A3.8387,3.8387,0,0,0,23.0334,11.264Z"/><path class="bc0fda2b-8394-4c5a-9a8e-fd2ff4ba9493" d="M39.1252,10.4a3.7322,3.7322,0,0,1,.0811.7285,3.3472,3.3472,0,0,1-.0811.7022l-3.4287-.0264v9.3144q0,1.1074,1.0528,1.1075h2.0791a2.2333,2.2333,0,0,1,.1621.8369,3.0678,3.0678,0,0,1-.0274.54,20.0316,20.0316,0,0,1-2.5244.1621,2.858,2.858,0,0,1-1.9033-.5537,1.9635,1.9635,0,0,1-.648-1.58V11.8041l-1.8632.0264a3.06,3.06,0,0,1-.0811-.6885,3.8223,3.8223,0,0,1,.0811-.7422l1.8632.0264V7.51a1.78,1.78,0,0,1,.2022-.9716.9062.9062,0,0,1,.7969-.2969h.6479l.1621.1621v4.05Z"/><path class="bc0fda2b-8394-4c5a-9a8e-fd2ff4ba9493" d="M44.7683,12.182V23.6566a5.2356,5.2356,0,0,1-1.8359,0v-10.53a1.5763,1.5763,0,0,0-.2432-1.0254,1.1293,1.1293,0,0,0-.8638-.2705h-.2431a2.9292,2.9292,0,0,1-.0811-.6612,3.6932,3.6932,0,0,1,.0811-.7158,9.9218,9.9218,0,0,1,1.2959-.1074h.2158a1.5822,1.5822,0,0,1,1.2285.4853A1.9232,1.9232,0,0,1,44.7683,12.182Zm-2.457-4.4014a2.2074,2.2074,0,0,1-.189-.9853,1.87,1.87,0,0,1,.189-.9316,1.9054,1.9054,0,0,1,1.1474-.2706,1.78,1.78,0,0,1,1.1206.2706,1.8756,1.8756,0,0,1,.189.9316,2.2143,2.2143,0,0,1-.189.9853,1.5927,1.5927,0,0,1-1.0937.27A1.9632,1.9632,0,0,1,42.3113,7.7806Z"/><path class="bc0fda2b-8394-4c5a-9a8e-fd2ff4ba9493" d="M48.17,22.63a1.8641,1.8641,0,0,1,.7564-1.35,8.0036,8.0036,0,0,0,3.6851,1.2422,3.7443,3.7443,0,0,0,2.2817-.6074,1.9609,1.9609,0,0,0,.8369-1.58q0-1.4838-2.0249-2.24L52.1662,17.5Q48.71,16.1776,48.71,13.7748a3.2033,3.2033,0,0,1,1.2959-2.6729,5.2385,5.2385,0,0,1,3.2939-.999,9.4515,9.4515,0,0,1,3.9151.8633,1.9727,1.9727,0,0,1-.5669,1.458,7.86,7.86,0,0,0-3.1992-.81,3.329,3.329,0,0,0-2.12.5674,1.7,1.7,0,0,0-.7021,1.3633A1.6186,1.6186,0,0,0,51.1267,14.8a5.5763,5.5763,0,0,0,1.6064.9179l1.5933.6211Q57.62,17.6356,57.62,20.2006a3.2623,3.2623,0,0,1-1.3637,2.7675,6,6,0,0,1-3.6582,1.0127A8.165,8.165,0,0,1,48.17,22.63Z"/><path class="bc0fda2b-8394-4c5a-9a8e-fd2ff4ba9493" d="M70.8767,22.9008a1.6657,1.6657,0,0,1-.8643.9453,2.4377,2.4377,0,0,1-1.5659-1.9444,6.1009,6.1009,0,0,1-4.293,2.0791,3.5978,3.5978,0,0,1-2.8618-1.1748,4.0336,4.0336,0,0,1-1.0263-2.74,3.8982,3.8982,0,0,1,1.35-3.24,5.7665,5.7665,0,0,1,3.6992-1.08,16.7571,16.7571,0,0,1,3.0508.27V14.5844q0-2.8346-2.5108-2.835a11.0071,11.0071,0,0,0-4.4282,1.1338,1.7743,1.7743,0,0,1-.4727-.6475,1.92,1.92,0,0,1-.2021-.81A12.9213,12.9213,0,0,1,65.99,10.1566q4.1308,0,4.1308,4.4824v5.5616A3.7222,3.7222,0,0,0,70.8767,22.9008Zm-8.7212-3.0782a2.82,2.82,0,0,0,.5806,1.877,1.9873,1.9873,0,0,0,1.6064.6885,4.3538,4.3538,0,0,0,2.106-.5948,5.9682,5.9682,0,0,0,1.917-1.7275V17.393a21.1767,21.1767,0,0,0-3.01-.2168,3.4932,3.4932,0,0,0-2.3491.7294A2.403,2.403,0,0,0,62.1555,19.8226Z"/><path class="bc0fda2b-8394-4c5a-9a8e-fd2ff4ba9493" d="M84.8889,14.3685v6.8038a6.4451,6.4451,0,0,0,.27,2.2412,1.57,1.57,0,0,1-1.1611.4052q-.9449,0-.9453-1.2148V14.99a4.95,4.95,0,0,0-.4317-2.417,1.6772,1.6772,0,0,0-1.5659-.7148,5.2375,5.2375,0,0,0-2.3486.6074,6.09,6.09,0,0,0-1.9981,1.5528v9.6386a5.2356,5.2356,0,0,1-1.8359,0V10.5072l.1616-.1611h.7022a.8657.8657,0,0,1,.7832.2969,1.8869,1.8869,0,0,1,.1889.9716v.54a6.7249,6.7249,0,0,1,2.1734-1.4307,6.5263,6.5263,0,0,1,2.5517-.54,3.0023,3.0023,0,0,1,2.6319,1.1611A5.1111,5.1111,0,0,1,84.8889,14.3685Z"/><path class="bc0fda2b-8394-4c5a-9a8e-fd2ff4ba9493" d="M88.1828,22.63a1.8647,1.8647,0,0,1,.7569-1.35,8.0038,8.0038,0,0,0,3.6846,1.2422,3.7451,3.7451,0,0,0,2.2822-.6074,1.9622,1.9622,0,0,0,.8369-1.58q0-1.4838-2.0254-2.24L92.1789,17.5q-3.4555-1.3228-3.456-3.7256a3.2047,3.2047,0,0,1,1.2959-2.6729,5.2385,5.2385,0,0,1,3.2939-.999,9.4518,9.4518,0,0,1,3.9151.8633,1.9723,1.9723,0,0,1-.5664,1.458,7.8635,7.8635,0,0,0-3.1993-.81,3.33,3.33,0,0,0-2.12.5674,1.7018,1.7018,0,0,0-.7021,1.3633,1.6189,1.6189,0,0,0,.5,1.2549,5.5749,5.5749,0,0,0,1.6064.9179l1.5928.6211q3.2944,1.2964,3.2939,3.8614A3.2631,3.2631,0,0,1,96.27,22.9681a6.0015,6.0015,0,0,1-3.6582,1.0127A8.1667,8.1667,0,0,1,88.1828,22.63Z"/><path class="bc0fda2b-8394-4c5a-9a8e-fd2ff4ba9493" d="M104.803,24.0072a3.8589,3.8589,0,0,1-3.4688-1.8623,9.453,9.453,0,0,1-1.1885-5.1172,7.6816,7.6816,0,0,1,1.5254-5.0752,4.574,4.574,0,0,1,3.6045-1.8232,6.3563,6.3563,0,0,1,3.1319.918V3.974l.1621-.1621h.999a1.32,1.32,0,0,1,1.1074.3916,2.1576,2.1576,0,0,1,.2969,1.2822V19.8764a3.4711,3.4711,0,0,0,.7558,2.6191,2.1,2.1,0,0,1-1.0263,1.3506,2.5765,2.5765,0,0,1-1.9981-1.7012A4.9932,4.9932,0,0,1,104.803,24.0072Zm.5263-2.1865a3.7494,3.7494,0,0,0,3.0782-1.7822V13.2621a5.0444,5.0444,0,0,0-2.7676-1.0264,2.3648,2.3648,0,0,0-2.0518,1.2559,6.8107,6.8107,0,0,0-.7959,3.6308,6.8918,6.8918,0,0,0,.7149,3.5372A2.1016,2.1016,0,0,0,105.3293,21.8207Z"/><path class="bc0fda2b-8394-4c5a-9a8e-fd2ff4ba9493" d="M124.095,17.8246h-8.02a5.6037,5.6037,0,0,0,.8106,2.97,2.7422,2.7422,0,0,0,2.43,1.0537,8.33,8.33,0,0,0,3.7529-1.0537,2.8852,2.8852,0,0,1,.8369,1.7012,8.6,8.6,0,0,1-5.0625,1.5117,4.6394,4.6394,0,0,1-4.1846-1.9433,9.0381,9.0381,0,0,1-1.2822-5.0625,8.2687,8.2687,0,0,1,1.4443-5.0625,4.7545,4.7545,0,0,1,4.05-1.9444,5.0012,5.0012,0,0,1,4.01,1.6338,6.1344,6.1344,0,0,1,1.4033,4.1445A11.3107,11.3107,0,0,1,124.095,17.8246Zm-3.0381-4.8731a2.33,2.33,0,0,0-2.0655-1.0126,2.4128,2.4128,0,0,0-2.1054,1.039,5.4786,5.4786,0,0,0-.8106,2.93h5.67V15.557A4.54,4.54,0,0,0,121.0569,12.9515Z"/><path class="bc0fda2b-8394-4c5a-9a8e-fd2ff4ba9493" d="M130.3313,21.6859h1.0527a3.1793,3.1793,0,0,1,.2168,1.08,5.023,5.023,0,0,1-.0547.81,12.984,12.984,0,0,1-2.24.1894q-2.5664,0-2.5654-2.6465V3.974l.1621-.1621h.9717a1.3456,1.3456,0,0,1,1.1074.3779,2.15,2.15,0,0,1,.2968,1.2959V20.4974Q129.2785,21.6854,130.3313,21.6859Z"/><path class="bc0fda2b-8394-4c5a-9a8e-fd2ff4ba9493" d="M144.0471,22.4955a2.1007,2.1007,0,0,1-1.0264,1.3506,2.6506,2.6506,0,0,1-2.0517-1.7285A5.7314,5.7314,0,0,1,137,24.0072a3.8534,3.8534,0,0,1-3.0644-1.1875,4.0886,4.0886,0,0,1-1.04-2.7812,3.9916,3.9916,0,0,1,1.418-3.334,5.8565,5.8565,0,0,1,3.7393-1.1211,18.51,18.51,0,0,1,2.6728.1894V14.6654q0-2.4566-2.2676-2.457a11.6343,11.6343,0,0,0-4.2929,1.0537,2.8153,2.8153,0,0,1-.7832-1.9443,13.7362,13.7362,0,0,1,5.5351-1.2422,4.3948,4.3948,0,0,1,3.2266,1.1338,4.55,4.55,0,0,1,1.1474,3.375V20.12A3.0269,3.0269,0,0,0,144.0471,22.4955Zm-6.6416-.5938a4.3636,4.3636,0,0,0,3.32-1.7548V17.5551a19.3266,19.3266,0,0,0-2.43-.1358,2.9636,2.9636,0,0,0-2.0791.6485,2.1752,2.1752,0,0,0-.7021,1.6738,2.3243,2.3243,0,0,0,.5,1.5928A1.7558,1.7558,0,0,0,137.4055,21.9017Z"/><path class="bc0fda2b-8394-4c5a-9a8e-fd2ff4ba9493" d="M153.093,8.6176l.0273,1.998v13.041a13.2392,13.2392,0,0,1-4.1308,0V10.6156l.0264-1.998H148.99l-1.6748.0273h-2.8613a10.0263,10.0263,0,0,1-.1358-1.7148,10.0275,10.0275,0,0,1,.1358-1.7149h13.2294a5.6094,5.6094,0,0,1,.2159,1.6475,1.6605,1.6605,0,0,1-.5127,1.3633,2.5985,2.5985,0,0,1-1.6465.4189h-.9453L153.12,8.6176Z"/><path class="bc0fda2b-8394-4c5a-9a8e-fd2ff4ba9493" d="M157.5481,12.0736a3.6353,3.6353,0,0,1,.4853-1.1611,3.4246,3.4246,0,0,1,.7559-.918,3.7092,3.7092,0,0,1,3.2939,2.43,3.5045,3.5045,0,0,1,3.4024-2.4023,7.2307,7.2307,0,0,1,1.7549.2158,8.0225,8.0225,0,0,1-.27,1.876,7.0575,7.0575,0,0,1-.73,1.8769,5.5019,5.5019,0,0,0-1.35-.2432,2.6534,2.6534,0,0,0-2.3222,1.4581v8.4511a10.2,10.2,0,0,1-1.9707.1621,11.5243,11.5243,0,0,1-2.0518-.1621V14.8549A3.3026,3.3026,0,0,0,157.5481,12.0736Z"/><path class="bc0fda2b-8394-4c5a-9a8e-fd2ff4ba9493" d="M180.0383,21.7933a3.4987,3.4987,0,0,1-.5,1.1612,3.5913,3.5913,0,0,1-.7695.9179,3.3922,3.3922,0,0,1-2.8067-1.4306,5.4687,5.4687,0,0,1-3.82,1.62,3.9351,3.9351,0,0,1-3.16-1.2422,4.2282,4.2282,0,0,1-1.0664-2.8349,4.1461,4.1461,0,0,1,1.5254-3.4834,5.9865,5.9865,0,0,1,3.7929-1.1875c.5957,0,1.27.0263,2.0254.081V14.8a1.5988,1.5988,0,0,0-1.8359-1.7813,16.5953,16.5953,0,0,0-4.0235.8633,4.8967,4.8967,0,0,1-.9707-2.8076,14.53,14.53,0,0,1,3.01-.8643,17.1425,17.1425,0,0,1,3.0918-.3232,5.1634,5.1634,0,0,1,3.3887,1.12,4.2336,4.2336,0,0,1,1.3633,3.47v5.5079A2.0686,2.0686,0,0,0,180.0383,21.7933Zm-6.8848-.7285a3.2672,3.2672,0,0,0,2.1055-.8916v-2.24q-.5947-.0279-1.6191-.0274a1.5983,1.5983,0,0,0-1.8086,1.8086,1.3577,1.3577,0,0,0,.3633.959A1.251,1.251,0,0,0,173.1535,21.0648Z"/><path class="bc0fda2b-8394-4c5a-9a8e-fd2ff4ba9493" d="M194.0246,14.72v5.6152a4.6947,4.6947,0,0,0,.6475,2.6729,3.6234,3.6234,0,0,1-2.3623.8642,2.2126,2.2126,0,0,1-1.8086-.621,2.9738,2.9738,0,0,1-.5-1.89V15.476a2.9929,2.9929,0,0,0-.27-1.458,1.0052,1.0052,0,0,0-.9453-.459,3.1218,3.1218,0,0,0-2.2139,1.0527v9.0449a10.5518,10.5518,0,0,1-1.9844.1621,11.4432,11.4432,0,0,1-2.039-.1621V10.21l.1894-.1884H184.25a2.0239,2.0239,0,0,1,2.1328,1.62,6.0082,6.0082,0,0,1,3.834-1.6748,3.3238,3.3238,0,0,1,2.835,1.2968A5.6188,5.6188,0,0,1,194.0246,14.72Z"/><path class="bc0fda2b-8394-4c5a-9a8e-fd2ff4ba9493" d="M196.2112,22.7113a4.2939,4.2939,0,0,1,.3642-1.458,3.8106,3.8106,0,0,1,.77-1.2412,8.25,8.25,0,0,0,3.7529,1.1064,2.3449,2.3449,0,0,0,1.2558-.2832.8521.8521,0,0,0,.4454-.7431q0-.8628-1.2959-1.3223l-1.4854-.54q-3.4014-1.2423-3.4023-4.0235a3.9893,3.9893,0,0,1,1.4043-3.2129,5.6176,5.6176,0,0,1,3.7529-1.1875,11.5067,11.5067,0,0,1,2.5654.3233,11.25,11.25,0,0,1,2.3487.7832,4.0056,4.0056,0,0,1-.3106,1.5928,2.6472,2.6472,0,0,1-.8232,1.2158,9.4676,9.4676,0,0,0-3.7266-.999,1.4,1.4,0,0,0-.918.27.8716.8716,0,0,0-.3232.7021q0,.6753,1.1338,1.1065l1.6465.5947q3.59,1.3227,3.5918,4.293a3.8711,3.8711,0,0,1-1.4854,3.1855,6.5466,6.5466,0,0,1-4.1855,1.1885A10.1035,10.1035,0,0,1,196.2112,22.7113Z"/><path class="bc0fda2b-8394-4c5a-9a8e-fd2ff4ba9493" d="M213.9494,13.2074V23.6566a10.1983,10.1983,0,0,1-1.9707.1621,11.5428,11.5428,0,0,1-2.0527-.1621V14.5844q0-1.5381-1.2685-1.5391h-.378a6.16,6.16,0,0,1,0-2.8076q1.3491-.1349,2.2949-.1348h.54a2.6614,2.6614,0,0,1,2.0791.8369A3.2556,3.2556,0,0,1,213.9494,13.2074ZM209.1164,6.35a3.97,3.97,0,0,1,.2969-1.5127,4.2053,4.2053,0,0,1,1.9844-.4043,3.7227,3.7227,0,0,1,1.9033.4043,3.9871,3.9871,0,0,1,0,3.0244,3.8848,3.8848,0,0,1-1.9707.4053,3.5787,3.5787,0,0,1-1.917-.4053A3.9684,3.9684,0,0,1,209.1164,6.35Z"/><path class="bc0fda2b-8394-4c5a-9a8e-fd2ff4ba9493" d="M224.885,10.184a6.433,6.433,0,0,1,0,2.8613l-3.24-.0537v6.4531q0,1.27,1.1875,1.2686h1.5664a5.56,5.56,0,0,1,.3242,1.7285,3.8129,3.8129,0,0,1-.1084,1.08,26.1309,26.1309,0,0,1-3.5645.27q-3.3207,0-3.32-3.6182V13.0189l-2.1064.0264a5.515,5.515,0,0,1-.1621-1.4307,5.52,5.52,0,0,1,.1621-1.4306l2.1064.0263V8.5639a2.8454,2.8454,0,0,1,.4854-1.8907,2.1758,2.1758,0,0,1,1.6748-.54h1.5654l.19.1894v3.9151Z"/><path class="bc0fda2b-8394-4c5a-9a8e-fd2ff4ba9493" d="M232.3088,13.2074V23.6566a10.1983,10.1983,0,0,1-1.9707.1621,11.5428,11.5428,0,0,1-2.0527-.1621V14.5844q0-1.5381-1.2686-1.5391h-.3779a6.16,6.16,0,0,1,0-2.8076q1.3491-.1349,2.2949-.1348h.54a2.6614,2.6614,0,0,1,2.0791.8369A3.2556,3.2556,0,0,1,232.3088,13.2074ZM227.4758,6.35a3.9678,3.9678,0,0,1,.2969-1.5127,4.205,4.205,0,0,1,1.9844-.4043,3.7227,3.7227,0,0,1,1.9033.4043,3.9883,3.9883,0,0,1,0,3.0244,3.8851,3.8851,0,0,1-1.9707.4053,3.5787,3.5787,0,0,1-1.917-.4053A3.9665,3.9665,0,0,1,227.4758,6.35Z"/><path class="bc0fda2b-8394-4c5a-9a8e-fd2ff4ba9493" d="M245.2424,11.3715a7.5077,7.5077,0,0,1,1.9444,5.5488,7.5066,7.5066,0,0,1-1.9444,5.5478,6.4348,6.4348,0,0,1-8.4785,0,7.5062,7.5062,0,0,1-1.9434-5.5478,7.5072,7.5072,0,0,1,1.9434-5.5488,6.5225,6.5225,0,0,1,8.4785,0Zm-5.873,2.5107a8.7623,8.7623,0,0,0-.418,3.0518,8.6377,8.6377,0,0,0,.418,3.0371,1.7847,1.7847,0,0,0,3.2675,0,8.6588,8.6588,0,0,0,.418-3.0371,8.7838,8.7838,0,0,0-.418-3.0518,1.7763,1.7763,0,0,0-3.2675,0Z"/><path class="bc0fda2b-8394-4c5a-9a8e-fd2ff4ba9493" d="M261.1985,14.72v5.6152a4.6947,4.6947,0,0,0,.6474,2.6729,3.6232,3.6232,0,0,1-2.3623.8642,2.2128,2.2128,0,0,1-1.8086-.621,2.9738,2.9738,0,0,1-.5-1.89V15.476a2.9929,2.9929,0,0,0-.2695-1.458,1.0052,1.0052,0,0,0-.9453-.459,3.1222,3.1222,0,0,0-2.2139,1.0527v9.0449a10.5518,10.5518,0,0,1-1.9844.1621,11.4432,11.4432,0,0,1-2.039-.1621V10.21l.1894-.1884h1.5118a2.024,2.024,0,0,1,2.1328,1.62,6.008,6.008,0,0,1,3.834-1.6748,3.3236,3.3236,0,0,1,2.8349,1.2968A5.6182,5.6182,0,0,1,261.1985,14.72Z"/></svg>