<svg id="bdf0d8f4-87d1-4ffb-af1a-5f7e55f4770c" data-name="Calque 3" xmlns="http://www.w3.org/2000/svg" viewBox="0 0 412.6653 95.7826"><defs><style>.a33055c9-69a6-4dff-8f15-24a57ecd0cf6{fill:#fff;}</style></defs><title>logo-artisans-de-la-transition-combi-LRD-blanc</title><path class="a33055c9-69a6-4dff-8f15-24a57ecd0cf6" d="M318.6105,73.0254l-1.2083.1483.989,8.0549,1.17-.1436c2.7041-.332,3.3427-1.9484,3.0343-4.4608C322.3152,74.342,321.0844,72.7216,318.6105,73.0254Z"/><path class="a33055c9-69a6-4dff-8f15-24a57ecd0cf6" d="M337.3239,54.7951c2.1615-.2653,2.6242-1.6512,2.4838-2.7942-.3035-2.473-2.4571-2.3142-3.3093-2.2095l-2.8059.3445.6176,5.0293Z"/><path class="a33055c9-69a6-4dff-8f15-24a57ecd0cf6" d="M382.6138,46.3441c-1.9123.2348-2.7653,1.88-2.706,4.4247l6.1523-.7553C385.79,47.8106,384.5674,46.1042,382.6138,46.3441Z"/><path class="a33055c9-69a6-4dff-8f15-24a57ecd0cf6" d="M354.3649,74.3976c-1.1123.1366-1.7489.8183-1.6312,1.7771a1.1006,1.1006,0,0,0,1.29.99,3.122,3.122,0,0,0,1.8025-1.1753l-.2048-1.6684C355.1943,74.3347,354.7294,74.3529,354.3649,74.3976Z"/><path class="a33055c9-69a6-4dff-8f15-24a57ecd0cf6" d="M348.7372,50.5036c-1.9121.2348-2.765,1.88-2.7057,4.4248l6.1522-.7554C351.9132,51.97,350.691,50.2638,348.7372,50.5036Z"/><path class="a33055c9-69a6-4dff-8f15-24a57ecd0cf6" d="M327.3375,57.941c-3.0554.3751-5.2724,1.0482-4.9483,3.6875a2.1936,2.1936,0,0,0,2.6212,2.1041c1.4966-.1837,2.2258-1.1171,3.5256-2.7323l-.3879-3.1588Z"/><path class="a33055c9-69a6-4dff-8f15-24a57ecd0cf6" d="M391.1515,37.0594,305.12,47.6228l5.36,43.65,86.0315-10.5635Zm-8.6541,7.8224c3.5332-.4339,5.1763,2.4654,5.5311,5.3541l.1123.9144-8.0645.99c.4889,3.2941,2.17,4.2691,3.8118,4.0675a2.9971,2.9971,0,0,0,2.686-2.5238l1.6693.3646a4.6868,4.6868,0,0,1-4.1766,3.6139c-4.3648.536-5.6552-3.2715-5.9614-5.7654C377.8018,49.4242,378.1327,45.4177,382.4974,44.8818Zm-14.58,2.0433,1.0309,8.3959c.1531,1.247.5945,2.4373,2.1119,2.2511a4.8559,4.8559,0,0,0,3.2937-2.5561L373.28,46.2667l1.8291-.2246,1.5081,12.2822-1.8291.2246-.245-1.9951c-.8879,1.0161-2.0107,2.5252-3.8811,2.7548-1.8914.2323-3.1958-.7678-3.4607-3.0979l-1.1126-9.061ZM356.32,48.349l3.0033,6.7615c.4653,1.04.7625,1.7417,1.398,3.3091l.104-.0128c.2374-1.6746.3352-2.4248.5556-3.5489l1.3825-7.3,1.829-.2245-2.5033,12.7747-2.2655.2781-5.54-11.787Zm-7.6993.6923c3.5334-.4338,5.1763,2.4655,5.531,5.3541l.1123.9144L346.2,56.3c.4891,3.2942,2.17,4.2691,3.8118,4.0675a2.9966,2.9966,0,0,0,2.686-2.5238l1.6694.3647a4.6867,4.6867,0,0,1-4.1767,3.6138c-4.3647.5359-5.655-3.2716-5.9612-5.7653C343.9254,53.5837,344.2562,49.5772,348.621,49.0413Zm-11.9373-.8337c2.5357-.3113,4.6841.6906,5.0183,3.413a3.6291,3.6291,0,0,1-2.2375,4.1141l4.3984,6.6113-2.2864.2807L337.7,56.31l-3.2008.393.8217,6.6919-1.9123.2348-1.8167-14.7968Zm-25.7024,3.1559,1.2887-.1583,1.6841,13.7162,6.568-.8065.1326,1.0807-7.8566.9647Zm9.3264,32.4721-5.3317.6546-1.6766-13.655,5.6-.6876c4.181-.5133,7.0909,1.4655,7.6349,5.8957C327.1113,80.7419,324.45,83.3269,320.3077,83.8356Zm4.6379-18.9137a3.2411,3.2411,0,0,1-3.8272-2.99c-.4568-3.72,2.8958-4.5957,6.0551-4.9837l.852-.1046c-.33-2.1744-.62-4.0164-3.3216-3.6846-1.8915.2322-2.31,1.6337-2.6474,2.6666l-1.1242-.2206a4.16,4.16,0,0,1,3.7844-3.5446c3.1177-.3828,4.1521,1.6842,4.4021,3.7208l.6455,5.2578c.1352,1.1016.3993,2.7356.4507,2.9825l-1.2056.148-.323-1.9433A5.3217,5.3217,0,0,1,324.9456,64.9219Zm10.973,16.9968-.1648-1.3424c-1.4148,1.478-2.1035,1.8935-3.3886,2.0512-2.2247.2732-3.0819-1.1594-3.3292-3.1731l-1.02-8.3043,3.6056-.4427.9348,7.6139c.0942.7671.3664,1.24,1.2295,1.1339.6328-.0778,1-.4148,1.6849-1.18l-.9725-7.9206,3.6054-.4427,1.42,11.5646Zm11.2214-10.08a3.1727,3.1727,0,0,0-2.47,1.6076l.8949,7.2878-3.6057.4427-1.42-11.5645,3.6056-.4427.2284,1.86.0383-.0047a3.83,3.83,0,0,1,2.8621-2.376,3.7882,3.7882,0,0,1,.6591-.0225l.398,3.241A2.8417,2.8417,0,0,0,347.14,71.8389Zm9.2416,7.5673c-.08-.4962-.2086-1.0646-.26-1.4865l-.0576.0071a5.0408,5.0408,0,0,1-3.0437,2.1647,3.2563,3.2563,0,0,1-3.7272-3.0854c-.3532-2.8768,1.9654-4.4464,4.6886-4.7807.46-.0565.9829-.0818,1.3711-.09l-.0447-.3643c-.1365-1.1124-.5043-1.7291-1.6358-1.59a1.6125,1.6125,0,0,0-1.3819,1.7464L348.9741,71.4c.1068-.5581.623-3.1718,4.5736-3.6568,3.7591-.4616,5.0467,1.4632,5.4047,4.3785l.5934,4.8329c.0847.69.2029,1.4936.3263,2.0234Zm12.6332-1.2787a4.182,4.182,0,0,1-3.3675-1.1049l.1508,1.2274-3.6056.4427-1.83-14.9015,3.6055-.4428.5535,4.5069a4.3913,4.3913,0,0,1,2.911-1.8174c3.3946-.4168,4.4325,2.8041,4.75,5.3931C372.5414,74.3462,372.3134,77.7225,369.0148,78.1275Zm5.9311-1.0007-1.83-14.9016,3.6055-.4427,1.83,14.9016Zm10.6492-3.6437a1.9579,1.9579,0,0,0,1.65-1.6237l3.1719.6229A4.8365,4.8365,0,0,1,385.853,76.06c-4.5836.5628-5.9079-3.246-6.1646-5.3363-.4121-3.3563,1.1115-6.3272,4.6787-6.7652,3.03-.3721,5.6512,1.1555,6.1787,5.4515l.113.92-7.1726.8808C383.5805,71.9784,383.7924,73.7044,385.5951,73.4831Z"/><path class="a33055c9-69a6-4dff-8f15-24a57ecd0cf6" d="M384.7981,66.3586a1.97,1.97,0,0,0-1.6016,2.4937l3.6247-.445C386.6932,67.6833,386.3324,66.17,384.7981,66.3586Z"/><path class="a33055c9-69a6-4dff-8f15-24a57ecd0cf6" d="M366.3434,68.8971a2.2284,2.2284,0,0,0-1.5531,1.1446l.6028,4.91a2.4259,2.4259,0,0,0,1.8152.6725c1.611-.1978,1.46-2.3789,1.33-3.4338C368.3622,70.7516,368.0311,68.69,366.3434,68.8971Z"/><path class="a33055c9-69a6-4dff-8f15-24a57ecd0cf6" d="M24.3772,26.1622l-3.0129.041H15.7561l-2.9714-.041-2.5111,7.6169a5.7588,5.7588,0,0,1-1.276.1256,5.5414,5.5414,0,0,1-1.4857-.21l-.084-.1257L17.0117,5.1525a9.9252,9.9252,0,0,1,1.7574-.1256,7.2332,7.2332,0,0,1,1.59.1256l9.6263,28.4161a2.9085,2.9085,0,0,1-1.57.4193,2.0148,2.0148,0,0,1-1.2767-.3133,2.6543,2.6543,0,0,1-.6692-1.1927ZM13.6219,23.6086l2.4687-.0407H21.029c.0271,0,.39.006,1.0883.02.697.0151,1.1716.0211,1.4229.0211l-2.7624-8.3281q-1.34-3.9757-2.1344-6.863h-.2089q-.67,2.5519-1.3812,4.7711Z"/><path class="a33055c9-69a6-4dff-8f15-24a57ecd0cf6" d="M33.793,14.5281a2.8,2.8,0,0,1,1.2556-1.5908,4.656,4.656,0,0,1,2.8457,3.7252,5.9525,5.9525,0,0,1,5.6082-3.7252,11.9837,11.9837,0,0,1,1.8829.1681,4.8522,4.8522,0,0,1-.67,2.72c-.2794-.0273-.7394-.0425-1.3813-.0425q-3.5567,0-5.2312,3.9764V33.7366a6.5581,6.5581,0,0,1-1.4229.1257,5.973,5.973,0,0,1-1.38-.1257v-14.94A5.95,5.95,0,0,0,33.793,14.5281Z"/><path class="a33055c9-69a6-4dff-8f15-24a57ecd0cf6" d="M58.7352,13.1886a5.7787,5.7787,0,0,1,.1258,1.1292,5.1829,5.1829,0,0,1-.1258,1.0884l-5.3144-.0409V29.8026q0,1.7164,1.6318,1.7166h3.2226a3.46,3.46,0,0,1,.2513,1.2972,4.76,4.76,0,0,1-.0425.837,31.043,31.043,0,0,1-3.9128.2513,4.43,4.43,0,0,1-2.95-.8583,3.0432,3.0432,0,0,1-1.0044-2.4491V15.3653l-2.888.0409a4.742,4.742,0,0,1-.1257-1.0672,5.9237,5.9237,0,0,1,.1257-1.15l2.888.0409V8.71a2.7589,2.7589,0,0,1,.3134-1.506,1.4046,1.4046,0,0,1,1.2352-.46H53.17l.2513.2512v6.2772Z"/><path class="a33055c9-69a6-4dff-8f15-24a57ecd0cf6" d="M67.482,15.951V33.7366a8.1152,8.1152,0,0,1-2.8456,0V17.4148a2.4426,2.4426,0,0,0-.377-1.5893,1.75,1.75,0,0,0-1.3388-.4193h-.3768a4.536,4.536,0,0,1-.1258-1.0249,5.719,5.719,0,0,1,.1258-1.1095,15.3779,15.3779,0,0,1,2.0086-.1664h.3345a2.4526,2.4526,0,0,1,1.9042.7522A2.9812,2.9812,0,0,1,67.482,15.951ZM63.6737,9.1288a3.4213,3.4213,0,0,1-.2929-1.5272,2.8988,2.8988,0,0,1,.2929-1.444,2.9537,2.9537,0,0,1,1.7785-.4194,2.7586,2.7586,0,0,1,1.7369.4194,2.9076,2.9076,0,0,1,.2929,1.444,3.4324,3.4324,0,0,1-.2929,1.5272,2.4684,2.4684,0,0,1-1.6952.4179A3.0427,3.0427,0,0,1,63.6737,9.1288Z"/><path class="a33055c9-69a6-4dff-8f15-24a57ecd0cf6" d="M72.7548,32.1459a2.8891,2.8891,0,0,1,1.1725-2.0921,12.4052,12.4052,0,0,0,5.7119,1.9254,5.804,5.804,0,0,0,3.5366-.9414,3.04,3.04,0,0,0,1.2972-2.4492q0-2.3-3.1386-3.4723l-2.3856-.9218q-5.3572-2.05-5.3568-5.7747a4.9652,4.9652,0,0,1,2.0086-4.143,8.12,8.12,0,0,1,5.1056-1.5484,14.651,14.651,0,0,1,6.0684,1.3381,3.0577,3.0577,0,0,1-.8787,2.26,12.1825,12.1825,0,0,0-4.9588-1.2549,5.16,5.16,0,0,0-3.2855.88,2.6356,2.6356,0,0,0-1.0883,2.1131,2.5085,2.5085,0,0,0,.7743,1.9451,8.6436,8.6436,0,0,0,2.49,1.4228l2.47.9627q5.1052,2.0094,5.1055,5.9851a5.0566,5.0566,0,0,1-2.1137,4.29,9.3,9.3,0,0,1-5.67,1.57A12.6564,12.6564,0,0,1,72.7548,32.1459Z"/><path class="a33055c9-69a6-4dff-8f15-24a57ecd0cf6" d="M107.95,32.5651a2.5818,2.5818,0,0,1-1.34,1.4653,3.7784,3.7784,0,0,1-2.4271-3.0139q-3.2231,3.222-6.6542,3.2226a5.5765,5.5765,0,0,1-4.4358-1.8209,6.252,6.252,0,0,1-1.5907-4.2473,6.0422,6.0422,0,0,1,2.0926-5.0223,8.9382,8.9382,0,0,1,5.7338-1.6742,25.9761,25.9761,0,0,1,4.7287.4193v-2.219q0-4.3935-3.8917-4.3942a17.06,17.06,0,0,0-6.8637,1.7574,2.7491,2.7491,0,0,1-.7327-1.0037,2.9751,2.9751,0,0,1-.3133-1.2562,20.0274,20.0274,0,0,1,8.1186-1.9664q6.4029,0,6.4027,6.9478v8.62Q106.7776,31.4359,107.95,32.5651ZM94.4322,27.7939a4.3713,4.3713,0,0,0,.9,2.9094,3.0806,3.0806,0,0,0,2.49,1.0672,6.7486,6.7486,0,0,0,3.2643-.922,9.2505,9.2505,0,0,0,2.9713-2.6776V24.0281a32.8141,32.8141,0,0,0-4.666-.3361,5.4144,5.4144,0,0,0-3.6411,1.1306A3.7245,3.7245,0,0,0,94.4322,27.7939Z"/><path class="a33055c9-69a6-4dff-8f15-24a57ecd0cf6" d="M129.669,19.34V29.886a9.9891,9.9891,0,0,0,.4193,3.4738,2.4342,2.4342,0,0,1-1.8.6281q-1.4644,0-1.4652-1.883V20.3028a7.6716,7.6716,0,0,0-.6691-3.7464,2.6,2.6,0,0,0-2.4271-1.1079,8.1172,8.1172,0,0,0-3.64.9415,9.44,9.44,0,0,0-3.097,2.4068v14.94a8.1158,8.1158,0,0,1-2.8457,0V13.3551l.25-.25h1.0884a1.3418,1.3418,0,0,1,1.214.46,2.9251,2.9251,0,0,1,.2928,1.5059v.8372a10.4235,10.4235,0,0,1,3.3687-2.2176,10.1155,10.1155,0,0,1,3.9552-.837,4.6535,4.6535,0,0,1,4.0794,1.8A7.9219,7.9219,0,0,1,129.669,19.34Z"/><path class="a33055c9-69a6-4dff-8f15-24a57ecd0cf6" d="M134.7745,32.1459a2.89,2.89,0,0,1,1.1732-2.0921,12.4062,12.4062,0,0,0,5.7111,1.9254,5.8057,5.8057,0,0,0,3.5375-.9414,3.0416,3.0416,0,0,0,1.2972-2.4492q0-2.3-3.1394-3.4723l-2.3856-.9218q-5.3562-2.05-5.3568-5.7747a4.9673,4.9673,0,0,1,2.0086-4.143,8.12,8.12,0,0,1,5.1056-1.5484,14.6514,14.6514,0,0,1,6.0684,1.3381,3.0571,3.0571,0,0,1-.8779,2.26,12.1886,12.1886,0,0,0-4.959-1.2549,5.1623,5.1623,0,0,0-3.2861.88,2.6376,2.6376,0,0,0-1.0883,2.1131,2.5093,2.5093,0,0,0,.775,1.9451,8.6436,8.6436,0,0,0,2.49,1.4228l2.4689.9627q5.1064,2.0094,5.1055,5.9851a5.058,5.058,0,0,1-2.1129,4.29,9.3023,9.3023,0,0,1-5.67,1.57A12.659,12.659,0,0,1,134.7745,32.1459Z"/><path class="a33055c9-69a6-4dff-8f15-24a57ecd0cf6" d="M160.5358,34.28a5.9813,5.9813,0,0,1-5.3766-2.8866,14.6517,14.6517,0,0,1-1.8422-7.9317q0-5.04,2.3644-7.8665a7.09,7.09,0,0,1,5.587-2.826,9.8517,9.8517,0,0,1,4.8544,1.4229V3.2286l.2513-.2513h1.5484a2.0459,2.0459,0,0,1,1.7165.607,3.3444,3.3444,0,0,1,.46,1.9874V27.8773q0,3.013,1.1715,4.06A3.2558,3.2558,0,0,1,169.68,34.03a3.9939,3.9939,0,0,1-3.0971-2.6369A7.7394,7.7394,0,0,1,160.5358,34.28Zm.8158-3.3891a5.8115,5.8115,0,0,0,4.7712-2.7624V17.6252a7.8182,7.8182,0,0,0-4.29-1.591,3.6655,3.6655,0,0,0-3.18,1.9467,10.5572,10.5572,0,0,0-1.2336,5.6277,10.6827,10.6827,0,0,0,1.1081,5.4827A3.2575,3.2575,0,0,0,161.3516,30.891Z"/><path class="a33055c9-69a6-4dff-8f15-24a57ecd0cf6" d="M190.4384,24.697h-12.43A8.6855,8.6855,0,0,0,179.2645,29.3a4.25,4.25,0,0,0,3.766,1.6332,12.9118,12.9118,0,0,0,5.817-1.6332,4.4721,4.4721,0,0,1,1.2972,2.6368,13.3292,13.3292,0,0,1-7.8469,2.3432q-4.4979,0-6.4861-3.0122a14.0084,14.0084,0,0,1-1.9874-7.8468,12.8164,12.8164,0,0,1,2.2387-7.8469A7.3694,7.3694,0,0,1,182.34,12.56a7.7517,7.7517,0,0,1,6.2152,2.5324,9.5083,9.5083,0,0,1,2.1752,6.4239A17.526,17.526,0,0,1,190.4384,24.697Zm-4.709-7.5533a3.6115,3.6115,0,0,0-3.2015-1.5695,3.74,3.74,0,0,0-3.2634,1.61,8.4915,8.4915,0,0,0-1.2564,4.5411h8.7883v-.5434A7.0375,7.0375,0,0,0,185.7294,17.1437Z"/><path class="a33055c9-69a6-4dff-8f15-24a57ecd0cf6" d="M200.1047,30.682h1.6317a4.9277,4.9277,0,0,1,.336,1.6742,7.7866,7.7866,0,0,1-.0848,1.2549,20.129,20.129,0,0,1-3.4723.2936q-3.9778,0-3.9763-4.1021V3.2286l.2512-.2513h1.5061a2.0854,2.0854,0,0,1,1.7165.5858,3.3322,3.3322,0,0,1,.46,2.0086V28.84Q198.4729,30.6813,200.1047,30.682Z"/><path class="a33055c9-69a6-4dff-8f15-24a57ecd0cf6" d="M221.3642,31.9369a3.2562,3.2562,0,0,1-1.5909,2.0935,4.1088,4.1088,0,0,1-3.18-2.6792,8.8837,8.8837,0,0,1-6.1516,2.9289,5.9727,5.9727,0,0,1-4.75-1.8407,6.337,6.337,0,0,1-1.6122-4.3108,6.1869,6.1869,0,0,1,2.1979-5.1677,9.0776,9.0776,0,0,1,5.7959-1.7377,28.6969,28.6969,0,0,1,4.1429.2935V19.8q0-3.8077-3.5148-3.8084a18.0315,18.0315,0,0,0-6.654,1.6333,4.3643,4.3643,0,0,1-1.214-3.0137,21.2916,21.2916,0,0,1,8.5794-1.9254,6.8119,6.8119,0,0,1,5.0013,1.7574,7.0525,7.0525,0,0,1,1.7784,5.2312v8.5794Q220.1925,30.9334,221.3642,31.9369Zm-10.2945-.92a6.7638,6.7638,0,0,0,5.1465-2.72V24.2793a29.9663,29.9663,0,0,0-3.7661-.21,4.5937,4.5937,0,0,0-3.2226,1.0052,3.3716,3.3716,0,0,0-1.0882,2.5944,3.6026,3.6026,0,0,0,.775,2.4688A2.7212,2.7212,0,0,0,211.07,31.0165Z"/><path class="a33055c9-69a6-4dff-8f15-24a57ecd0cf6" d="M235.3853,10.4262l.0423,3.0969V33.7366a20.5169,20.5169,0,0,1-6.4027,0V13.5231l.0409-3.0969h-.0409l-2.5959.0423h-4.435a15.54,15.54,0,0,1-.21-2.6579,15.5416,15.5416,0,0,1,.21-2.6581H242.5a8.6915,8.6915,0,0,1,.3347,2.5536,2.5738,2.5738,0,0,1-.7947,2.1131,4.0278,4.0278,0,0,1-2.5521.6493h-1.4652l-2.5946-.0423Z"/><path class="a33055c9-69a6-4dff-8f15-24a57ecd0cf6" d="M242.2907,15.783a5.6354,5.6354,0,0,1,.7523-1.8,5.3064,5.3064,0,0,1,1.1716-1.4229,5.749,5.749,0,0,1,5.1055,3.766,5.4321,5.4321,0,0,1,5.2738-3.7236,11.2123,11.2123,0,0,1,2.72.3345,12.4361,12.4361,0,0,1-.4179,2.9078,10.9419,10.9419,0,0,1-1.1307,2.9092,8.5286,8.5286,0,0,0-2.0919-.3769,4.1126,4.1126,0,0,0-3.5994,2.26V33.7366a15.8039,15.8039,0,0,1-3.0546.2513,17.8548,17.8548,0,0,1-3.18-.2513V20.094Q243.8392,16.9539,242.2907,15.783Z"/><path class="a33055c9-69a6-4dff-8f15-24a57ecd0cf6" d="M277.1505,30.8485a5.421,5.421,0,0,1-.775,1.8,5.563,5.563,0,0,1-1.1927,1.4227,5.2579,5.2579,0,0,1-4.35-2.2174,8.4765,8.4765,0,0,1-5.9214,2.5111,6.0993,6.0993,0,0,1-4.8982-1.9254,6.5538,6.5538,0,0,1-1.6529-4.3941,6.4263,6.4263,0,0,1,2.3644-5.3992,9.279,9.279,0,0,1,5.879-1.8407c.9233,0,1.9678.0408,3.1393.1256v-.9218q0-2.7609-2.8456-2.761a25.7254,25.7254,0,0,0-6.2364,1.3381,7.5894,7.5894,0,0,1-1.5046-4.3518,22.5223,22.5223,0,0,1,4.6652-1.34,26.5693,26.5693,0,0,1,4.7923-.501,8.0032,8.0032,0,0,1,5.2524,1.7362q2.1115,1.737,2.1132,5.378v8.5372A3.2064,3.2064,0,0,0,277.1505,30.8485Zm-10.6714-1.1292a5.064,5.064,0,0,0,3.2635-1.3819V24.8651q-.9217-.0434-2.51-.0425a2.4774,2.4774,0,0,0-2.8033,2.8033,2.1046,2.1046,0,0,0,.5631,1.4865A1.9392,1.9392,0,0,0,266.4791,29.7193Z"/><path class="a33055c9-69a6-4dff-8f15-24a57ecd0cf6" d="M298.8293,19.8851v8.7035a7.2774,7.2774,0,0,0,1.0036,4.143,5.616,5.616,0,0,1-3.6615,1.34,3.43,3.43,0,0,1-2.8034-.9625,4.61,4.61,0,0,1-.775-2.9291V21.0567a4.6393,4.6393,0,0,0-.4177-2.26,1.558,1.558,0,0,0-1.4652-.7114,4.8387,4.8387,0,0,0-3.4315,1.6316v14.02a16.35,16.35,0,0,1-3.0759.2513,17.7289,17.7289,0,0,1-3.16-.2513V12.8949l.2936-.2921h2.3431a3.137,3.137,0,0,1,3.3058,2.5112,9.3128,9.3128,0,0,1,5.9427-2.5959,5.152,5.152,0,0,1,4.3943,2.01A8.7093,8.7093,0,0,1,298.8293,19.8851Z"/><path class="a33055c9-69a6-4dff-8f15-24a57ecd0cf6" d="M302.2185,32.2714a6.659,6.659,0,0,1,.5645-2.26,5.9077,5.9077,0,0,1,1.1929-1.9238,12.7889,12.7889,0,0,0,5.817,1.7149,3.6343,3.6343,0,0,0,1.9465-.439,1.3209,1.3209,0,0,0,.69-1.1518q0-1.3373-2.0087-2.05l-2.3023-.837q-5.2722-1.9255-5.2736-6.2364a6.1831,6.1831,0,0,1,2.1767-4.98,8.7071,8.7071,0,0,1,5.817-1.8406,17.834,17.834,0,0,1,3.9763.5011,17.4354,17.4354,0,0,1,3.64,1.214,6.2094,6.2094,0,0,1-.4814,2.4688,4.103,4.103,0,0,1-1.276,1.8845,14.6743,14.6743,0,0,0-5.7762-1.5484,2.17,2.17,0,0,0-1.4229.4177,1.351,1.351,0,0,0-.501,1.0882q0,1.0467,1.7574,1.7151l2.5521.9218q5.5649,2.05,5.5673,6.6541a6,6,0,0,1-2.3024,4.9376,10.1472,10.1472,0,0,1-6.4875,1.8421A15.6609,15.6609,0,0,1,302.2185,32.2714Z"/><path class="a33055c9-69a6-4dff-8f15-24a57ecd0cf6" d="M329.7127,17.54V33.7366a15.8,15.8,0,0,1-3.0545.2513,17.8832,17.8832,0,0,1-3.1817-.2513V19.6747q0-2.384-1.9662-2.3856h-.5859a9.5457,9.5457,0,0,1,0-4.3518q2.0911-.209,3.5571-.2089h.8372a4.1252,4.1252,0,0,1,3.2226,1.2972A5.0463,5.0463,0,0,1,329.7127,17.54Zm-7.4911-10.629a6.1534,6.1534,0,0,1,.46-2.3447,6.5184,6.5184,0,0,1,3.0758-.6266,5.77,5.77,0,0,1,2.95.6266,6.1792,6.1792,0,0,1,0,4.6878,6.0206,6.0206,0,0,1-3.0546.6283,5.5461,5.5461,0,0,1-2.9713-.6283A6.151,6.151,0,0,1,322.2216,6.9114Z"/><path class="a33055c9-69a6-4dff-8f15-24a57ecd0cf6" d="M346.6629,12.8541a9.9713,9.9713,0,0,1,0,4.435l-5.0223-.0832V27.2082q0,1.9686,1.8406,1.9663h2.428a8.6182,8.6182,0,0,1,.5025,2.6792,5.91,5.91,0,0,1-.168,1.6741,40.5021,40.5021,0,0,1-5.525.4178q-5.1471,0-5.1465-5.6082V17.2482l-3.2649.0409a8.5464,8.5464,0,0,1-.2513-2.2176,8.5539,8.5539,0,0,1,.2513-2.2174l3.2649.0408v-2.552a4.41,4.41,0,0,1,.7524-2.9305,3.3721,3.3721,0,0,1,2.5959-.837h2.4264l.2937.2935v6.0684Z"/><path class="a33055c9-69a6-4dff-8f15-24a57ecd0cf6" d="M358.17,17.54V33.7366a15.8,15.8,0,0,1-3.0546.2513,17.884,17.884,0,0,1-3.1817-.2513V19.6747q0-2.384-1.9663-2.3856h-.5857a9.5457,9.5457,0,0,1,0-4.3518q2.091-.209,3.5571-.2089h.8371a4.1249,4.1249,0,0,1,3.2226,1.2972A5.0459,5.0459,0,0,1,358.17,17.54Zm-7.4911-10.629a6.15,6.15,0,0,1,.46-2.3447,6.5178,6.5178,0,0,1,3.0758-.6266,5.77,5.77,0,0,1,2.95.6266,6.1817,6.1817,0,0,1,0,4.6878,6.0211,6.0211,0,0,1-3.0546.6283,5.5458,5.5458,0,0,1-2.9713-.6283A6.1472,6.1472,0,0,1,350.6787,6.9114Z"/><path class="a33055c9-69a6-4dff-8f15-24a57ecd0cf6" d="M378.2169,14.6947q3.0129,3.013,3.0138,8.6007,0,5.5852-3.0138,8.5991a9.9742,9.9742,0,0,1-13.1417,0q-3.0129-3.0128-3.0122-8.5991t3.0122-8.6007a10.11,10.11,0,0,1,13.1417,0Zm-9.1032,3.8916a13.582,13.582,0,0,0-.6479,4.73,13.3884,13.3884,0,0,0,.6479,4.7075,2.7663,2.7663,0,0,0,5.0647,0,13.4212,13.4212,0,0,0,.6479-4.7075,13.6154,13.6154,0,0,0-.6479-4.73,2.7533,2.7533,0,0,0-5.0647,0Z"/><path class="a33055c9-69a6-4dff-8f15-24a57ecd0cf6" d="M402.9489,19.8851v8.7035a7.2767,7.2767,0,0,0,1.0034,4.143,5.6157,5.6157,0,0,1-3.6615,1.34,3.43,3.43,0,0,1-2.8034-.9625,4.61,4.61,0,0,1-.775-2.9291V21.0567a4.6393,4.6393,0,0,0-.4177-2.26,1.5581,1.5581,0,0,0-1.4652-.7114,4.84,4.84,0,0,0-3.4316,1.6316v14.02a16.3478,16.3478,0,0,1-3.0758.2513,17.7281,17.7281,0,0,1-3.16-.2513V12.8949l.2935-.2921h2.3433a3.1373,3.1373,0,0,1,3.3059,2.5112,9.3122,9.3122,0,0,1,5.9427-2.5959,5.1517,5.1517,0,0,1,4.3941,2.01A8.7086,8.7086,0,0,1,402.9489,19.8851Z"/></svg>