<?xml version="1.0" encoding="utf-8"?>
<!-- Generator: Adobe Illustrator 22.0.1, SVG Export Plug-In . SVG Version: 6.00 Build 0)  -->
<svg version="1.1" id="Calque_1" xmlns="http://www.w3.org/2000/svg" xmlns:xlink="http://www.w3.org/1999/xlink" x="0px" y="0px"
	 viewBox="0 0 209.5 209.5" style="enable-background:new 0 0 209.5 209.5;" xml:space="preserve">
<g>
	<g>
		<g>
			<g>
				<g>
					<path style="fill:#98C93C;" d="M92.3,148.6c-0.1,0.5-0.6,0.8-1.1,0.7c-0.5-0.1-0.8-0.6-0.7-1.1c0.1-0.5,0.6-0.8,1.1-0.7
						C92.1,147.6,92.4,148.1,92.3,148.6z"/>
					<path style="fill:#98C93C;" d="M91.1,150.1l0,10.1C91.2,160.2,93.3,152.3,91.1,150.1z"/>
				</g>
				<g>
					<path style="fill:#98C93C;" d="M105,148.6c0.1,0.5,0.6,0.8,1.1,0.7c0.5-0.1,0.8-0.6,0.7-1.1c-0.1-0.5-0.6-0.8-1.1-0.7
						C105.2,147.6,104.9,148.1,105,148.6z"/>
					<path style="fill:#98C93C;" d="M106.2,150.1l0,10.1C106.1,160.2,103.9,152.3,106.2,150.1z"/>
				</g>
				<g>
					<path style="fill:#98C93C;" d="M135.1,148.6c0.1,0.5,0.6,0.8,1.1,0.7c0.5-0.1,0.8-0.6,0.7-1.1c-0.1-0.5-0.6-0.8-1.1-0.7
						C135.3,147.6,135,148.1,135.1,148.6z"/>
					<path style="fill:#98C93C;" d="M136.3,150.1l0,10.1C136.3,160.2,134.1,152.3,136.3,150.1z"/>
				</g>
			</g>
			<g>
				<path style="fill:#231F20;" d="M70,159.6l-4.7-11.4c0,0,0-0.1-0.1-0.2c0,0-0.1-0.1-0.2-0.1h-0.1c-0.1,0-0.2,0.1-0.3,0.2
					c0,0-4.8,11.4-4.8,11.4c0,0.1,0,0.1,0,0.2c0,0.1,0,0.2,0.1,0.2c0.1,0.1,0.2,0.1,0.3,0.1c0.1,0,0.2,0,0.2-0.1
					c0,0,0.1-0.1,0.1-0.2c0,0,0.5-1.3,0.7-1.7h7.4l0.7,1.7c0.1,0.2,0.2,0.2,0.3,0.2c0.1,0,0.2,0,0.3-0.1c0.1-0.1,0.1-0.2,0.1-0.2
					C70,159.7,70,159.6,70,159.6L70,159.6z M61.5,157.5l3.4-8.2l3.4,8.2H61.5z"/>
				<path style="fill:#231F20;" d="M157.5,159.3h-7.4v-3.6h5.9c0.2,0,0.4-0.1,0.4-0.4c0-0.2-0.1-0.4-0.4-0.4h-5.9v-6.2h7.3
					c0.2,0,0.4-0.1,0.4-0.4c0-0.2-0.1-0.4-0.4-0.4h-7.6c0,0,0,0,0,0h0h0c0,0-0.1,0-0.1,0c-0.1,0-0.1,0.1-0.1,0.1c0,0.1,0,0.1,0,0.2
					v11.4c0,0.1,0,0.1,0,0.2c0,0.1,0.1,0.2,0.3,0.2h7.9c0.2,0,0.4-0.1,0.4-0.4C157.9,159.5,157.7,159.3,157.5,159.3z"/>
				<path style="fill:#231F20;" d="M148,147.8c-0.1,0-0.2,0-0.3,0.3c0,0-3.7,9.1-4.4,10.9l-4.4-11c-0.1-0.2-0.2-0.2-0.3-0.2
					c-0.1,0-0.2,0-0.3,0.1c-0.1,0.1-0.2,0.2-0.2,0.2c0,0.1,0,0.1,0,0.2c0,0,4.7,11.7,4.7,11.7c0.1,0.2,0.2,0.3,0.3,0.3c0,0,0,0,0,0
					c0,0,0,0,0,0l0,0h0c0.1,0,0.2-0.1,0.3-0.2l0,0l4.7-11.8c0,0,0-0.1,0-0.2c0-0.1,0-0.2-0.1-0.2C148.2,147.8,148.1,147.8,148,147.8
					z M143.3,160.3C143.3,160.3,143.3,160.3,143.3,160.3L143.3,160.3L143.3,160.3C143.3,160.3,143.3,160.3,143.3,160.3L143.3,160.3z
					"/>
				<path style="fill:#231F20;" d="M133.4,148h-7.7c-0.2,0-0.4,0.1-0.4,0.4c0,0.2,0.1,0.4,0.4,0.4h3.5v11c0,0.2,0.1,0.4,0.4,0.4
					c0.2,0,0.4-0.1,0.4-0.4v-11h3.4c0.2,0,0.4-0.1,0.4-0.4C133.8,148.1,133.7,148,133.4,148z"/>
				<path style="fill:#231F20;" d="M126.2,159.6l-4.7-11.4c0,0,0-0.1-0.1-0.2c0,0-0.1-0.1-0.2-0.1H121c-0.1,0-0.2,0.1-0.3,0.2
					c0,0-4.8,11.4-4.8,11.4c0,0.1,0,0.1,0,0.2c0,0.1,0,0.2,0.1,0.2c0.1,0.1,0.2,0.1,0.3,0.1c0.1,0,0.2,0,0.2-0.1
					c0,0,0.1-0.1,0.1-0.2c0,0,0.5-1.3,0.7-1.7h7.4l0.7,1.7c0.1,0.2,0.2,0.2,0.3,0.2c0.1,0,0.2,0,0.3-0.1c0.1-0.1,0.1-0.2,0.1-0.2
					C126.2,159.7,126.2,159.6,126.2,159.6L126.2,159.6z M117.7,157.5l3.4-8.2l3.4,8.2H117.7z"/>
				<path style="fill:#231F20;" d="M116.1,151.6c-0.1-0.3-0.2-0.7-0.4-1.1c-0.2-0.3-0.4-0.7-0.6-1c-0.3-0.3-0.6-0.6-0.9-0.8
					c-0.3-0.2-0.7-0.4-1.2-0.5c-0.4-0.1-0.9-0.2-1.4-0.2h-3l0,0l-0.1,0c-0.1,0.1-0.1,0.2-0.1,0.3v11.4c0,0.2,0.1,0.4,0.4,0.4
					c0.2,0,0.4-0.1,0.4-0.4v-2.4h2.5c0.5,0,1-0.1,1.4-0.2c0.4-0.1,0.8-0.3,1.2-0.5c0.3-0.2,0.7-0.5,0.9-0.8c0.3-0.3,0.5-0.6,0.6-1
					c0.2-0.4,0.3-0.7,0.4-1.1c0.1-0.4,0.1-0.7,0.1-1.1C116.3,152.3,116.2,152,116.1,151.6z M115.5,153.6c-0.1,0.3-0.2,0.6-0.3,0.9
					c-0.1,0.3-0.3,0.6-0.5,0.8c-0.2,0.3-0.5,0.5-0.8,0.7c-0.3,0.2-0.6,0.4-1,0.5c-0.4,0.1-0.8,0.2-1.2,0.2h-2.5v-7.9h2.5
					c0.4,0,0.9,0.1,1.2,0.2c0.4,0.1,0.7,0.3,1,0.5c0.3,0.2,0.6,0.4,0.8,0.7c0.2,0.3,0.4,0.5,0.5,0.8c0.1,0.3,0.2,0.6,0.3,0.9
					c0.1,0.3,0.1,0.6,0.1,0.9C115.6,153,115.5,153.3,115.5,153.6z"/>
				<path style="fill:#231F20;" d="M103.5,149.9c0.1-0.1,0.1-0.2,0.1-0.3c0-0.1,0-0.2-0.2-0.3c-0.5-0.4-1.1-0.8-1.8-1
					c-0.7-0.3-1.4-0.4-2.1-0.4c-0.6,0-1.1,0.1-1.6,0.2c-0.5,0.2-1,0.4-1.5,0.6c-0.4,0.3-0.9,0.6-1.2,1c-0.4,0.4-0.7,0.8-1,1.3
					c-0.3,0.4-0.5,0.9-0.6,1.5c-0.1,0.5-0.2,1.1-0.2,1.6c0,0.6,0.1,1.1,0.2,1.6c0.1,0.5,0.4,1,0.6,1.5c0.3,0.5,0.6,0.9,1,1.2
					c0.4,0.4,0.8,0.7,1.2,1c0.5,0.3,0.9,0.5,1.5,0.6c0.5,0.1,1.1,0.2,1.6,0.2c0.7,0,1.5-0.1,2.1-0.4c0.7-0.3,1.3-0.6,1.8-1
					c0.1-0.1,0.2-0.2,0.2-0.3c0-0.1,0-0.2-0.1-0.3c-0.1-0.1-0.2-0.1-0.3-0.1c-0.1,0-0.2,0-0.3,0.1c-0.5,0.4-1,0.7-1.6,0.9
					c-0.6,0.2-1.2,0.3-1.8,0.3c-0.5,0-1-0.1-1.4-0.2c-0.5-0.1-0.9-0.3-1.3-0.5c-0.4-0.2-0.8-0.5-1.1-0.8c-0.3-0.3-0.6-0.7-0.8-1.1
					c-0.2-0.4-0.4-0.8-0.5-1.3c-0.1-0.5-0.2-0.9-0.2-1.4c0-0.5,0.1-1,0.2-1.4c0.1-0.5,0.3-0.9,0.5-1.3c0.2-0.4,0.5-0.8,0.8-1.1
					c0.3-0.3,0.7-0.6,1.1-0.8c0.4-0.2,0.8-0.4,1.3-0.5c0.4-0.1,0.9-0.2,1.4-0.2c0.6,0,1.3,0.1,1.8,0.3c0.6,0.2,1.1,0.5,1.6,0.9l0,0
					c0.1,0.1,0.2,0.1,0.3,0.1C103.4,150,103.5,149.9,103.5,149.9z"/>
				<path style="fill:#231F20;" d="M88.7,148H81c-0.2,0-0.4,0.1-0.4,0.4c0,0.2,0.1,0.4,0.4,0.4h3.5v11c0,0.2,0.1,0.4,0.4,0.4
					c0.2,0,0.4-0.1,0.4-0.4v-11h3.4c0.2,0,0.4-0.1,0.4-0.4C89.1,148.1,88.9,148,88.7,148z"/>
				<path style="fill:#231F20;" d="M78.8,149.4c-0.4-0.4-0.9-0.8-1.4-1c-0.6-0.3-1.3-0.4-2-0.4h-3.8l0,0l-0.1,0
					c-0.1,0-0.1,0.1-0.1,0.3v11.4c0,0.2,0.1,0.4,0.4,0.4c0.2,0,0.4-0.1,0.4-0.4v-2.8h3.3c0.7,0,1.2-0.1,1.8-0.3l1.5,3.1l0,0
					c0,0.1,0.1,0.3,0.2,0.3c0.1,0.1,0.2,0.1,0.3,0.1c0.2,0,0.3-0.1,0.3-0.2c0.1-0.1,0-0.2,0-0.4l0,0l-1.6-3.3
					c0.3-0.2,0.6-0.4,0.9-0.7c0.3-0.3,0.5-0.6,0.7-0.9c0.2-0.3,0.3-0.7,0.4-1.1c0.1-0.4,0.1-0.8,0.1-1.1c0-0.5-0.1-1.1-0.3-1.6
					C79.4,150.3,79.1,149.9,78.8,149.4z M79,153.3c-0.1,0.3-0.2,0.6-0.3,0.9c-0.1,0.3-0.3,0.5-0.5,0.8c-0.2,0.2-0.5,0.4-0.7,0.6
					c-0.3,0.2-0.6,0.3-1,0.4c-0.4,0.1-0.8,0.2-1.2,0.2H72v-7.4h3.3c0.4,0,0.9,0.1,1.2,0.1c0.4,0.1,0.7,0.2,1,0.4
					c0.3,0.2,0.5,0.4,0.7,0.6c0.2,0.3,0.4,0.5,0.5,0.8c0.1,0.3,0.2,0.6,0.3,0.9c0.1,0.3,0.1,0.6,0.1,0.9
					C79.1,152.7,79.1,153,79,153.3z"/>
				<path style="fill:#231F20;" d="M60.3,151.6c-0.1-0.4-0.2-0.7-0.4-1.1c-0.2-0.3-0.4-0.7-0.6-1c-0.3-0.3-0.6-0.6-0.9-0.8
					c-0.3-0.2-0.7-0.4-1.2-0.5c-0.4-0.1-0.9-0.2-1.4-0.2h-3l0,0l-0.1,0l0,0l0,0c-0.1,0.1-0.1,0.2-0.1,0.3v11.4
					c0,0.2,0.1,0.4,0.4,0.4c0.2,0,0.4-0.1,0.4-0.4v-2.4h2.5c0.5,0,1-0.1,1.4-0.2c0.4-0.1,0.8-0.3,1.2-0.5c0.3-0.2,0.6-0.5,0.9-0.8
					c0.3-0.3,0.5-0.6,0.6-1c0.2-0.3,0.3-0.7,0.4-1.1c0.1-0.4,0.1-0.7,0.1-1.1C60.4,152.3,60.4,152,60.3,151.6z M59.6,153.6
					c-0.1,0.3-0.2,0.6-0.3,0.9c-0.1,0.3-0.3,0.6-0.5,0.8c-0.2,0.3-0.5,0.5-0.8,0.7c-0.3,0.2-0.6,0.4-1,0.5c-0.4,0.1-0.8,0.2-1.2,0.2
					h-2.5v-7.9h2.5c0.5,0,0.9,0.1,1.2,0.2c0.4,0.1,0.7,0.3,1,0.5c0.3,0.2,0.6,0.4,0.8,0.7c0.2,0.3,0.4,0.5,0.5,0.8
					c0.1,0.3,0.2,0.6,0.3,0.9c0.1,0.3,0.1,0.6,0.1,0.9C59.7,153,59.7,153.2,59.6,153.6z"/>
			</g>
		</g>
		<g>
			<g>
				<g>
					<path style="fill:#98C93C;" d="M139,122.3c0.2,0.8,1,1.3,1.8,1.1c0.8-0.2,1.3-1,1.1-1.8c-0.2-0.8-1-1.3-1.8-1.1
						C139.3,120.7,138.8,121.5,139,122.3z"/>
					<path style="fill:#98C93C;" d="M140.8,124.6l-0.1,15.9C140.8,140.5,137.3,128.1,140.8,124.6z"/>
				</g>
				<g>
					<path style="fill:#98C93C;" d="M85.9,122.3c-0.2,0.8-1,1.3-1.8,1.1c-0.8-0.2-1.3-1-1.1-1.8c0.2-0.8,1-1.3,1.8-1.1
						C85.6,120.7,86.1,121.5,85.9,122.3z"/>
					<path style="fill:#98C93C;" d="M84,124.6l0.1,15.9C84.1,140.5,87.5,128.1,84,124.6z"/>
				</g>
			</g>
			<g>
				<g>
					<path style="fill:#231F20;" d="M65.6,139.5H53.6v-6h9.6c0.3,0,0.5-0.2,0.5-0.5c0-0.3-0.2-0.5-0.5-0.5h-9.6v-10.2h11.8
						c0.3,0,0.5-0.2,0.5-0.5c0-0.3-0.2-0.5-0.5-0.5H53.1c0,0,0,0-0.1,0l0,0c-0.1,0-0.1,0-0.2,0c-0.1,0-0.1,0.1-0.2,0.2
						c0,0.1-0.1,0.2-0.1,0.3V140c0,0.1,0,0.2,0.1,0.3c0.1,0.1,0.2,0.2,0.3,0.2h12.7c0.3,0,0.5-0.2,0.5-0.5
						C66.2,139.7,66,139.5,65.6,139.5z"/>
				</g>
				<g>
					<path style="fill:#231F20;" d="M81,126.9c-0.1-0.6-0.3-1.2-0.6-1.7c-0.3-0.5-0.6-1.1-1-1.6c-0.4-0.5-0.9-0.9-1.4-1.3
						c-0.5-0.4-1.2-0.7-1.9-0.9c-0.7-0.2-1.5-0.3-2.3-0.3H69l0,0l-0.2,0.1c-0.1,0.1-0.2,0.2-0.2,0.4V140c0,0.3,0.2,0.5,0.5,0.5
						c0.3,0,0.5-0.2,0.5-0.5v-3.9h4.1c0.8,0,1.6-0.1,2.3-0.3c0.7-0.2,1.3-0.5,1.9-0.9c0.6-0.4,1-0.8,1.4-1.3c0.4-0.5,0.8-1,1-1.6
						c0.3-0.5,0.5-1.1,0.6-1.7c0.1-0.6,0.2-1.1,0.2-1.7C81.2,128.1,81.2,127.5,81,126.9z M73.8,135.1h-4.1v-12.9h4.1
						c0.7,0,1.4,0.1,2,0.3c0.6,0.2,1.2,0.4,1.6,0.8c0.5,0.3,0.9,0.7,1.3,1.1c0.4,0.4,0.6,0.9,0.9,1.4c0.2,0.5,0.4,1,0.5,1.5
						c0.1,0.5,0.2,1,0.2,1.5c0,0.5-0.1,0.9-0.2,1.5c-0.1,0.5-0.3,1-0.5,1.5c-0.2,0.5-0.5,0.9-0.9,1.3c-0.3,0.4-0.8,0.8-1.3,1.1
						c-0.5,0.3-1,0.6-1.6,0.8C75.2,135,74.5,135.1,73.8,135.1z"/>
				</g>
				<g>
					<path style="fill:#231F20;" d="M103.5,137.5c-0.1,0-0.3,0.1-0.4,0.2c-0.8,0.6-1.6,1.1-2.6,1.5c-0.9,0.4-1.9,0.5-3,0.5
						c-0.8,0-1.6-0.1-2.3-0.3c-0.7-0.2-1.4-0.5-2.1-0.9c-0.6-0.4-1.2-0.8-1.8-1.4c-0.5-0.5-1-1.1-1.4-1.8c-0.4-0.7-0.7-1.4-0.9-2.1
						c-0.2-0.7-0.3-1.5-0.3-2.3c0-0.8,0.1-1.6,0.3-2.3c0.2-0.7,0.5-1.5,0.9-2.1c0.4-0.7,0.8-1.3,1.4-1.8c0.5-0.5,1.1-1,1.8-1.4
						c0.6-0.4,1.3-0.7,2.1-0.9c0.7-0.2,1.5-0.3,2.3-0.3c1.1,0,2.1,0.2,3,0.5c0.9,0.4,1.8,0.9,2.6,1.5l0,0c0.1,0.1,0.2,0.2,0.4,0.2
						c0.1,0,0.3-0.1,0.4-0.2c0.1-0.1,0.2-0.3,0.2-0.4c0-0.2-0.1-0.3-0.2-0.4c-0.9-0.7-1.8-1.3-2.9-1.7c-1-0.4-2.2-0.6-3.4-0.6
						c-0.9,0-1.8,0.1-2.6,0.4c-0.8,0.2-1.6,0.6-2.3,1c-0.7,0.4-1.4,0.9-2,1.6c-0.6,0.6-1.1,1.3-1.5,2c-0.4,0.7-0.7,1.5-1,2.4
						c-0.2,0.8-0.3,1.7-0.3,2.6c0,0.9,0.1,1.8,0.3,2.6c0.2,0.8,0.6,1.6,1,2.4c0.4,0.7,0.9,1.4,1.5,2c0.6,0.6,1.3,1.1,2,1.5
						c0.7,0.4,1.5,0.8,2.3,1c0.8,0.2,1.7,0.4,2.6,0.4c1.2,0,2.3-0.2,3.4-0.6c1-0.4,2-1,2.9-1.7c0.2-0.1,0.2-0.2,0.2-0.4
						c0-0.1-0.1-0.3-0.2-0.4C103.8,137.6,103.7,137.5,103.5,137.5z"/>
				</g>
				<g>
					<path style="fill:#231F20;" d="M120.1,139.5h-12.1v-6h9.6c0.3,0,0.5-0.2,0.5-0.5c0-0.3-0.2-0.5-0.5-0.5h-9.6v-10.2h11.8
						c0.3,0,0.5-0.2,0.5-0.5c0-0.3-0.2-0.5-0.5-0.5h-12.3c0,0,0,0-0.1,0l0,0c-0.1,0-0.1,0-0.2,0c-0.1,0-0.1,0.1-0.2,0.2
						c0,0.1-0.1,0.2-0.1,0.3V140c0,0.1,0,0.2,0.1,0.3c0.1,0.1,0.2,0.2,0.3,0.2h12.7c0.3,0,0.5-0.2,0.5-0.5
						C120.7,139.7,120.5,139.5,120.1,139.5z"/>
				</g>
				<g>
					<path style="fill:#231F20;" d="M135.9,131.7c0.3-0.5,0.5-1.1,0.7-1.7c0.1-0.6,0.2-1.2,0.2-1.8c0-0.8-0.1-1.7-0.4-2.5
						c-0.3-0.8-0.7-1.6-1.3-2.3c-0.6-0.7-1.4-1.2-2.3-1.7c-0.9-0.4-2-0.6-3.3-0.6h-6.1l0,0l-0.2,0.1c-0.1,0.1-0.2,0.2-0.2,0.4V140
						c0,0.3,0.2,0.5,0.5,0.5c0.3,0,0.5-0.2,0.5-0.5v-4.7h5.4c1.1,0,2.1-0.2,2.9-0.5l2.4,5.1l0,0c0.1,0.2,0.2,0.4,0.3,0.5
						c0.1,0.1,0.3,0.2,0.4,0.2h0l0,0c0.2,0,0.4-0.1,0.5-0.3c0.1-0.1,0.1-0.3,0-0.5c0,0-2.2-4.6-2.5-5.4c0.5-0.3,1-0.7,1.4-1.1
						C135.3,132.8,135.7,132.3,135.9,131.7z M129.5,134.3h-5.4v-12.1h5.4c0.7,0,1.4,0.1,2,0.2c0.6,0.2,1.1,0.4,1.6,0.7
						c0.5,0.3,0.9,0.6,1.2,1c0.3,0.4,0.6,0.8,0.8,1.3c0.2,0.4,0.4,0.9,0.5,1.4c0.1,0.5,0.2,1,0.2,1.4c0,0.5-0.1,1-0.2,1.4
						c-0.1,0.5-0.3,1-0.5,1.4c-0.2,0.4-0.5,0.9-0.8,1.3c-0.3,0.4-0.7,0.7-1.2,1c-0.5,0.3-1,0.5-1.6,0.7
						C130.9,134.2,130.2,134.3,129.5,134.3z"/>
				</g>
				<g>
					<path style="fill:#231F20;" d="M157.7,139.5h-12.1v-6h9.6c0.3,0,0.5-0.2,0.5-0.5c0-0.3-0.2-0.5-0.5-0.5h-9.6v-10.2h11.8
						c0.3,0,0.5-0.2,0.5-0.5c0-0.3-0.2-0.5-0.5-0.5h-12.3c0,0,0,0-0.1,0l0,0c-0.1,0-0.1,0-0.2,0c-0.1,0-0.1,0.1-0.2,0.2
						c0,0.1-0.1,0.2-0.1,0.3V140c0,0.1,0,0.2,0.1,0.3c0.1,0.1,0.2,0.2,0.3,0.2h12.7c0.3,0,0.5-0.2,0.5-0.5
						C158.2,139.7,158,139.5,157.7,139.5z"/>
				</g>
			</g>
		</g>
	</g>
	<path style="fill:#404040;" d="M105.8,197.3c-47,0-85.2-38.3-85.2-85.4c0-9.3,1.5-18.2,4.2-26.6c-3.4,9.2-5.2,19.1-5.2,29.5
		c0,47.2,38.3,85.4,85.4,85.4c43.4,0,79.2-32.3,84.7-74.2C183.1,166.4,148.1,197.3,105.8,197.3z"/>
	<g>
		<g>
			<path style="fill:#A4CE4C;" d="M86,81c1.2-0.6,2.3-1.2,3.5-1.9c3.2-1.7,6.5-3.3,9.7-5.1c1.1-0.6,2.1-1.2,3.2-1.7
				c0-0.1,0-0.1,0.1-0.2c0.2-0.5,0.4-0.9,0.6-1.3c-1.3,0.7-2.5,1.4-3.9,2.1c-3.3,1.8-6.6,3.5-10,5.2c-1.2,0.6-2.5,1.3-3.7,1.9L86,81
				L86,81z"/>
			<path style="fill:#A4CE4C;" d="M72.3,89.2c1.4-1.1,3-2.1,4.6-3.2c0,0,0-0.1,0-0.1c1-0.6,2.1-1.3,3.3-1.9c0.1,0,0.2-0.1,0.3-0.1
				c0,0,0,0.1,0,0.1c0,0,0,0,0,0c0.9-0.5,1.8-1,2.7-1.5l-0.4-0.8c-0.7,0.4-1.5,0.8-2.2,1.2c-0.3,0.2-0.6,0.3-0.9,0.5
				c-0.9,0.5-1.8,1-2.6,1.5c-2,1.2-3.8,2.4-5.5,3.7c-2.4,1.8-4.3,3.7-5.7,5.6c-0.5,0.7-1,1.5-1.3,2.3h1c0.3-0.6,0.7-1.2,1.2-1.8
				C68.2,92.7,70,91,72.3,89.2z"/>
			<path style="fill:#A4CE4C;" d="M106.3,74.4c0.1,1.6,0.3,3.6,0.5,5.8c0.2-0.4,0.4-0.8,0.6-1.3c1.1-2.4,1.9-4.6,2.5-6.6
				c0.6-2,0.9-3.8,1-5.3c0.9-0.7,1.7-1.3,2.5-1.8c0.7-0.5,1.4-1,2-1.5c0.6-0.5,1.3-1,1.9-1.5c0.6-0.5,1.3-1,2.1-1.6
				c0.2-0.1,0.3-0.2,0.3-0.4c0-0.1,0-0.3-0.1-0.3c-0.1-0.1-0.2-0.1-0.4-0.2c-0.2,0-0.4,0.1-0.6,0.2c-0.6,0.5-1.2,1-1.8,1.4
				c-0.6,0.4-1.2,0.9-1.8,1.4c-0.6,0.5-1.3,1-1.9,1.5c-0.7,0.5-1.4,1.1-2.1,1.7c-0.1-0.8-0.2-1.4-0.4-1.9c-0.2-0.5-0.5-0.9-1-1.1
				c0.7-0.5,1.1-1.2,1.2-2c0.1-0.8,0-1.5-0.3-2.1c-0.3-0.6-0.9-1.2-1.6-1.5c-0.7-0.4-1.6-0.4-2.6-0.2c-0.8,0.2-1.6,0.6-2.4,1.2
				c-0.9,0.6-1.9,1.3-3.1,2.3c-0.2,0.1-0.3,0.3-0.3,0.4c0,0.1,0,0.3,0.1,0.3c0.1,0.1,0.2,0.1,0.4,0.1c0.2,0,0.4-0.1,0.6-0.3
				c0.7-0.5,1.3-1,1.8-1.3c0.5-0.4,0.9-0.6,1.2-0.9c0.4-0.2,0.7-0.4,0.9-0.5c0.3-0.1,0.6-0.2,0.9-0.2c0.6-0.1,1,0,1.4,0.2
				c0.4,0.2,0.6,0.6,0.7,1c0.1,0.4,0.1,0.9,0,1.3c-0.1,0.5-0.3,0.9-0.6,1.3c-0.4,0.4-0.8,0.8-1.3,1.1c-0.5,0.3-1,0.5-1.5,0.8
				c-0.3,0.1-0.4,0.3-0.5,0.4c-0.1,0.2-0.1,0.3,0,0.4c0.1,0.1,0.2,0.2,0.3,0.2c0.2,0,0.3,0,0.6-0.1c1.3-0.6,2.2-0.7,2.7-0.1
				c0.5,0.5,0.6,1.5,0.5,2.9c-1,0.6-2,1.3-3,1.9c0,0,0.1,0.1,0.1,0.1c0.1,0.1,0.1,0.2,0.1,0.4c0,0.1,0.1,0.2,0.1,0.4
				c0.8-0.5,1.6-1,2.4-1.5c-0.3,1.4-0.9,3-1.7,4.9C106.6,73.9,106.5,74.2,106.3,74.4z"/>
			<path style="fill:#A4CE4C;" d="M103.5,80c-1.1,2-2.4,4.1-3.9,6.2c-0.2,0.2-0.4,0.5-0.5,0.7l-0.3,0.7l-4.7,9.9
				c0,0-0.8,1.7-0.8,1.6c-0.1,0.2-0.2,0.3-0.3,0.5c-0.1,0.1-0.4,0.3-0.8,0.3c-0.3,0-0.8-0.1-1.1-0.8l-0.8-1.7
				c-0.5,0.5-0.9,0.9-1.4,1.4c-2,1.9-4.1,3.6-6.3,5.1c-2.8,1.9-5.3,3.1-7.5,3.5c-2.2,0.5-4.2,0.5-5.7,0c-1.6-0.5-2.8-1.4-3.6-2.7
				c-0.8-1.3-1.2-2.8-1.2-4.4c0-0.2,0-0.5,0.1-0.7h-0.9c0,0.2,0,0.4,0,0.7c-0.1,1.2,0.1,2.4,0.6,3.6c0.4,1.2,1.1,2.3,1.9,3.3
				c0.9,1,1.9,1.8,3.1,2.4c1.2,0.6,2.7,1,4.3,1c1.6,0.1,3.4-0.2,5.3-0.8c1.9-0.6,4-1.6,6.2-3.1c2.6-1.7,5-3.7,7.2-6
				c2.3-2.2,4.3-4.6,6.2-7c1.9-2.4,3.6-4.9,5.1-7.5c0.1-0.2,0.3-0.5,0.4-0.7l0-0.1L103.5,80z"/>
			<path style="fill:#A4CE4C;" d="M67.2,69.2l0.1-0.2v0l0.5-1c0.4-0.7,1-1.6,1.6-2.5c0.7-0.9,1.3-1.8,2-2.6c0.7-0.8,1.4-1.5,2-2
				c0.6-0.5,1.1-0.8,1.4-0.8c0.5,0,0.8,0.1,0.9,0.4c0.1,0.3,0,0.7-0.2,1.3c-0.2,0.6-0.5,1.3-0.9,2c-0.4,0.8-0.8,1.6-1.3,2.6
				c-0.4,0.9-0.8,1.9-1.2,2.9C72.1,69.6,72,69.8,72,70h0.2c0.8,0,1.3,0.5,1.3,1.3V72c0,0.4-0.1,0.7-0.3,0.9c-0.2,0.2-0.6,0.4-1,0.4
				h-0.8c0,0.3,0,0.7,0.1,1c0.1,0.6,0.2,1.1,0.5,1.6c0.2,0.5,0.5,0.8,0.9,1.1c0.4,0.3,0.8,0.4,1.3,0.4c0.6,0,1.3-0.2,1.9-0.7
				c0.7-0.5,1.3-1,1.9-1.7c0.1-0.8,0.1-1.6,0.2-2.2c-0.2,0.2-0.3,0.5-0.5,0.7c-0.5,0.6-0.9,1.1-1.3,1.5c-0.4,0.4-0.7,0.6-1,0.6
				c-0.5,0-0.8-0.2-0.8-0.6c0-0.4,0.1-0.9,0.3-1.5c0.2-0.6,0.6-1.3,1-2.2c0.4-0.8,0.8-1.7,1.3-2.6c0.4-0.9,0.8-1.9,1.1-2.8
				c0.3-1,0.5-1.9,0.6-2.8c0.2-1.4,0-2.6-0.5-3.5c-0.5-0.9-1.2-1.3-2.2-1.3c-0.8,0-1.7,0.4-2.6,1.1c-0.8,0.6-1.7,1.4-2.5,2.3
				c0.3-1.2,0.7-2.4,1.2-3.6c0.3-0.7,0.6-1.4,0.9-2.1h0c0,0,0.1-0.2,0.1-0.2s1-2.4,1.1-2.5c1.3-0.1,2.7-0.2,4.2-0.5c0,0,0.1,0,0.1,0
				c0,0,0.1,0,0.1,0c1.5-0.3,3-0.7,4.4-1.3c1.5-0.6,3.1-1.5,4.6-2.5c1.5-1.1,2.8-2.4,4.1-4c1.5-1.9,2.6-3.9,3.3-5.8
				c0.7-1.9,1.1-3.7,1.1-5.4c0-1.6-0.2-3.1-0.8-4.2c-0.6-1.2-1.5-1.9-2.7-2.2c-1.1-0.3-2.5-0.1-4.1,0.7c-1.5,0.7-3.3,2.2-5.1,4.3
				c-1.9,2.1-3.9,5-6,8.6c-1.8,3-3.6,6.6-5.5,10.9l0,0l-0.1,0.1c0,0,0,0,0,0.1c-0.3,0-0.5,0.1-0.6,0.2c-0.2,0.1-0.3,0.3-0.3,0.5
				c0,0.1,0,0.3,0.2,0.5c0,0,0.1,0,0.1,0l-1.2,2.3l-0.2,0.4h0C67.8,60,64.6,66.2,62.8,70h4C67,69.7,67.1,69.5,67.2,69.2z M80.4,40.9
				c1.8-2.9,3.5-5.3,5.1-7c1.5-1.7,2.9-2.9,4.2-3.5c1.2-0.6,2.2-0.8,3-0.6c0.8,0.2,1.4,0.7,1.8,1.6c0.4,0.9,0.5,2,0.4,3.3
				c-0.1,1.3-0.5,2.8-1.2,4.5c-0.7,1.6-1.7,3.3-3,5c-1.1,1.4-2.3,2.5-3.7,3.4c-1.4,0.9-2.9,1.7-4.4,2.3c-1.5,0.6-3,1-4.4,1.3
				c-1.2,0.2-2.3,0.4-3.3,0.4C76.8,47.4,78.7,43.7,80.4,40.9z"/>
			<path style="fill:#A4CE4C;" d="M80.7,69.8l0.4,0.9c0.2-0.3,0.4-0.6,0.6-0.9c0.5-0.9,1-1.7,1.4-2.4c0.4-0.8,0.7-1.4,0.9-1.8
				c0.1-0.2,0.1-0.3,0-0.5c-0.1-0.2-0.2-0.3-0.4-0.3c-0.2,0-0.3,0-0.5,0c-0.2,0.1-0.3,0.2-0.4,0.4c-0.2,0.4-0.4,1-0.8,1.7
				c-0.4,0.7-0.8,1.4-1.2,2.1c-0.1,0.2-0.2,0.3-0.3,0.5C80.5,69.5,80.6,69.6,80.7,69.8z"/>
			<path style="fill:#A4CE4C;" d="M61.2,75.4c0.2,0.8,0.6,1.3,1,1.6c0.5,0.3,0.9,0.4,1.3,0.4c0.4,0,0.8-0.1,1-0.3
				c0.3-0.2,0.4-0.4,0.3-0.6c-0.2-0.4-0.1-1.2,0.4-2.5c0.1-0.2,0.2-0.4,0.2-0.6h-4.2C61.1,74.2,61.1,74.9,61.2,75.4z"/>
			<path style="fill:#A4CE4C;" d="M51.9,77.6c-1.1,0.7-2.2,1.2-3.3,1.5c-1.1,0.3-2.1,0.3-3.1,0.1c-1-0.2-1.8-0.7-2.4-1.4
				c-0.9-0.9-1.4-2.3-1.5-3.9c-0.2-1.7-0.1-3.5,0.3-5.6c0.4-2.1,0.9-4.3,1.7-6.6c0.8-2.3,1.8-4.6,2.9-6.8c1.1-2.2,2.3-4.3,3.7-6.2
				c1.4-1.9,2.7-3.6,4.2-4.9c1.4-1.3,2.9-2.3,4.3-2.9c1.5-0.6,2.8-0.6,4.2-0.1c0.7,0.3,1.4,0.8,1.8,1.4c0.5,0.6,0.8,1.3,1,2.1
				c0.2,0.8,0.3,1.7,0.2,2.6c-0.1,1-0.3,1.9-0.7,2.9c-0.1,0.1-0.1,0.3,0,0.4c0.1,0.1,0.1,0.2,0.3,0.2c0.1,0,0.2,0,0.3,0
				c0.1,0,0.2-0.1,0.3-0.2c1-2.2,1.5-4.3,1.5-6.3c0-2-0.5-3.6-1.6-4.9c-1.2-1.4-2.8-2-4.7-2c-1.9,0.1-4,0.7-6.1,2
				c-1.8,1.1-3.7,2.7-5.5,4.7c-1.8,2-3.5,4.3-5.1,6.9c-1.5,2.6-2.9,5.2-4.1,8.1c-1.2,2.8-2,5.5-2.5,8.2c-0.5,2.6-0.7,5.1-0.5,7.3
				c0.2,2.2,0.9,4,2.1,5.3c0.9,1,2,1.7,3.2,2c1.3,0.3,2.6,0.4,4,0.1c1.4-0.3,2.8-0.8,4.2-1.6c0.5-0.3,0.9-0.6,1.3-0.9v-1.9
				C52.2,77.3,52,77.4,51.9,77.6z"/>
			<path style="fill:#A4CE4C;" d="M60.4,65.9c0-0.2,0-0.3-0.1-0.4c-0.1-0.1-0.2-0.1-0.3-0.1c-0.1,0-0.2,0-0.4,0.1
				c-0.1,0.1-0.2,0.2-0.2,0.3c-0.3,1.5-0.8,2.9-1.4,4.3h1.2C59.8,68.7,60.2,67.3,60.4,65.9z"/>
			<path style="fill:#A4CE4C;" d="M56.2,73.2c-0.2,0.3-0.4,0.5-0.6,0.8v2.1c0.7-0.9,1.4-1.8,2.1-2.9H56.2z"/>
			<path style="fill:#A4CE4C;" d="M92,58.4c-1,0.6-1.9,1.3-2.6,2.2c-0.8,0.9-1.5,1.8-2.1,2.9c-0.6,1-1.1,2-1.4,3
				c-0.5,1.4-0.8,2.7-0.9,4c-0.1,1.2,0,2.3,0.3,3.1c0.3,0.9,0.9,1.6,1.7,2.1c0.8,0.5,1.9,0.7,3.2,0.7c1,0,1.9-0.2,2.8-0.7
				c0.9-0.5,1.8-1.1,2.7-1.9c0.8-0.8,1.6-1.7,2.4-2.7c0.7-1,1.4-1.9,2-2.9c0.1-0.2,0.2-0.4,0.1-0.6c-0.1-0.2-0.2-0.2-0.4-0.3
				c-0.2,0-0.4,0-0.6,0.1c-0.2,0.1-0.4,0.2-0.5,0.5c-0.5,0.8-1,1.6-1.6,2.3c-0.6,0.8-1.2,1.4-1.8,2c-0.6,0.6-1.3,1.1-2,1.5
				c-0.7,0.4-1.3,0.6-2,0.6c-0.8,0-1.3-0.2-1.8-0.6c-0.4-0.4-0.7-0.9-0.9-1.5c2-1.3,3.7-2.7,4.9-4.2c1.2-1.5,2.2-3.1,3-4.8
				c0.2-0.4,0.4-0.9,0.5-1.6c0.1-0.6,0.2-1.3,0.2-1.9c0-0.6-0.2-1.1-0.5-1.5c-0.3-0.4-0.8-0.6-1.6-0.6C94,57.6,92.9,57.9,92,58.4z
				 M95.1,61.3c-0.1,0.4-0.2,0.7-0.3,1.1c-0.1,0.4-0.3,0.6-0.3,0.8c-0.4,0.9-0.7,1.6-1.1,2.3c-0.4,0.7-0.8,1.3-1.3,1.9
				c-0.5,0.6-1,1.2-1.6,1.7c-0.6,0.6-1.3,1.1-2.1,1.7c-0.1-0.6,0-1.2,0.1-1.8c0.1-0.6,0.2-1.2,0.4-1.7c0.2-0.5,0.4-1.1,0.8-2
				c0.4-0.8,0.8-1.6,1.4-2.4c0.5-0.8,1.1-1.5,1.7-2.1c0.6-0.6,1.2-0.9,1.8-0.9c0.4,0,0.6,0.1,0.6,0.4C95.2,60.6,95.2,61,95.1,61.3z"
				/>
		</g>
		<g>
			<path style="fill:#231F20;" d="M106.9,80.1c-0.2-2.2-0.4-4.2-0.5-5.8c-0.2-2.4-0.4-4-0.4-4c0,0,0-0.1,0-0.1
				c0-0.2-0.1-0.4-0.2-0.6c0-0.1-0.1-0.2-0.2-0.2c-0.2-0.2-0.5-0.3-0.8-0.3c-0.5,0-0.8,0.3-1.1,0.7c0,0-0.2,0.4-0.5,1
				c-0.2,0.4-0.4,0.9-0.7,1.4c-2.9,5.9-10.1,20.9-10.1,20.9c-0.1,0.2-0.2,0.4-0.3,0.6L86,80.9l-0.4-0.8l-5-10.3
				c-0.2-0.4-0.6-0.7-1-0.7c-0.6,0-0.9,0.3-1,0.5c-0.1,0.2-0.2,0.5-0.2,0.7c0,0-0.7,7.3-1.3,14.5c0.9-0.5,1.7-1,2.6-1.5
				c0.3-0.2,0.6-0.3,0.9-0.5c0.2-1.9,0.3-3.7,0.4-4.9l1.8,3.7l0.4,0.8l7.1,15l0.8,1.7c0.3,0.7,0.8,0.8,1.1,0.8
				c0.4,0,0.7-0.2,0.8-0.3c0.1-0.2,0.2-0.3,0.3-0.5c0,0,0.8-1.6,0.8-1.6l4.7-9.9l0.3-0.7l4.3-9l0.2,2l0.5,5.6l1.2,12.8
				c0,0.3,0.1,0.6,0.3,0.9c0.2,0.2,0.5,0.4,1,0.4h0.8c0.8,0,1.3-0.5,1.3-1.3C108.5,98.3,107.6,88.2,106.9,80.1z M77,86
				c-0.6,6.4-1.1,12.2-1.1,12.2c0,0.4,0.1,0.7,0.3,1c0.2,0.2,0.4,0.4,1,0.4h0.8c0.8,0,1.3-0.5,1.3-1.3c0,0,0.7-7.9,1.3-14.4
				c-0.1,0-0.2,0.1-0.3,0.1C79.1,84.7,78,85.3,77,86z"/>
			<path style="fill:#231F20;" d="M140.1,69.7c-0.2-0.3-0.5-0.5-1-0.5c-0.5,0-0.8,0.2-1.1,0.7c0,0-11.2,23.3-11.2,23.3
				c-0.1,0.2-0.2,0.4-0.3,0.6l-11.5-23.9c-0.2-0.4-0.6-0.7-1-0.7c-0.6,0-0.9,0.3-1,0.5c-0.1,0.2-0.2,0.4-0.2,0.7
				c0,0-2.5,27.9-2.5,27.9c0,0.4,0.1,0.7,0.3,1c0.2,0.2,0.5,0.4,1,0.4h0.8c0.8,0,1.3-0.5,1.3-1.3c0,0,1.3-14.8,1.8-20.4l10.1,21.2
				c0.3,0.7,0.8,0.8,1.1,0.8c0.4,0,0.7-0.2,0.8-0.3c0.2-0.2,0.3-0.3,0.3-0.5c0,0,5.5-11.5,5.5-11.5l4.6-9.7l1.8,20.4
				c0,0.3,0.1,0.6,0.3,0.9c0.2,0.2,0.5,0.4,1,0.4h0.8c0.8,0,1.3-0.5,1.3-1.3c0-0.1-2.6-28-2.6-28C140.3,70.2,140.2,69.9,140.1,69.7z
				"/>
			<path style="fill:#231F20;" d="M166.4,70.2c-0.1-0.1-0.3-0.2-0.5-0.2c-0.2,0-0.3-0.1-0.5-0.1H165c-0.4,0-0.6,0-0.9,0.1
				c-0.2,0.1-0.4,0.2-0.6,0.4c-0.1,0.1-0.3,0.3-0.4,0.5c-0.1,0.1-0.1,0.3-0.2,0.4c0,0-3.9,6.6-3.9,6.6l-3.4,5.8l-3.2-5.4l-3.7-6.3
				c0,0-0.8-1.3-0.8-1.3c-0.2-0.3-0.4-0.5-0.6-0.6c-0.2-0.1-0.4-0.2-0.7-0.2c-0.2,0-0.4,0-0.6,0c-0.1,0-0.3,0-0.4,0
				c-0.3,0-0.5,0.1-0.8,0.3c-0.3,0.2-0.4,0.5-0.4,0.8c0,0.3,0.1,0.5,0.3,0.8c0,0,8.4,14,9.3,15.4v11.1c0,0.8,0.5,1.3,1.2,1.3h0.7
				c0.8,0,1.2-0.5,1.2-1.3V87.2c1.6-2.6,3.1-5.2,4.6-7.7c0,0,4.7-7.8,4.7-7.8c0.1-0.1,0.2-0.3,0.2-0.4c0-0.1,0-0.2,0-0.3
				C166.7,70.7,166.6,70.4,166.4,70.2z"/>
			<path style="fill:#231F20;" d="M72.5,96.4H55.6v-6.7h13.3c0.5,0,0.8-0.2,0.9-0.4c0.2-0.2,0.4-0.6,0.4-0.9v-0.7
				c0-0.5-0.2-0.8-0.4-1c-0.2-0.2-0.5-0.3-0.9-0.3H55.6V73.2h16.6c0.4,0,0.7-0.1,1-0.4c0.2-0.2,0.3-0.5,0.3-0.9v-0.7
				c0-0.8-0.5-1.3-1.3-1.3H53.7c-0.3,0-0.5,0.1-0.8,0.2c-0.2,0.1-0.5,0.4-0.5,1.1v27.2c0,0.3,0.1,0.6,0.3,0.8
				c0.2,0.2,0.4,0.4,0.9,0.4h19c0.8,0,1.3-0.5,1.3-1.3v-0.7C73.8,96.9,73.3,96.4,72.5,96.4z"/>
		</g>
		<g>
			<g>
				<g>
					<g>
						<path style="fill:#A4CE4C;" d="M172.2,44.7L172.2,44.7c1.3-0.5,2.5-1.5,3.3-2.8c2-3.3,1-7.6-2.3-9.7c-3.3-2-7.6-1-9.7,2.3
							c-0.8,1.3-1.1,2.8-1,4.3l0,0l0,0c0,0.1,0,0.1,0,0.2l1,9l8.5-3.2C172,44.8,172.1,44.8,172.2,44.7L172.2,44.7z"/>
					</g>
				</g>
			</g>
			<g>
				<g>
					<path style="fill:#A4CE4C;" d="M152,37L152,37c-0.4-1.5-1.2-2.8-2.5-3.9c-3.2-2.6-7.8-2.1-10.4,1.1c-2.6,3.2-2.1,7.8,1.1,10.4
						c1.3,1,2.8,1.6,4.3,1.6l0,0l0,0c0.1,0,0.2,0,0.2,0l9.5,0.2l-2.2-9.3C152,37.2,152,37.1,152,37L152,37z"/>
				</g>
			</g>
			<g>
				<g>
					<path style="fill:#A4CE4C;" d="M159.9,16.9L159.9,16.9c0.3-1.2,0.2-2.6-0.3-3.8c-1.3-3.1-4.9-4.6-8-3.3c-3.1,1.3-4.6,4.9-3.3,8
						c0.5,1.3,1.4,2.2,2.5,2.9l0,0l0,0c0.1,0,0.1,0.1,0.2,0.1l6.8,3.9l2.1-7.6C159.9,17,159.9,17,159.9,16.9L159.9,16.9z"/>
				</g>
			</g>
			<g>
				<g>
					<path style="fill:#A4CE4C;" d="M152.9,57.2L152.9,57.2c-0.8,0.7-1.3,1.6-1.6,2.7c-0.6,2.7,1.2,5.4,4,6c2.7,0.6,5.4-1.2,6-4
						c0.2-1.1,0.1-2.2-0.4-3.1l0,0l0,0c0,0,0-0.1-0.1-0.1l-2.9-5.9l-4.9,4.3C153,57.1,153,57.2,152.9,57.2L152.9,57.2z"/>
				</g>
			</g>
			<g>
				<g>
					<path style="fill:#A4CE4C;" d="M175.3,58.4L175.3,58.4c0.7,0.8,1.6,1.4,2.7,1.6c2.7,0.6,5.5-1.1,6.1-3.8
						c0.6-2.7-1.1-5.5-3.8-6.1c-1.1-0.3-2.2-0.1-3.1,0.3l0,0l0,0c0,0-0.1,0-0.1,0.1l-5.9,2.7l4.2,5.1
						C175.2,58.3,175.3,58.4,175.3,58.4L175.3,58.4z"/>
				</g>
			</g>
		</g>
	</g>
</g>
</svg>
